<svg xmlns="http://www.w3.org/2000/svg" viewBox="0 0 3264 2448"><filter id="b"><feGaussianBlur stdDeviation="12" /></filter><path fill="#8e5321" d="M0 0h3264v2448H0z"/><g filter="url(#b)" transform="translate(6.4 6.4) scale(12.75)" fill-opacity=".5"><ellipse fill="#ff9438" cx="94" cy="72" rx="66" ry="66"/><ellipse fill="#000002" rx="1" ry="1" transform="matrix(28.04017 -35.65958 183.28532 144.12262 32.5 191)"/><ellipse fill="#001224" rx="1" ry="1" transform="rotate(21.6 42.2 569.2) scale(110.41922 30.58368)"/><ellipse fill="#000009" rx="1" ry="1" transform="matrix(-94.1617 99.85954 -19.9158 -18.77944 38 0)"/><path fill="#f3c42e" d="M251 157l-38-75-87 108z"/><ellipse fill="#f50023" rx="1" ry="1" transform="matrix(13.72996 -2.54012 17.34144 93.73475 100.3 156)"/><ellipse fill="#b9ddbe" rx="1" ry="1" transform="matrix(-12.33616 17.3992 -7.12718 -5.05322 238 28)"/><ellipse fill="#00060f" cx="28" cy="188" rx="68" ry="39"/></g></svg>