<svg xmlns="http://www.w3.org/2000/svg" viewBox="0 0 2448 2448"><filter id="b"><feGaussianBlur stdDeviation="12" /></filter><path fill="#5b412e" d="M0 0h2448v2448H0z"/><g filter="url(#b)" transform="translate(4.8 4.8) scale(9.5625)" fill-opacity=".5"><ellipse fill="#ffe17d" rx="1" ry="1" transform="matrix(106.645 -4.00145 1.23935 33.0306 96 68.2)"/><ellipse fill="#15070a" cx="143" cy="237" rx="118" ry="118"/><ellipse fill="#f7a74a" rx="1" ry="1" transform="matrix(10.37185 59.42801 -26.05202 4.5468 178.4 126.8)"/><path fill="#fff" d="M75.9 255.9L72 275.5l-110-21.4 3.8-19.6z"/><ellipse fill="#d0ae69" rx="1" ry="1" transform="matrix(22.17402 4.91586 -12.0066 54.15831 26.1 127.3)"/><ellipse rx="1" ry="1" transform="rotate(-100.9 180 -33) scale(64.48038 21.72757)"/><ellipse fill="#00001f" rx="1" ry="1" transform="matrix(121.60938 29.87013 -5.06768 20.6319 194.9 5.6)"/><ellipse fill="#2e0000" cx="10" cy="59" rx="13" ry="19"/></g></svg>