<svg xmlns="http://www.w3.org/2000/svg" viewBox="0 0 4032 3024"><filter id="c"><feGaussianBlur stdDeviation="55" /></filter><path fill="#aa9880" d="M0 0h4032v3024H0z"/><g filter='url(#c)' fill-opacity='.5'><ellipse fill="#742d00" fill-opacity=".5" rx="1" ry="1" transform="rotate(7 -13368.8 17181.4) scale(1004.15612 624.60468)"/><path fill="#1a1508" fill-opacity=".5" d="M685.1 2795.6H3410V3032H685z"/><ellipse fill="#c7c9c2" fill-opacity=".5" rx="1" ry="1" transform="rotate(-77.5 832.3 -412) scale(551.47204 2057.57786)"/><path fill="#decebb" fill-opacity=".5" d="M4276.1 2748.4L2559.4 1141.9l1480.5-1386z"/><ellipse fill="#c9cecd" fill-opacity=".5" rx="1" ry="1" transform="matrix(412.57031 -129.7809 287.15498 912.85864 679.5 1748.1)"/><ellipse fill="#814f00" fill-opacity=".5" rx="1" ry="1" transform="matrix(1105.62737 169.67764 -63.46459 413.53818 2101.7 1707.4)"/><ellipse fill-opacity=".5" rx="1" ry="1" transform="matrix(-190.32066 -7.81854 9.89598 -240.8902 3125 43.2)"/><path fill="#e0cdbf" fill-opacity=".5" d="M2244.4 2228.6l787.5 362.3-1575 236.2z"/></g></svg>