<svg xmlns="http://www.w3.org/2000/svg" viewBox="0 0 3910 2930"><filter id="b"><feGaussianBlur stdDeviation="12" /></filter><path fill="#a8977e" d="M0 0h3910v2917H0z"/><g filter="url(#b)" transform="translate(7.6 7.6) scale(15.27344)" fill-opacity=".5"><path d="M57.6 38.5l.9-24 141.9 5-.9 24z"/><ellipse fill="#fffde9" rx="1" ry="1" transform="matrix(15.3741 -128.93109 23.4585 2.79726 21.6 73.1)"/><ellipse fill="#653a18" rx="1" ry="1" transform="matrix(9.32653 -41.9974 62.7511 13.93539 158.9 140.6)"/><ellipse fill="#f8f9f1" cx="115" cy="68" rx="75" ry="27"/><ellipse fill="#040b03" rx="1" ry="1" transform="matrix(.3005 -6.88263 79.33155 3.46369 115 166.5)"/><ellipse fill="#c4cdd1" rx="1" ry="1" transform="rotate(-171 50.7 69.5) scale(52.76661 13.09974)"/><ellipse fill="#d5c8b4" rx="1" ry="1" transform="rotate(159.5 119 70.3) scale(29.9791 254.99997)"/><path fill="#5a2a07" d="M19 128.8l77.5.8 130-3.2-132-14z"/></g></svg>