<svg xmlns="http://www.w3.org/2000/svg" viewBox="0 0 3910 2930"><filter id="b"><feGaussianBlur stdDeviation="12" /></filter><path fill="#a8977e" d="M0 0h3910v2917H0z"/><g filter="url(#b)" transform="translate(7.6 7.6) scale(15.27344)" fill-opacity=".5"><path d="M54 14h146v29H54z"/><ellipse fill="#ede8dc" cx="58" cy="65" rx="254" ry="25"/><path fill="#54331d" d="M36 167l166-82 7 94z"/><ellipse fill="#fff3dd" rx="1" ry="1" transform="matrix(25.6553 4.15525 -27.39635 169.15018 10 120.8)"/><path fill="#d4dcde" d="M41.9 129.6l138.9 22.2-76.5 10.6L53 153z"/><ellipse fill="#501a00" rx="1" ry="1" transform="matrix(-.05955 8.60004 -55.7789 -.38626 109.6 123.5)"/><path fill="#130800" d="M198 27l3 52-32-63z"/><ellipse fill="#edd6ae" rx="1" ry="1" transform="matrix(111.33973 13.15172 -2.26514 19.1762 171.6 0)"/></g></svg>