<svg xmlns="http://www.w3.org/2000/svg" viewBox="0 0 3024 4032"><filter id="b"><feGaussianBlur stdDeviation="12" /></filter><path fill="#946d4f" d="M0 0h3024v4032H0z"/><g filter="url(#b)" transform="translate(7.9 7.9) scale(15.75)" fill-opacity=".5"><ellipse fill="#fff" rx="1" ry="1" transform="rotate(-148.8 42.6 114.9) scale(80.97193 31.23533)"/><ellipse fill="#fff" rx="1" ry="1" transform="matrix(-40.8638 68.27845 -24.98922 -14.95574 174 235.7)"/><ellipse fill="#150000" rx="1" ry="1" transform="matrix(-37.76725 -50.9747 30.72631 -22.76518 173.5 116)"/><ellipse fill="#fff" cx="92" cy="79" rx="31" ry="31"/><path d="M78 188l19.1-43 64.9 29-19.1 43z"/><ellipse fill="#0f2312" rx="1" ry="1" transform="matrix(11.52343 -47.271 30.23172 7.3697 31 155)"/><path fill="#fffffc" d="M110 151.1l-15.2-16.3 45.6-4L159 170z"/><ellipse fill="#fffffd" rx="1" ry="1" transform="matrix(20.5338 -14.76599 26.41273 36.72994 16.6 233)"/></g></svg>