<svg xmlns="http://www.w3.org/2000/svg" viewBox="0 0 4032 3024"><filter id="b"><feGaussianBlur stdDeviation="12" /></filter><path fill="#a69381" d="M0 0h4032v3024H0z"/><g filter="url(#b)" transform="translate(7.9 7.9) scale(15.75)" fill-opacity=".5"><path fill="#54462b" d="M-16 71l231 99-47-153z"/><ellipse fill="#f2e8e1" rx="1" ry="1" transform="matrix(241.40769 76.8737 -11.00575 34.56154 78 166.6)"/><path fill="#eadfd0" d="M203.8 54L267 44l23.2 146-63.2 10z"/><ellipse fill="#910000" cx="13" cy="12" rx="54" ry="7"/><path fill="#f4e6da" d="M57 17l1 48-74-30z"/><path fill="#a90000" d="M241 48.8l-33-8.2 5-19.4 33 8.2z"/><path fill="#26240a" d="M139.7 14.2l-5 25.5-30.4-5.9 5-25.5z"/><ellipse fill="#513e2a" cx="79" cy="112" rx="23" ry="23"/></g></svg>