<svg xmlns="http://www.w3.org/2000/svg" viewBox="0 0 1932 1524"><filter id="b"><feGaussianBlur stdDeviation="12" /></filter><path fill="#6a5842" d="M0 0h1932v1516H0z"/><g filter="url(#b)" transform="translate(3.8 3.8) scale(7.54688)" fill-opacity=".5"><ellipse rx="1" ry="1" transform="matrix(14.61476 -46.7337 78.74866 24.62662 221.1 151.4)"/><ellipse fill="#ffe" cx="188" cy="73" rx="48" ry="29"/><ellipse fill="#fffffe" rx="1" ry="1" transform="matrix(68.07426 79.33393 -13.33031 11.43837 13 133)"/><path fill="#fff" d="M99.4 207l41.7-48.8 44.6 30.3 18.4 27.5z"/><path d="M271 31L115 50l5-66z"/><ellipse fill="#ffffdc" rx="1" ry="1" transform="matrix(-8.38608 -8.76556 51.36163 -49.13809 18.7 58.2)"/><ellipse fill="#180000" rx="1" ry="1" transform="rotate(-67.1 101.5 9.6) scale(40.29787 28.1757)"/><ellipse fill="#ffd17b" cx="97" cy="41" rx="11" ry="73"/></g></svg>