<svg xmlns="http://www.w3.org/2000/svg" viewBox="0 0 2141 1550"><filter id="b"><feGaussianBlur stdDeviation="12" /></filter><path fill="#796042" d="M0 0h2141v1547H0z"/><g filter="url(#b)" transform="translate(4.2 4.2) scale(8.36328)" fill-opacity=".5"><ellipse fill="#fad370" rx="1" ry="1" transform="matrix(-.13016 -24.85823 61.21775 -.32054 92.4 121.9)"/><path fill="#110f23" d="M270 186l-77 8 66-210z"/><path fill="#df1e20" d="M88 182l80 18 83-111z"/><ellipse fill="#7dd263" rx="1" ry="1" transform="matrix(-4.0092 -23.03985 60.10905 -10.45966 95.7 58)"/><ellipse fill="#c00017" rx="1" ry="1" transform="matrix(48.08315 80.9457 -16.97948 10.0861 7.4 117)"/><ellipse fill="#193444" cx="142" cy="3" rx="91" ry="25"/><path fill="#000a17" d="M174.5 211.5L159 182.3l48.5-25.8 15.5 29.2z"/><path fill="#f1ffff" d="M209 30.9l58-52.2 4 4.4-58 52.2z"/></g></svg>