<svg xmlns="http://www.w3.org/2000/svg" viewBox="0 0 712 644"><filter id="b"><feGaussianBlur stdDeviation="12" /></filter><path fill="#835c41" d="M0 0h712v642H0z"/><g filter="url(#b)" transform="translate(1.4 1.4) scale(2.78125)" fill-opacity=".5"><ellipse fill="#ffffe1" rx="1" ry="1" transform="matrix(1.6203 109.80925 -20.97572 .3095 70.5 149.2)"/><ellipse rx="1" ry="1" transform="matrix(-7.78033 22.09345 -98.30793 -34.61969 102.7 33.5)"/><ellipse fill="#fff791" rx="1" ry="1" transform="matrix(-21.20249 4.89498 -15.82114 -68.52888 150.5 145.2)"/><ellipse fill="#050000" rx="1" ry="1" transform="matrix(14.8075 -21.63795 62.41208 42.71045 235.8 193.2)"/><path fill="#fcd687" d="M245 60l26-76-196 1z"/><ellipse fill="#4a0400" rx="1" ry="1" transform="matrix(-23.50888 -.68754 3.9684 -135.68953 25.5 190.4)"/><ellipse fill="#eeabcb" cx="220" cy="121" rx="34" ry="27"/><path fill="#2c0000" d="M87 23.9l29-1.6 7 133.8-29 1.6z"/></g></svg>