<svg xmlns="http://www.w3.org/2000/svg" viewBox="0 0 4032 3024"><filter id="b"><feGaussianBlur stdDeviation="12" /></filter><path fill="#a25c38" d="M0 0h4032v3024H0z"/><g filter="url(#b)" transform="translate(7.9 7.9) scale(15.75)" fill-opacity=".5"><ellipse fill="#fff898" rx="1" ry="1" transform="matrix(-7.73918 30.81097 -59.16246 -14.86058 242 30)"/><ellipse fill="#5e3d1c" cx="157" cy="159" rx="80" ry="80"/><ellipse fill="#ffffa3" rx="1" ry="1" transform="rotate(111.7 67.5 175) scale(78.34184 14.42708)"/><ellipse fill="#c98e5e" rx="1" ry="1" transform="rotate(-168.3 39.7 29.4) scale(44.29622 39.50744)"/><ellipse fill="#9a1104" rx="1" ry="1" transform="matrix(81.24387 77.76707 -17.48877 18.27066 24.9 173.6)"/><ellipse fill="#cea355" cx="124" cy="138" rx="13" ry="38"/><ellipse fill="#de361c" rx="1" ry="1" transform="matrix(97.5382 -97.05408 20.67476 20.7779 25.6 18.5)"/><ellipse fill="#432f13" rx="1" ry="1" transform="matrix(-22.68782 -8.70904 10.60828 -27.63552 86.1 137.4)"/></g></svg>