<svg xmlns="http://www.w3.org/2000/svg" viewBox="0 0 2078 1344"><filter id="b"><feGaussianBlur stdDeviation="12" /></filter><path fill="#98693e" d="M0 0h2078v1339H0z"/><g filter="url(#b)" transform="translate(4 4) scale(8.11719)" fill-opacity=".5"><ellipse fill="#fff48f" rx="1" ry="1" transform="matrix(6.33044 27.44813 -204.9258 47.26265 76.2 20.2)"/><ellipse rx="1" ry="1" transform="rotate(-85.3 150.7 8.6) scale(21.11042 117.29209)"/><ellipse fill="#e8f066" cx="22" cy="74" rx="43" ry="31"/><path fill="#a70013" d="M271 65l-90 89 73 24z"/><ellipse fill="#480000" rx="1" ry="1" transform="matrix(-9.19408 11.19306 -35.0694 -28.80632 91.7 75.5)"/><ellipse fill="#622e1b" rx="1" ry="1" transform="rotate(-145.7 100.3 .6) scale(57.82063 25.20704)"/><path fill="#0f1800" d="M21 180l-2-75 148 75z"/><ellipse fill="#f0978a" rx="1" ry="1" transform="matrix(-52.3217 -2.49635 .89439 -18.74576 205.4 24.8)"/></g></svg>