<svg xmlns="http://www.w3.org/2000/svg" viewBox="0 0 4032 3024"><filter id="b"><feGaussianBlur stdDeviation="12" /></filter><path fill="#6d6150" d="M0 0h4032v3024H0z"/><g filter="url(#b)" transform="translate(7.9 7.9) scale(15.75)" fill-opacity=".5"><ellipse fill="#e7efe4" rx="1" ry="1" transform="rotate(115.2 5.5 47) scale(59.73741 15.06271)"/><ellipse fill="#e6b771" rx="1" ry="1" transform="matrix(-4.25495 -60.08124 55.75066 -3.94826 231.7 160.2)"/><path fill="#000003" d="M271 14L158-16l104 132z"/><path fill="#200" d="M8.9-21L53.3-5.5-8.9 174.9l-44.4-15.3z"/><path fill="#d5e3ff" d="M76 179h94v13H76z"/><ellipse fill="#fff" rx="1" ry="1" transform="rotate(82.4 -108.6 96) scale(10.49527 25.29014)"/><ellipse fill="#140000" rx="1" ry="1" transform="matrix(10.89282 -12.75386 65.87662 56.26395 20.4 158.4)"/><ellipse fill="#ecb99f" cx="234" cy="23" rx="7" ry="43"/></g></svg>