<svg xmlns="http://www.w3.org/2000/svg" viewBox="0 0 1024 768"><filter id="b"><feGaussianBlur stdDeviation="12" /></filter><path fill="#b6a999" d="M0 0h1024v768H0z"/><g filter="url(#b)" transform="matrix(4 0 0 4 2 2)" fill-opacity=".5"><path d="M230 193l-88 11 93-52zm28-131L187-4l84 42z"/><ellipse fill="#241603" rx="1" ry="1" transform="matrix(9.17043 15.39684 -26.4611 15.76034 108 114.9)"/><path fill="#fff7ef" d="M-30 61.3l38.5-25L88 158.7l-38.5 25z"/><ellipse fill="#524a2f" rx="1" ry="1" transform="matrix(-25.23562 11.07766 -14.82453 -33.77122 138.5 42.3)"/><ellipse fill="#640000" rx="1" ry="1" transform="matrix(-2.06635 8.9541 -77.89265 -17.97537 18.6 180)"/><ellipse fill="#f4ede8" cx="171" cy="142" rx="59" ry="37"/><ellipse fill="#1e1103" cx="181" cy="94" rx="35" ry="11"/></g></svg>