<svg xmlns="http://www.w3.org/2000/svg" viewBox="0 0 4032 3024"><filter id="b"><feGaussianBlur stdDeviation="12" /></filter><path fill="#776745" d="M0 0h4032v3024H0z"/><g filter="url(#b)" transform="translate(7.9 7.9) scale(15.75)" fill-opacity=".5"><ellipse fill="#f2ce7b" cx="112" cy="106" rx="87" ry="87"/><ellipse fill="#04080f" rx="1" ry="1" transform="matrix(-19.04003 -213.3393 74.38934 -6.63907 251.4 77.4)"/><path d="M1.3 128.1L62.7 194l-30 28-61.4-65.8z"/><ellipse fill="#000211" rx="1" ry="1" transform="matrix(-18.44543 -26.4409 90.52597 -63.1518 31.8 20.6)"/><path d="M159 122l37 1-65-69z"/><ellipse fill="#eccf81" rx="1" ry="1" transform="matrix(-30.74177 -20.73558 11.39037 -16.88692 190 82)"/><path fill="#000305" d="M230-16L134 6l70 71z"/><ellipse rx="1" ry="1" transform="rotate(-166.6 130.1 63.7) scale(17.94052 62.3738)"/></g></svg>