<svg xmlns="http://www.w3.org/2000/svg" viewBox="0 0 2592 1936"><filter id="b"><feGaussianBlur stdDeviation="12" /></filter><path fill="#9a877b" d="M0 0h2592v1933H0z"/><g filter="url(#b)" transform="translate(5 5) scale(10.125)" fill-opacity=".5"><ellipse fill="#fff" rx="1" ry="1" transform="rotate(-149.4 92.1 53.6) scale(18.94092 188.51077)"/><ellipse fill="#2a0800" rx="1" ry="1" transform="rotate(14.9 -315.9 922) scale(33.38065 100.68177)"/><ellipse fill="#fff" cx="26" cy="163" rx="27" ry="93"/><ellipse fill="#180000" rx="1" ry="1" transform="rotate(-168.8 46.5 74.4) scale(23.37707 28.91243)"/><ellipse fill="#250300" rx="1" ry="1" transform="matrix(-18.08655 3.74554 -12.824 -61.9247 50.6 37.2)"/><ellipse fill="#190000" rx="1" ry="1" transform="matrix(-18.61098 9.22278 -11.49456 -23.19528 128 99.2)"/><ellipse fill="#fffbe7" rx="1" ry="1" transform="matrix(-39.73153 -43.35943 24.61692 -22.55721 146.5 175.4)"/><ellipse fill="#fffff8" cx="90" cy="73" rx="14" ry="50"/></g></svg>