<svg xmlns="http://www.w3.org/2000/svg" viewBox="0 0 3024 4032"><filter id="b"><feGaussianBlur stdDeviation="12" /></filter><path fill="#6b5946" d="M0 0h3024v4032H0z"/><g filter="url(#b)" transform="translate(7.9 7.9) scale(15.75)" fill-opacity=".5"><ellipse fill="#ffffbf" rx="1" ry="1" transform="matrix(-10.31737 34.9067 -42.60362 -12.59234 131.3 185.3)"/><ellipse fill="#fff" rx="1" ry="1" transform="rotate(148.7 7.7 12) scale(191 27.28831)"/><ellipse fill="#ffffd7" rx="1" ry="1" transform="matrix(3.10488 28.58088 -34.75923 3.77606 183.9 64.9)"/><ellipse rx="1" ry="1" transform="matrix(179.5748 65.06838 -12.06615 33.3 63.2 232.7)"/><ellipse fill="#010101" rx="1" ry="1" transform="matrix(-36.31798 -10.73426 20.3382 -68.81167 107 79.8)"/><ellipse fill="#ffe98b" cx="132" cy="189" rx="47" ry="31"/><ellipse rx="1" ry="1" transform="matrix(-87.16845 27.93153 -6.28414 -19.6115 151.2 242)"/><path fill="#ffcc9b" d="M87 178.9l-76.4-31.1 41-41.8L9 109.3z"/></g></svg>