<svg xmlns="http://www.w3.org/2000/svg" viewBox="0 0 4032 3024"><filter id="c"><feGaussianBlur stdDeviation="55" /></filter><path fill="#9a7353" d="M0 0h4032v3024H0z"/><g filter='url(#c)' fill-opacity='.5'><ellipse fill="#fffde2" fill-opacity=".5" rx="1" ry="1" transform="matrix(897.38588 999.60878 -444.17949 398.7564 3017 1150.6)"/><ellipse fill-opacity=".5" rx="1" ry="1" transform="matrix(1847.92752 2495.1746 -369.19855 273.42862 555.8 2997.8)"/><ellipse fill="#671600" fill-opacity=".5" rx="1" ry="1" transform="rotate(-117.7 1103 172.2) scale(648.35631 872.10932)"/><ellipse fill="#040000" fill-opacity=".5" rx="1" ry="1" transform="matrix(-277.19774 -281.31575 1438.6393 -1417.57996 3792 2923.6)"/><path fill="#ffffe6" fill-opacity=".5" d="M2370 3388.3L2112.7 2992l1360.5-883.5 257.4 396.2z"/><ellipse fill="#160000" fill-opacity=".5" rx="1" ry="1" transform="rotate(114.1 1571.3 1024) scale(306.93687 1744.50587)"/><ellipse fill="#fff9cc" fill-opacity=".5" rx="1" ry="1" transform="matrix(-649.94264 -605.93982 149.20013 -160.03491 950.5 2385.8)"/><ellipse fill="#1b0000" fill-opacity=".5" rx="1" ry="1" transform="matrix(-169.84482 -410.04167 2103.2733 -871.20432 626.8 7.8)"/></g></svg>