<svg xmlns="http://www.w3.org/2000/svg" viewBox="0 0 4032 3024"><filter id="c"><feGaussianBlur stdDeviation="55" /></filter><path fill="#8d673b" d="M0 0h4032v3024H0z"/><g filter='url(#c)' fill-opacity='.5'><ellipse fill-opacity=".5" rx="1" ry="1" transform="rotate(-59.9 2299.8 -3297) scale(589.513 3337.6908)"/><ellipse fill-opacity=".5" rx="1" ry="1" transform="matrix(-1588.43887 -939.07468 202.9539 -343.29525 443 2811.7)"/><ellipse fill="#ffb357" fill-opacity=".5" rx="1" ry="1" transform="matrix(-1472.36888 -22.55138 16.69738 -1090.16409 1897.4 1801.8)"/><ellipse fill-opacity=".5" rx="1" ry="1" transform="matrix(227.68665 356.85374 -1789.71032 1141.90522 3669.8 2894.6)"/><ellipse fill="#0d162a" fill-opacity=".5" rx="1" ry="1" transform="matrix(-337.70934 -162.02044 634.78425 -1323.12056 99.4 531.7)"/><ellipse fill-opacity=".5" rx="1" ry="1" transform="matrix(-2215.92004 -1309.55904 224.84652 -380.4654 461.3 3016.1)"/><ellipse fill="#000001" fill-opacity=".5" rx="1" ry="1" transform="matrix(277.79526 -107.05157 949.89048 2464.93417 3863 432.6)"/><ellipse fill-opacity=".5" rx="1" ry="1" transform="matrix(72.828 242.74834 -1596.10687 478.85501 3251.9 3018.1)"/></g></svg>