<svg xmlns="http://www.w3.org/2000/svg" viewBox="0 0 2592 1936"><filter id="b"><feGaussianBlur stdDeviation="12" /></filter><path fill="#a59c89" d="M0 0h2592v1933H0z"/><g filter="url(#b)" transform="translate(5 5) scale(10.125)" fill-opacity=".5"><path fill="#091334" d="M199.4 107.7l21 43.2-125.8 61.4-21-43.2z"/><ellipse fill="#ffffea" rx="1" ry="1" transform="rotate(146.2 111 69.2) scale(36.81502 67.64343)"/><ellipse cx="25" rx="255" ry="9"/><ellipse fill="#fffff2" rx="1" ry="1" transform="rotate(-73.3 55.3 20.3) scale(59.1731 28.76627)"/><ellipse fill="#143509" rx="1" ry="1" transform="rotate(-61.7 101.4 -15.3) scale(67.03773 14.60267)"/><ellipse fill="#000e5f" rx="1" ry="1" transform="matrix(36.90405 29.14506 -8.9478 11.32988 70.6 156.8)"/><ellipse fill="#fff6d4" rx="1" ry="1" transform="matrix(23.46674 -15.60532 87.24421 131.19488 19.9 165)"/><ellipse fill="#fdd98e" rx="1" ry="1" transform="matrix(-26.4963 16.97925 -27.89005 -43.52273 112.9 112.8)"/></g></svg>