<svg xmlns="http://www.w3.org/2000/svg" viewBox="0 0 3264 2448"><filter id="b"><feGaussianBlur stdDeviation="12" /></filter><path fill="#636366" d="M0 0h3264v2448H0z"/><g filter="url(#b)" transform="translate(6.4 6.4) scale(12.75)" fill-opacity=".5"><ellipse fill="#ffffd3" cx="83" cy="69" rx="36" ry="66"/><ellipse fill="#ffe" rx="1" ry="1" transform="matrix(-15.34247 -20.0468 67.84023 -51.92035 13.2 28)"/><ellipse fill="#0f161b" rx="1" ry="1" transform="matrix(149.1549 -133.72456 48.53132 54.1313 195.6 142.2)"/><path fill="#000d87" d="M21 49l98 158-135-95z"/><ellipse fill="#ffe045" rx="1" ry="1" transform="matrix(-30.10408 8.06206 -3.80248 -14.19862 59.5 100.6)"/><ellipse fill="#ffd6cc" rx="1" ry="1" transform="rotate(-106.3 78 90.8) scale(36.81904 34.47307)"/><ellipse fill="#87ae56" rx="1" ry="1" transform="matrix(10.55078 18.21294 -39.79053 23.05071 177.2 116.6)"/><path fill="#fff2c0" d="M60 29h68v43H60z"/></g></svg>