<svg xmlns="http://www.w3.org/2000/svg" viewBox="0 0 4032 3024"><filter id="b"><feGaussianBlur stdDeviation="12" /></filter><path fill="#776745" d="M0 0h4032v3024H0z"/><g filter="url(#b)" transform="translate(7.9 7.9) scale(15.75)" fill-opacity=".5"><ellipse fill="#f1ce7b" cx="110" cy="106" rx="87" ry="87"/><ellipse fill="#050810" rx="1" ry="1" transform="matrix(13.614 220.45162 -53.20043 3.2854 226.7 39.6)"/><ellipse rx="1" ry="1" transform="matrix(-22.5998 20.0959 -64.15853 -72.15248 10 180.5)"/><ellipse fill="#000010" rx="1" ry="1" transform="matrix(-16.93071 -25.75618 145.68336 -95.76434 37.4 17.3)"/><ellipse fill="#f9da8a" rx="1" ry="1" transform="matrix(28.88044 15.45548 -9.016 16.84748 192.5 86.3)"/><ellipse fill="#030700" rx="1" ry="1" transform="rotate(146.8 64.5 72.8) scale(9.30308 46.37358)"/><path fill="#000004" d="M141 0h78v32h-78z"/><path fill="#fffffe" d="M164 184l63-43-26 32z"/></g></svg>