<svg xmlns="http://www.w3.org/2000/svg" viewBox="0 0 4032 3024"><filter id="c"><feGaussianBlur stdDeviation="55" /></filter><path fill="#958975" d="M0 0h4032v3024H0z"/><g filter='url(#c)' fill-opacity='.5'><ellipse fill="#261605" fill-opacity=".5" rx="1" ry="1" transform="matrix(-513.04042 -495.9306 716.31973 -741.03307 937.9 2129.8)"/><ellipse fill="#fffff4" fill-opacity=".5" rx="1" ry="1" transform="matrix(-142.3931 -518.00894 2539.91544 -698.18574 3259.9 2748.2)"/><ellipse fill-opacity=".5" rx="1" ry="1" transform="rotate(-79.3 250.7 -292.6) scale(592.69397 922.90419)"/><ellipse fill="#decdb6" fill-opacity=".5" rx="1" ry="1" transform="matrix(1595.76895 1060.05992 -518.55873 780.61618 3921.1 376.5)"/><ellipse fill="#e4ded0" fill-opacity=".5" rx="1" ry="1" transform="rotate(-103.1 1012 -91.2) scale(372.99024 713.05807)"/><path fill="#3c2d0e" fill-opacity=".5" d="M1945.1 118.1h409.5v1512h-409.5z"/><ellipse fill="#c1b7ad" fill-opacity=".5" rx="1" ry="1" transform="matrix(-202.15586 56.65052 -141.38228 -504.5189 510 2346.4)"/><ellipse fill="#1c1103" fill-opacity=".5" rx="1" ry="1" transform="matrix(284.73567 77.86581 -160.33159 586.29224 1073 2219)"/></g></svg>