<svg xmlns="http://www.w3.org/2000/svg" viewBox="0 0 4032 3024"><filter id="b"><feGaussianBlur stdDeviation="12" /></filter><path fill="#736859" d="M0 0h4032v3024H0z"/><g filter="url(#b)" transform="translate(7.9 7.9) scale(15.75)" fill-opacity=".5"><ellipse fill="#ead1ad" rx="1" ry="1" transform="matrix(40.9565 37.39842 -93.58385 102.4874 44.8 149.3)"/><ellipse rx="1" ry="1" transform="rotate(149.5 30.6 14.6) scale(255 41.32574)"/><ellipse fill="#00000b" rx="1" ry="1" transform="matrix(-11.34092 33.819 -92.73286 -31.0972 231.4 19.1)"/><ellipse fill="#fffdb0" cx="201" cy="117" rx="27" ry="24"/><ellipse fill="#27282e" rx="1" ry="1" transform="rotate(28.3 -227.6 458.7) scale(186.35496 16.04362)"/><path fill="#ffe49c" d="M129.5 106.8l-17.7-19 60.7-56.6 17.7 19z"/><ellipse fill="#fffbb1" cx="21" cy="116" rx="24" ry="24"/><path fill="#02090f" d="M105.8 82.1l-8.6-11 63-49.2 8.6 11z"/></g></svg>