<svg xmlns="http://www.w3.org/2000/svg" viewBox="0 0 4032 3024"><filter id="b"><feGaussianBlur stdDeviation="12" /></filter><path fill="#a79278" d="M0 0h4032v3024H0z"/><g filter="url(#b)" transform="translate(7.9 7.9) scale(15.75)" fill-opacity=".5"><ellipse fill="#4e2800" rx="1" ry="1" transform="rotate(-16.3 314.4 -448.6) scale(75.24503 65.96855)"/><ellipse fill="#fff" rx="1" ry="1" transform="matrix(-86.2092 215.53836 -37.85245 -15.1399 5 53.4)"/><ellipse fill="#d7ecff" rx="1" ry="1" transform="matrix(-44.02446 164.5734 -29.78626 -7.96802 255 96.6)"/><ellipse fill="#fdd68b" cx="142" cy="166" rx="87" ry="19"/><ellipse fill="#9a6b2f" cx="214" cy="95" rx="24" ry="48"/><ellipse fill="#ffc76b" rx="1" ry="1" transform="rotate(-27.4 264.8 -35) scale(26.86204 60.12197)"/><ellipse fill="#adc6ec" rx="1" ry="1" transform="matrix(-93.63675 -67.04284 13.42956 -18.75667 255 40.3)"/><ellipse fill="#573f19" rx="1" ry="1" transform="matrix(-7.8916 19.16218 -28.96584 -11.92905 118.5 139.4)"/></g></svg>