<svg xmlns="http://www.w3.org/2000/svg" viewBox="0 0 2391 2391"><filter id="b"><feGaussianBlur stdDeviation="12" /></filter><path fill="#ae9e87" d="M0 0h2391v2391H0z"/><g filter="url(#b)" transform="translate(4.7 4.7) scale(9.33984)" fill-opacity=".5"><ellipse rx="1" ry="1" transform="matrix(-16.00732 24.25948 -90.47133 -59.69638 150.8 92)"/><ellipse fill="#4b1200" rx="1" ry="1" transform="matrix(-32.43051 85.3362 -43.87221 -16.67286 40.9 101.5)"/><ellipse fill="#fff" cx="140" cy="233" rx="145" ry="81"/><path fill="#fff" d="M142.8 13.4l128 51.7-17.6 43.5-128-51.7z"/><ellipse rx="1" ry="1" transform="matrix(-41.93692 -15.21812 8.55274 -23.56899 177.1 101.7)"/><ellipse fill="#7aa428" cx="35" cy="168" rx="38" ry="31"/><ellipse fill="#450000" rx="1" ry="1" transform="rotate(129.7 -17.3 53.5) scale(32.08534 49.16382)"/><ellipse fill="#060000" rx="1" ry="1" transform="matrix(3.198 23.0987 -22.04133 3.0516 215.4 148.8)"/></g></svg>