<svg xmlns="http://www.w3.org/2000/svg" viewBox="0 0 4032 3024"><filter id="b"><feGaussianBlur stdDeviation="12" /></filter><path fill="#544b3d" d="M0 0h4032v3024H0z"/><g filter="url(#b)" transform="translate(7.9 7.9) scale(15.75)" fill-opacity=".5"><ellipse fill="#ffffed" rx="1" ry="1" transform="matrix(-3.10243 -32.68138 49.3818 -4.6878 134.8 138.6)"/><ellipse fill="#cbab7f" rx="1" ry="1" transform="matrix(55.04962 -11.77595 7.0263 32.84623 109.1 81.1)"/><ellipse rx="1" ry="1" transform="matrix(-142.59318 -80.27669 10.00139 -17.76518 174.6 43.3)"/><path fill="#fff" d="M284.6 172.3l-68.8 48.2-10.4-14.8 68.8-48.2z"/><ellipse rx="1" ry="1" transform="matrix(114.3697 12.2226 -2.29438 21.469 125 190.3)"/><path fill="#fff4ec" d="M114 125h50v52h-50z"/><ellipse fill="#110f0d" cx="14" cy="85" rx="33" ry="75"/><ellipse fill="#070400" cx="223" cy="109" rx="20" ry="82"/></g></svg>