<svg xmlns="http://www.w3.org/2000/svg" viewBox="0 0 4032 3024"><filter id="b"><feGaussianBlur stdDeviation="12" /></filter><path fill="#94724a" d="M0 0h4032v3024H0z"/><g filter="url(#b)" transform="translate(7.9 7.9) scale(15.75)" fill-opacity=".5"><ellipse rx="1" ry="1" transform="matrix(.4686 24.40483 -174.6862 3.35415 149 2.1)"/><ellipse fill="#dec9a6" cx="169" cy="136" rx="119" ry="28"/><ellipse fill="#200500" rx="1" ry="1" transform="matrix(-7.03991 13.02005 -55.16293 -29.82648 202.4 70.5)"/><ellipse fill="#fff" cx="250" cy="65" rx="23" ry="15"/><ellipse fill="#e2c6a4" rx="1" ry="1" transform="rotate(-40.2 133.3 -102) scale(57.11725 21.04323)"/><path fill="#3b0500" d="M167.7 174.3L48 160l172.5 47-15.4-70.8z"/><ellipse rx="1" ry="1" transform="matrix(8.48767 3.91537 -15.31986 33.21009 202.6 54.9)"/><path fill="#f4f7ec" d="M102 129l43 45-5-70z"/></g></svg>