<svg xmlns="http://www.w3.org/2000/svg" viewBox="0 0 3662 2744"><filter id="b"><feGaussianBlur stdDeviation="12" /></filter><path fill="#856b41" d="M0 0h3662v2732H0z"/><g filter="url(#b)" transform="translate(7.2 7.2) scale(14.30469)" fill-opacity=".5"><ellipse fill="#fcc866" cx="129" cy="99" rx="83" ry="83"/><ellipse rx="1" ry="1" transform="matrix(33.57673 -14.79226 25.54874 57.9927 239.7 36.3)"/><ellipse fill="#040913" rx="1" ry="1" transform="matrix(254.15401 -20.75423 2.77934 34.03546 214.3 182.7)"/><ellipse rx="1" ry="1" transform="matrix(-18.86918 9.62837 -23.68118 -46.40913 42.4 179.9)"/><ellipse fill="#00010c" rx="1" ry="1" transform="matrix(10.74572 10.94261 -61.06618 59.9674 87.3 10.3)"/><ellipse fill="#cea75b" rx="1" ry="1" transform="matrix(-76.93543 12.87457 -5.33 -31.85081 146.4 149)"/><ellipse fill="#d6b6b1" rx="1" ry="1" transform="rotate(-114.6 13.7 11) scale(26.85447 51.78241)"/><ellipse fill="#000005" rx="1" ry="1" transform="matrix(7.61714 34.3587 -20.40057 4.5227 240.8 136.3)"/></g></svg>