<svg xmlns="http://www.w3.org/2000/svg" viewBox="0 0 4032 3024"><filter id="b"><feGaussianBlur stdDeviation="12" /></filter><path fill="#855d4a" d="M0 0h4032v3024H0z"/><g filter="url(#b)" transform="translate(7.9 7.9) scale(15.75)" fill-opacity=".5"><ellipse cx="154" cy="127" rx="78" ry="56"/><ellipse fill="#fffbc0" rx="1" ry="1" transform="matrix(-23.27443 32.59684 -70.57454 -50.39085 255 50)"/><ellipse fill="#ffe8c2" rx="1" ry="1" transform="matrix(-15.97824 -1.27762 6.6593 -83.2829 71.4 70.8)"/><ellipse fill="#ffb774" rx="1" ry="1" transform="rotate(-109.1 39.6 23) scale(33.20096 67.1353)"/><path fill="#fff" d="M265 139l-29-34-8 77z"/><ellipse rx="1" ry="1" transform="matrix(13.0008 -16.71503 28.0284 21.80025 25.3 5.3)"/><path fill="#ffc885" d="M90 29l162 38-71-41z"/><ellipse fill="#f2f5e9" rx="1" ry="1" transform="matrix(24.22919 25.23887 -6.77136 6.50047 79 153.9)"/></g></svg>