<svg xmlns="http://www.w3.org/2000/svg" viewBox="0 0 3264 2448"><filter id="b"><feGaussianBlur stdDeviation="12" /></filter><path fill="#bd9d55" d="M0 0h3264v2448H0z"/><g filter="url(#b)" transform="translate(6.4 6.4) scale(12.75)" fill-opacity=".5"><ellipse fill="#a26100" cx="119" cy="107" rx="75" ry="75"/><path fill="#fff1d5" d="M226 21l45 105-87 80z"/><ellipse fill="#c9c2a5" cx="212" cy="28" rx="54" ry="54"/><ellipse fill="#ffd" rx="1" ry="1" transform="rotate(131.5 -19.7 78.8) scale(9.52022 64.0205)"/><path d="M-5.8 160.7l57.2 38.5-9.6 14.1-57.2-38.5z"/><ellipse fill="#f8db45" rx="1" ry="1" transform="rotate(-170.7 44.5 56.3) scale(93.81317 14.74333)"/><ellipse fill="#ffffda" rx="1" ry="1" transform="matrix(-4.59387 -11.8437 75.07502 -29.11968 148.2 191)"/><ellipse fill="#512700" rx="1" ry="1" transform="matrix(15.32413 14.01623 -18.2326 19.93396 128 83.2)"/></g></svg>