<svg xmlns="http://www.w3.org/2000/svg" viewBox="0 0 4032 3024"><filter id="b"><feGaussianBlur stdDeviation="12" /></filter><path fill="#a79681" d="M0 0h4032v3024H0z"/><g filter="url(#b)" transform="translate(7.9 7.9) scale(15.75)" fill-opacity=".5"><ellipse rx="1" ry="1" transform="matrix(23.61006 -41.39285 154.183 87.94443 37.8 191)"/><ellipse fill="#fffffc" rx="1" ry="1" transform="matrix(15.09045 -39.7259 142.24388 54.03338 170 23.6)"/><ellipse fill="#241a01" rx="1" ry="1" transform="matrix(-41.66955 7.6749 -7.08803 -38.48324 151.5 122.1)"/><ellipse fill="#f9f4e3" rx="1" ry="1" transform="matrix(42.23278 24.55974 -62.95827 108.26265 228.8 158.4)"/><ellipse rx="1" ry="1" transform="rotate(56.6 -18 9.7) scale(19.98124 66.08087)"/><path fill="#fff" d="M119 140l-135-37 177 104z"/><ellipse fill="#8e4200" cx="55" cy="69" rx="59" ry="41"/><ellipse rx="1" ry="1" transform="matrix(-144.84365 -71.15212 15.01883 -30.57368 14.1 165.6)"/></g></svg>