<svg xmlns="http://www.w3.org/2000/svg" viewBox="0 0 4032 3024"><filter id="c"><feGaussianBlur stdDeviation="55" /></filter><path fill="#7a5d45" d="M0 0h4032v3024H0z"/><g filter='url(#c)' fill-opacity='.5'><ellipse fill="#ffffc6" fill-opacity=".5" rx="1" ry="1" transform="matrix(-64.21304 -259.88114 791.36592 -195.5356 1239.7 2085.7)"/><path fill="#cddae5" fill-opacity=".5" d="M1777.3-398.6L4064 129.3l-124 537-2286.6-527.8z"/><ellipse fill="#000205" fill-opacity=".5" rx="1" ry="1" transform="matrix(876.1178 -3919.5257 378.5909 84.6251 331.6 449)"/><ellipse fill="#110d00" fill-opacity=".5" rx="1" ry="1" transform="matrix(-1351.6654 928.9739 -206.2883 -300.15133 2324 2848)"/><ellipse fill="#ee925a" fill-opacity=".5" rx="1" ry="1" transform="matrix(411.13623 -773.23479 282.94343 150.4437 794 1338.1)"/><path fill="#fff6c8" fill-opacity=".5" d="M1472.6 1882.1l850.5-47.2-31.5-535.5z"/><path fill="#fffcd4" fill-opacity=".5" d="M1063.1 574.9L1929.4 370l-645.8 646z"/><path fill="#ffffdb" fill-opacity=".5" d="M1894 1212l-67.9-121.1-571.4 221.8 456.7 193z"/></g></svg>