<svg xmlns="http://www.w3.org/2000/svg" viewBox="0 0 4032 3024"><filter id="b"><feGaussianBlur stdDeviation="12" /></filter><path fill="#624e36" d="M0 0h4032v3024H0z"/><g filter="url(#b)" transform="translate(7.9 7.9) scale(15.75)" fill-opacity=".5"><ellipse fill="#d1924d" rx="1" ry="1" transform="matrix(-1.61813 45.38959 -114.99246 -4.09946 168.4 108.6)"/><ellipse rx="1" ry="1" transform="rotate(-94.3 65.9 -45.3) scale(24.07856 170.45935)"/><ellipse fill="#fcf0dd" rx="1" ry="1" transform="matrix(-14.16554 1.2433 -4.92296 -56.09 17.1 128.9)"/><ellipse fill="#fff" rx="1" ry="1" transform="matrix(122.30915 -31.98766 1.23847 4.73547 135.1 168.8)"/><ellipse rx="1" ry="1" transform="matrix(131.72755 -22.04363 3.53224 21.10784 213.7 178.1)"/><path fill="#200900" d="M36 189l-9-70 142 9z"/><path fill="#fcffff" d="M192.7 70.8L255.4 98l-80.2-18.2L126.6 56z"/><ellipse fill="#edf1ef" cx="116" cy="43" rx="44" ry="4"/></g></svg>