<svg xmlns="http://www.w3.org/2000/svg" viewBox="0 0 3256 2441"><filter id="c"><feGaussianBlur stdDeviation="55" /></filter><path fill="#845e42" d="M0 0h3256v2429H0z"/><g filter='url(#c)' fill-opacity='.5'><ellipse fill="#fff" fill-opacity=".5" rx="1" ry="1" transform="matrix(-2003.69495 -514.6635 51.29257 -199.69291 1726.7 172.8)"/><path fill="#ffffdb" fill-opacity=".5" d="M575.3 2039.6l-625.6 390.9-512.3-819.8L63 1219.8z"/><ellipse fill-opacity=".5" rx="1" ry="1" transform="matrix(128.05924 -225.42503 887.09656 503.94098 2670.5 936.8)"/><path fill="#742a00" fill-opacity=".5" d="M-197.1 464.2L985.7 2626.4l2467.4-1233.7z"/><ellipse fill="#fff" fill-opacity=".5" rx="1" ry="1" transform="matrix(-852.78938 -152.08994 29.99665 -168.19538 1732.7 137.2)"/><path fill="#ecffff" fill-opacity=".5" d="M3120.7 2489.1l-205.8-149.5 209.3-288.1L3330 2201z"/><path fill="#fad8bb" fill-opacity=".5" d="M3211.5 44.5l-737.7 508.8L3097 833z"/><ellipse fill="#1d2319" fill-opacity=".5" rx="1" ry="1" transform="rotate(-122 726.3 639) scale(1661.29785 179.22029)"/></g></svg>