<svg xmlns="http://www.w3.org/2000/svg" viewBox="0 0 4032 3024"><filter id="b"><feGaussianBlur stdDeviation="12" /></filter><path fill="#958975" d="M0 0h4032v3024H0z"/><g filter="url(#b)" transform="translate(7.9 7.9) scale(15.75)" fill-opacity=".5"><ellipse fill="#180400" rx="1" ry="1" transform="matrix(-10.86194 49.21609 -37.15293 -8.19961 70.4 126.6)"/><ellipse fill="#fffff5" rx="1" ry="1" transform="matrix(14.31444 40.64807 -123.07693 43.34223 178.6 191)"/><ellipse rx="1" ry="1" transform="rotate(94.7 11.5 18.3) scale(26.84598 58.37164)"/><ellipse fill="#e9e4d6" rx="1" ry="1" transform="rotate(165.9 40.4 31.8) scale(36.90595 25.28296)"/><ellipse rx="1" ry="1" transform="matrix(10.07405 -3.53333 8.83017 25.1761 19.6 178)"/><ellipse fill="#e4d2ba" rx="1" ry="1" transform="rotate(-123.6 122 -49.5) scale(75.86868 41.79295)"/><ellipse fill="#463412" cx="137" cy="57" rx="16" ry="53"/><path fill="#281f0d" d="M77 79l17 94-65 18z"/></g></svg>