<svg xmlns="http://www.w3.org/2000/svg" viewBox="0 0 4032 3024"><filter id="b"><feGaussianBlur stdDeviation="12" /></filter><path fill="#856843" d="M0 0h4032v3024H0z"/><g filter="url(#b)" transform="translate(7.9 7.9) scale(15.75)" fill-opacity=".5"><ellipse fill="#fff1d3" rx="1" ry="1" transform="matrix(28.50287 50.37866 -15.8203 8.9507 56 138.7)"/><ellipse fill="#ffdb7c" cx="123" cy="112" rx="51" ry="29"/><ellipse rx="1" ry="1" transform="rotate(153.9 -11.3 83.4) scale(29.43095 88.69674)"/><path d="M188.8-25.5l93 33.9-10.6 29.1-93-33.9z"/><ellipse fill="#2f1a0e" rx="1" ry="1" transform="matrix(40.24102 -12.01698 29.07627 97.36709 225.6 171.3)"/><path d="M-9.4 26l-6.3-27.3L91.4-26l6.3 27.3z"/><ellipse fill="#e3b482" rx="1" ry="1" transform="matrix(-54.06683 -32.35833 12.11965 -20.25046 216.9 46)"/><path fill="#fff993" d="M159 55h31v31h-31z"/></g></svg>