<svg xmlns="http://www.w3.org/2000/svg" viewBox="0 0 3264 2448"><filter id="b"><feGaussianBlur stdDeviation="12" /></filter><path fill="#bd9d55" d="M0 0h3264v2448H0z"/><g filter="url(#b)" transform="translate(6.4 6.4) scale(12.75)" fill-opacity=".5"><ellipse fill="#a56800" cx="119" cy="104" rx="86" ry="76"/><ellipse fill="#f9e9c5" rx="1" ry="1" transform="rotate(-154.4 127.1 40) scale(30.44903 85.18086)"/><ellipse fill="#ccc8ae" rx="1" ry="1" transform="matrix(4.92785 -57.48083 56.38599 4.83398 213.8 23.7)"/><ellipse fill="#f8d948" rx="1" ry="1" transform="rotate(8.2 -793.2 547.3) scale(99.2653 16.07578)"/><ellipse rx="1" ry="1" transform="matrix(9.02069 -13.8462 61.95072 40.3604 4.7 186.7)"/><ellipse fill="#ffffe5" rx="1" ry="1" transform="matrix(-60.0528 -65.28107 6.83247 -6.28527 0 117.5)"/><ellipse fill="#482100" rx="1" ry="1" transform="rotate(-35 202.8 -161.5) scale(26.71343 18.57181)"/><ellipse fill="#ffffd3" rx="1" ry="1" transform="matrix(79.37447 -17.90119 2.31384 10.25966 142.6 188.5)"/></g></svg>