<svg xmlns="http://www.w3.org/2000/svg" viewBox="0 0 1024 768"><filter id="b"><feGaussianBlur stdDeviation="12" /></filter><path fill="#b6a999" d="M0 0h1024v768H0z"/><g filter="url(#b)" transform="matrix(4 0 0 4 2 2)" fill-opacity=".5"><ellipse fill="#816f51" cx="130" cy="70" rx="84" ry="47"/><path d="M271 68L185 1l86 32zM134 207h88l18-56z"/><ellipse fill="#ede6e0" rx="1" ry="1" transform="matrix(95.49337 -32.81604 11.14252 32.42429 166.7 144.2)"/><path fill="#fbf0e7" d="M103 190L-5 3l-6 149z"/><path fill="#670000" d="M76.1 188.7L71 205.9l-87-26.6 5.2-17.2z"/><ellipse fill="#2d200f" rx="1" ry="1" transform="matrix(8.2025 12.82406 -29.12284 18.62749 106 115.2)"/><ellipse fill="#fff" rx="1" ry="1" transform="rotate(119.4 86.3 67) scale(13.49965 65.21183)"/></g></svg>