<svg xmlns="http://www.w3.org/2000/svg" viewBox="0 0 3264 2448"><filter id="c"><feGaussianBlur stdDeviation="55" /></filter><path fill="#c9b995" d="M0 0h3264v2448H0z"/><g filter='url(#c)' fill-opacity='.5'><ellipse fill="#795400" fill-opacity=".5" rx="1" ry="1" transform="matrix(-72.7285 498.53575 -991.7922 -144.68684 1702 1353.8)"/><ellipse fill="#744300" fill-opacity=".5" rx="1" ry="1" transform="rotate(87 113.2 698.4) scale(471.80697 333.8015)"/><ellipse fill="#fcf9f7" fill-opacity=".5" rx="1" ry="1" transform="matrix(317.006 -570.22891 2803.44072 1558.51016 659 2187)"/><ellipse fill="#f9f8e0" fill-opacity=".5" rx="1" ry="1" transform="matrix(-1300.4547 767.77115 -326.1923 -552.50618 2508.2 6.4)"/><path fill="#7a480c" fill-opacity=".5" d="M2811.4 682.1l-535.5-280.5L2722 1498.1z"/><ellipse fill="#dfdbef" fill-opacity=".5" rx="1" ry="1" transform="matrix(-339.6962 -165.67982 1231.48602 -2524.93706 3017.7 1460)"/><path fill="#684000" fill-opacity=".5" d="M2020.9 1791.4L631 554.6 2594.6 1511z"/><ellipse fill="#f1eee6" fill-opacity=".5" rx="1" ry="1" transform="rotate(-2.6 49283.3 -34090.4) scale(886.53425 242.59035)"/></g></svg>