<svg xmlns="http://www.w3.org/2000/svg" viewBox="0 0 4032 3024"><filter id="b"><feGaussianBlur stdDeviation="12" /></filter><path fill="#945f28" d="M0 0h4032v3024H0z"/><g filter="url(#b)" transform="translate(7.9 7.9) scale(15.75)" fill-opacity=".5"><path fill="#fff" d="M60.3 33.6l-28 23-10.1 23.8L61 65z"/><ellipse fill="#fff" rx="1" ry="1" transform="matrix(-6.40823 -4.6689 23.49258 -32.24434 217.5 163.6)"/><path fill="#fffffb" d="M163 186l-72 21-56-34z"/><ellipse fill="#ffc945" cx="82" cy="113" rx="53" ry="22"/><ellipse fill="#210000" rx="1" ry="1" transform="matrix(19.4342 -12.0175 82.7695 133.85153 11.7 170.5)"/><path fill="#edeea7" d="M147-16l31 68 61 28z"/><path d="M165 123.4L146.7 82l-60.8 4.3 85.8 40.6z"/><ellipse fill="#ffe957" cx="42" cy="1" rx="58" ry="18"/></g></svg>