<svg xmlns="http://www.w3.org/2000/svg" viewBox="0 0 2448 3264"><filter id="b"><feGaussianBlur stdDeviation="12" /></filter><path fill="#4e4b38" d="M0 0h2448v3264H0z"/><g filter="url(#b)" transform="translate(6.4 6.4) scale(12.75)" fill-opacity=".5"><ellipse fill="#e9dec2" rx="1" ry="1" transform="matrix(4.13705 -29.7495 80.94974 11.25711 83.5 191.4)"/><ellipse fill="#080400" rx="1" ry="1" transform="rotate(-152.7 109.2 33.2) scale(129.03176 53.88026)"/><path fill="#e1d9c5" d="M27 21h134v20H27z"/><path d="M3.1 219.3l-29.7-4.1L8.9-37.3l29.7 4.1z"/><ellipse cx="133" cy="4" rx="148" ry="16"/><ellipse rx="1" ry="1" transform="matrix(64.40432 -17.08641 8.01888 30.2258 145.1 254.2)"/><ellipse fill="#b5b0a6" rx="1" ry="1" transform="matrix(-22.33191 -8.79674 23.38972 -59.37848 40.6 208.6)"/><ellipse rx="1" ry="1" transform="rotate(83.4 32.8 158.2) scale(152.99305 13.63771)"/></g></svg>