<svg xmlns="http://www.w3.org/2000/svg" viewBox="0 0 2262 2362"><filter id="b"><feGaussianBlur stdDeviation="12" /></filter><path fill="#8c7a6e" d="M0 0h2260v2362H0z"/><g filter="url(#b)" transform="translate(4.6 4.6) scale(9.22656)" fill-opacity=".5"><ellipse cx="120" cy="123" rx="78" ry="63"/><ellipse fill="#fff" rx="1" ry="1" transform="matrix(-23.18897 43.90408 -115.28965 -60.89293 170 17)"/><ellipse fill="#fffff3" cx="233" cy="112" rx="42" ry="135"/><ellipse fill="#1c0000" rx="1" ry="1" transform="matrix(18.90866 -49.25874 68.11823 26.14814 138.3 254.9)"/><ellipse fill="#ffffd6" rx="1" ry="1" transform="matrix(-19.2205 40.1163 -26.66832 -12.77732 116.6 27.4)"/><ellipse fill="#3b000d" rx="1" ry="1" transform="matrix(-29.62916 22.8092 -16.26027 -21.1221 51.8 24.4)"/><ellipse rx="1" ry="1" transform="matrix(8.64457 -34.8763 83.13689 20.60662 125.2 115.2)"/><path fill="#f4e7d3" d="M148 170l71 61 41-119z"/></g></svg>