<svg xmlns="http://www.w3.org/2000/svg" viewBox="0 0 3256 2441"><filter id="b"><feGaussianBlur stdDeviation="12" /></filter><path fill="#845e42" d="M0 0h3256v2429H0z"/><g filter="url(#b)" transform="translate(6.4 6.4) scale(12.71875)" fill-opacity=".5"><ellipse fill="#fff" rx="1" ry="1" transform="matrix(-142.38817 -37.08934 4.05277 -15.55882 147.9 16.5)"/><ellipse rx="1" ry="1" transform="matrix(76.53146 46.38507 -11.71581 19.3301 216 79.7)"/><ellipse fill="#ffffd7" rx="1" ry="1" transform="matrix(33.18371 -5.96778 7.55215 41.99356 0 146)"/><ellipse fill="#612500" rx="1" ry="1" transform="matrix(12.43639 67.10074 -53.684 9.94974 87.8 124.9)"/><ellipse fill="#fff" cx="131" cy="13" rx="71" ry="14"/><ellipse fill="#030000" rx="1" ry="1" transform="matrix(-14.52391 1.5009 -3.63132 -35.13959 15 70)"/><path fill="#aa4300" d="M105 178l166-38-131-95z"/><ellipse fill="#cee5e1" cx="242" cy="190" rx="16" ry="31"/></g></svg>