<svg xmlns="http://www.w3.org/2000/svg" viewBox="0 0 2945 2208"><filter id="b"><feGaussianBlur stdDeviation="12" /></filter><path fill="#9e845a" d="M0 0h2945v2197H0z"/><g filter="url(#b)" transform="translate(5.8 5.8) scale(11.5039)" fill-opacity=".5"><ellipse fill="#fffffa" rx="1" ry="1" transform="rotate(-142.6 125 35.1) scale(18.47302 119.48881)"/><ellipse fill="#fffff6" rx="1" ry="1" transform="matrix(-22.48747 10.15348 -27.53056 -60.97343 217.2 15)"/><ellipse fill="#433e08" cx="98" cy="116" rx="90" ry="39"/><path fill="#ffe" d="M170 151l-7 55-179-20z"/><ellipse fill="#050000" rx="1" ry="1" transform="rotate(-110.1 15.9 2.9) scale(21.00805 91.71289)"/><path fill="#360000" d="M260 101l11 105-89-7z"/><path fill="#fffadf" d="M47 18.4l-63 90.7 63.4-59.4 4-36.6z"/><ellipse fill="#fff8d4" rx="1" ry="1" transform="matrix(-10.91168 5.72537 -22.29972 -42.49988 24 170.8)"/></g></svg>