<svg xmlns="http://www.w3.org/2000/svg" viewBox="0 0 3662 2744"><filter id="b"><feGaussianBlur stdDeviation="12" /></filter><path fill="#b5874e" d="M0 0h3662v2732H0z"/><g filter="url(#b)" transform="translate(7.2 7.2) scale(14.30469)" fill-opacity=".5"><ellipse rx="1" ry="1" transform="matrix(7.66485 27.21842 -114.24896 32.17312 183.6 70.3)"/><ellipse fill="#ffdf6d" rx="1" ry="1" transform="rotate(-178.4 51.2 81.3) scale(120.95835 48.70216)"/><ellipse rx="1" ry="1" transform="matrix(-42.43853 21.2158 -5.5265 -11.05482 42.7 30)"/><ellipse fill="#ffe6c6" rx="1" ry="1" transform="matrix(-5.0777 -21.41504 84.14668 -19.95195 138.4 28.7)"/><ellipse cx="255" cy="190" rx="39" ry="29"/><path d="M48.3 80l17.5-23 51.9 39-17.5 23.2z"/><ellipse fill="#ffda7f" cx="23" cy="96" rx="41" ry="41"/><ellipse fill="#0d0000" rx="1" ry="1" transform="matrix(-22.4851 17.94713 -18.50462 -23.18355 222.7 54.5)"/></g></svg>