<svg xmlns="http://www.w3.org/2000/svg" viewBox="0 0 4032 3024"><filter id="b"><feGaussianBlur stdDeviation="12" /></filter><path fill="#544b3d" d="M0 0h4032v3024H0z"/><g filter="url(#b)" transform="translate(7.9 7.9) scale(15.75)" fill-opacity=".5"><ellipse fill="#fffffd" cx="135" cy="137" rx="45" ry="33"/><ellipse fill="#c3a378" rx="1" ry="1" transform="matrix(9.28088 35.43096 -58.47433 15.31691 108.7 85.6)"/><ellipse rx="1" ry="1" transform="rotate(120.8 85 88.6) scale(20.81565 234.64005)"/><ellipse rx="1" ry="1" transform="matrix(-53.77822 -10.1615 5.2592 -27.83348 71.7 187.1)"/><ellipse fill="#fff" rx="1" ry="1" transform="rotate(57.3 -50 323.6) scale(13.61541 59.44434)"/><ellipse fill="#fff" rx="1" ry="1" transform="matrix(-9.40003 -16.96073 26.71687 -14.80712 136.8 148.2)"/><path fill="#070605" d="M-16-4l80 57-38 100z"/><path fill="#0e0b07" d="M271 159L216 11l-25 196z"/></g></svg>