<svg xmlns="http://www.w3.org/2000/svg" viewBox="0 0 4032 3024"><filter id="b"><feGaussianBlur stdDeviation="12" /></filter><path fill="#847763" d="M0 0h4032v3024H0z"/><g filter="url(#b)" transform="translate(7.9 7.9) scale(15.75)" fill-opacity=".5"><path fill="#eefcff" d="M258.6 171.9l-7.6 61.5-189.6-23.3 7.6-61.5z"/><ellipse fill="#fffced" rx="1" ry="1" transform="matrix(58.90182 -9.5656 3.22157 19.83737 126.9 54.4)"/><ellipse fill="#1a0500" rx="1" ry="1" transform="matrix(.98495 -22.85434 254.76352 10.9795 108 12)"/><path fill="#fff" d="M227 202l44-16-19-104z"/><ellipse fill="#281803" rx="1" ry="1" transform="matrix(-4.54572 50.44586 -22.22551 -2.00276 214.7 118.8)"/><ellipse fill="#fff" rx="1" ry="1" transform="matrix(25.74796 13.62405 -3.07463 5.8107 209.7 58.1)"/><path fill="#fffff4" d="M149 119l3-35-56 71z"/><ellipse fill="#66440b" cx="172" cy="154" rx="41" ry="19"/></g></svg>