<svg xmlns="http://www.w3.org/2000/svg" viewBox="0 0 4032 3024"><filter id="b"><feGaussianBlur stdDeviation="12" /></filter><path fill="#736553" d="M0 0h4032v3024H0z"/><g filter="url(#b)" transform="translate(7.9 7.9) scale(15.75)" fill-opacity=".5"><path fill="#fbdeb1" d="M173 207l39-152-228 16z"/><ellipse rx="1" ry="1" transform="matrix(-15.59817 26.76841 -104.3226 -60.78962 32.2 160)"/><path d="M59 2l208 79 4-96z"/><ellipse fill="#fff" rx="1" ry="1" transform="matrix(-7.09615 -13.50916 64.74095 -34.0074 43.3 0)"/><ellipse rx="1" ry="1" transform="matrix(-26.97925 -9.09933 57.24573 -169.73198 248.4 173.3)"/><ellipse fill="#f9ffff" rx="1" ry="1" transform="matrix(9.83557 -22.1013 37.14834 16.53182 139.6 155)"/><ellipse rx="1" ry="1" transform="matrix(-5.22324 -10.70924 96.00641 -46.82546 38.1 31.8)"/><ellipse fill="#b39058" cx="107" cy="76" rx="81" ry="44"/></g></svg>