<svg xmlns="http://www.w3.org/2000/svg" viewBox="0 0 4032 3024"><filter id="b"><feGaussianBlur stdDeviation="12" /></filter><path fill="#897e63" d="M0 0h4032v3024H0z"/><g filter="url(#b)" transform="translate(7.9 7.9) scale(15.75)" fill-opacity=".5"><ellipse fill="#fffaf0" rx="1" ry="1" transform="rotate(170.2 -.8 63.8) scale(24.38554 201.29593)"/><path fill="#423a0b" d="M32.7 25.4l125 4.3-4.4 125-125-4.4z"/><ellipse fill="#fff" rx="1" ry="1" transform="matrix(-181.4706 -14.60078 1.00868 -12.53668 148.3 191)"/><path fill="#171900" d="M219.1 129.2L212 150l-67.1-23.2L152 106z"/><ellipse fill="#e0c1ab" rx="1" ry="1" transform="matrix(-7.1455 -19.0103 173.4597 -65.19922 57 8.7)"/><ellipse fill="#0e0f00" cx="188" cy="55" rx="13" ry="35"/><ellipse fill="#e6d7ca" rx="1" ry="1" transform="matrix(7.29 -14.27379 45.19831 23.084 237.9 171.1)"/><path fill="#000500" d="M166.3 149l25.2 28-1-33.3-19.7-8.4z"/></g></svg>