<svg xmlns="http://www.w3.org/2000/svg" viewBox="0 0 3024 4032"><filter id="b"><feGaussianBlur stdDeviation="12" /></filter><path fill="#9d8e7a" d="M0 0h3024v4032H0z"/><g filter="url(#b)" transform="translate(7.9 7.9) scale(15.75)" fill-opacity=".5"><ellipse rx="1" ry="1" transform="matrix(43.48783 -2.5075 6.19265 107.40013 112.4 44.6)"/><ellipse fill="#fae7c6" cx="39" cy="218" rx="128" ry="80"/><ellipse fill="#140800" cx="42" cy="32" rx="124" ry="23"/><ellipse fill="#fff" rx="1" ry="1" transform="matrix(-32.36075 -20.37865 28.71522 -45.59899 2.4 106)"/><ellipse rx="1" ry="1" transform="matrix(-57.99753 76.31376 -4.87742 -3.70678 124.4 222.6)"/><ellipse fill="#fffffd" rx="1" ry="1" transform="matrix(88.68903 6.73182 -.931 12.26545 191 5.4)"/><path d="M151 125l-64 16-40-21z"/><ellipse fill="#fffffd" rx="1" ry="1" transform="rotate(-87.1 192.4 -8.4) scale(92.4051 10.43552)"/></g></svg>