<svg xmlns="http://www.w3.org/2000/svg" viewBox="0 0 4032 3024"><filter id="c"><feGaussianBlur stdDeviation="55" /></filter><path fill="#a29687" d="M0 0h4032v3024H0z"/><g filter='url(#c)' fill-opacity='.5'><ellipse fill-opacity=".5" rx="1" ry="1" transform="matrix(-843.85766 79.76803 -146.97064 -1554.787 2108.7 253)"/><ellipse fill="#ffffe7" fill-opacity=".5" rx="1" ry="1" transform="matrix(-56.11838 668.296 -1263.3996 -106.09063 1246 2366.3)"/><ellipse fill="#ede4d5" fill-opacity=".5" rx="1" ry="1" transform="matrix(437.4806 1514.39582 -379.4905 109.6277 3601.2 2298.7)"/><ellipse fill="#4d2200" fill-opacity=".5" rx="1" ry="1" transform="rotate(-43.1 4390.4 -2421.1) scale(309.01535 541.39511)"/><path fill-opacity=".5" d="M874.4 170.5l1776.2-414.6H81.1L-198 138.2z"/><path fill="#0e0700" fill-opacity=".5" d="M601 1485l149.7-569.8 624 372.2-673 273.6z"/><ellipse fill-opacity=".5" rx="1" ry="1" transform="rotate(83.7 806.4 1465.7) scale(149.87952 1129.2363)"/><ellipse fill="#fdecdb" fill-opacity=".5" rx="1" ry="1" transform="matrix(243.69344 -817.13526 212.1898 63.28115 395.1 990.2)"/></g></svg>