<svg xmlns="http://www.w3.org/2000/svg" viewBox="0 0 3264 2448"><filter id="c"><feGaussianBlur stdDeviation="55" /></filter><path fill="#958455" d="M0 0h3264v2448H0z"/><g filter='url(#c)' fill-opacity='.5'><path fill="#000068" fill-opacity=".5" d="M521.7 2549.8l2896.9-1476 382 749.7-2896.9 1476z"/><ellipse fill="#000c82" fill-opacity=".5" rx="1" ry="1" transform="matrix(301.5924 837.7051 -349.30666 125.75814 499 1593.6)"/><ellipse fill="#ffb200" fill-opacity=".5" rx="1" ry="1" transform="matrix(-304.33756 994.69313 -763.03086 -233.45788 1611.9 1142)"/><ellipse fill="#f4f1a8" fill-opacity=".5" rx="1" ry="1" transform="rotate(88.1 488 713.7) scale(334.37971 2994.51644)"/><ellipse fill="#ffaf00" fill-opacity=".5" rx="1" ry="1" transform="matrix(-147.40913 -471.50795 364.69624 -114.01622 2541.7 1042)"/><ellipse fill="#ffffd9" fill-opacity=".5" rx="1" ry="1" transform="matrix(-306.85582 301.34964 -1261.93395 -1284.99168 3257.6 296.6)"/><path fill="#00003c" fill-opacity=".5" d="M1842.4 1064.6l76.5-535.5-535.5 573.8z"/><ellipse fill="#ffffdb" fill-opacity=".5" rx="1" ry="1" transform="matrix(-969.60568 -1349.34908 269.20182 -193.44113 91.3 2301.8)"/></g></svg>