<svg xmlns="http://www.w3.org/2000/svg" viewBox="0 0 562 316"><filter id="b"><feGaussianBlur stdDeviation="12" /></filter><path fill="#a88256" d="M0 0h562v313H0z"/><g filter="url(#b)" transform="translate(1.1 1.1) scale(2.19531)" fill-opacity=".5"><ellipse rx="1" ry="1" transform="rotate(167.9 -4 38.6) scale(35.98169 255)"/><ellipse rx="1" ry="1" transform="matrix(32.4104 .5987 -4.7096 254.9565 255 99.9)"/><ellipse fill="#ffe793" rx="1" ry="1" transform="matrix(93.67241 .67514 -.54457 75.55539 124.1 57)"/><ellipse rx="1" ry="1" transform="matrix(-12.57858 23.63423 -146.31662 -77.8724 0 119.2)"/><path d="M200 124l62 28-171 6z"/><ellipse rx="1" ry="1" transform="matrix(-9.47535 200.39544 -19.45855 -.92006 255 54.7)"/><ellipse fill="#000002" rx="1" ry="1" transform="matrix(-22.11538 -8.77271 64.40316 -162.35573 8 25.4)"/><ellipse fill="#e8a870" cx="43" cy="56" rx="28" ry="43"/></g></svg>