<svg xmlns="http://www.w3.org/2000/svg" viewBox="0 0 4032 3024"><filter id="b"><feGaussianBlur stdDeviation="12" /></filter><path fill="#6d4c2b" d="M0 0h4032v3024H0z"/><g filter="url(#b)" transform="translate(7.9 7.9) scale(15.75)" fill-opacity=".5"><ellipse fill="#ffbe66" rx="1" ry="1" transform="matrix(-7.60819 -63.39067 96.0768 -11.5312 110.5 102.9)"/><ellipse rx="1" ry="1" transform="rotate(26.6 76.5 323.9) scale(219.21343 50.27217)"/><ellipse fill="#000002" cx="241" cy="137" rx="30" ry="249"/><ellipse fill="#000006" cx="26" cy="2" rx="66" ry="66"/><ellipse fill="#ffffcb" rx="1" ry="1" transform="matrix(-28.83851 10.08979 -7.36744 -21.05752 82.6 124.7)"/><ellipse fill="#ffffd8" rx="1" ry="1" transform="matrix(.6947 -18.01098 25.01254 .96477 180.1 86)"/><ellipse fill="#100709" rx="1" ry="1" transform="rotate(-105.1 69 78.6) scale(226.53767 27.21532)"/><path fill="#000104" d="M135.7 221.8l113.7-102.4 36.9 40.8-113.7 102.4z"/></g></svg>