<svg xmlns="http://www.w3.org/2000/svg" viewBox="0 0 4032 3024"><filter id="c"><feGaussianBlur stdDeviation="55" /></filter><path fill="#b28655" d="M0 0h4032v3024H0z"/><g filter='url(#c)' fill-opacity='.5'><ellipse fill="#ffe8cf" fill-opacity=".5" rx="1" ry="1" transform="matrix(698.02164 -1122.59771 407.59674 253.44016 3744.4 2054.7)"/><ellipse fill="#fcd5bd" fill-opacity=".5" rx="1" ry="1" transform="rotate(179.7 150.3 1010.8) scale(365.62844 1029.36618)"/><ellipse fill="#493d00" fill-opacity=".5" rx="1" ry="1" transform="matrix(-75.1391 -284.39005 642.10412 -169.65123 2503.3 2617.8)"/><path fill="#865d0b" fill-opacity=".5" d="M2464.9 480.4L3394 1834.9 480.4 2291.6z"/><path fill-opacity=".5" d="M4144.3 2445.1l339.4 305.7-611.2 678.8L3533 3124z"/><ellipse fill="#6c2400" fill-opacity=".5" rx="1" ry="1" transform="rotate(133.1 27 1450.5) scale(255.08921 599.70012)"/><ellipse fill="#674233" fill-opacity=".5" rx="1" ry="1" transform="matrix(-1299.21194 661.98155 -215.33483 -422.6184 764.3 129.7)"/><path fill="#ffe2d4" fill-opacity=".5" d="M1608.2 3029.6l-189 327.4-995.7-575 189-327.3z"/></g></svg>