<svg xmlns="http://www.w3.org/2000/svg" viewBox="0 0 4032 3024"><filter id="b"><feGaussianBlur stdDeviation="12" /></filter><path fill="#a48a66" d="M0 0h4032v3024H0z"/><g filter="url(#b)" transform="translate(7.9 7.9) scale(15.75)" fill-opacity=".5"><path fill="#fffffb" d="M-16 199L263 72l8 133z"/><ellipse rx="1" ry="1" transform="matrix(-1.88943 24.00743 -243.2068 -19.14079 168.4 11)"/><ellipse fill="#4b0b00" rx="1" ry="1" transform="rotate(24.2 -276.6 235.9) scale(59.62608 23.73621)"/><ellipse rx="1" ry="1" transform="matrix(151.93166 66.94448 -10.50868 23.84964 226.5 26.6)"/><ellipse fill="#fff" cx="116" cy="37" rx="67" ry="11"/><ellipse fill="#8f5700" cx="107" cy="80" rx="83" ry="30"/><ellipse fill="#fff" rx="1" ry="1" transform="matrix(-35.00321 16.76725 -7.14946 -14.92517 25.5 60)"/><ellipse fill="#050000" rx="1" ry="1" transform="matrix(-2.54723 -13.53639 95.96497 -18.05833 42 23)"/></g></svg>