<svg xmlns="http://www.w3.org/2000/svg" viewBox="0 0 4032 3024"><filter id="c"><feGaussianBlur stdDeviation="55" /></filter><path fill="#b7a187" d="M0 0h4032v3024H0z"/><g filter='url(#c)' fill-opacity='.5'><ellipse fill="#523102" fill-opacity=".5" rx="1" ry="1" transform="matrix(-376.45917 673.59438 -865.2619 -483.57853 1517.4 1124.2)"/><path fill="#fcf8f3" fill-opacity=".5" d="M-244.1 3094.9l1417.5 15.7-1134-2898z"/><path fill="#2b0e00" fill-opacity=".5" d="M3531.8 2467.4l313 564.8-619.8 343.6-313.1-564.8z"/><ellipse fill="#f9fcf7" fill-opacity=".5" rx="1" ry="1" transform="matrix(126.7107 -294.43597 2608.27423 1122.47244 2344.3 7.9)"/><ellipse fill="#fff9f1" fill-opacity=".5" rx="1" ry="1" transform="matrix(1687.09939 -810.11427 112.54272 234.37528 401.7 459.3)"/><path fill="#63431c" fill-opacity=".5" d="M1031.6 448.9h1779.8v756H1031.6z"/><path fill-opacity=".5" d="M921.4-102.4L-244.1-23.6 70.9 244z"/><ellipse fill="#eed0b1" fill-opacity=".5" rx="1" ry="1" transform="matrix(489.23654 -663.5843 723.3257 533.2817 3736.7 1477.6)"/></g></svg>