<svg xmlns="http://www.w3.org/2000/svg" viewBox="0 0 3024 4032"><filter id="b"><feGaussianBlur stdDeviation="12" /></filter><path fill="#9d8e7a" d="M0 0h3024v4032H0z"/><g filter="url(#b)" transform="translate(7.9 7.9) scale(15.75)" fill-opacity=".5"><path d="M-5 5l140 157 33-151z"/><ellipse fill="#fff8d7" rx="1" ry="1" transform="rotate(65.1 -118 107) scale(128.83075 49.76711)"/><path fill="#030000" d="M43 138l113-3-108-26z"/><ellipse fill="#fcecd9" rx="1" ry="1" transform="rotate(143.3 57.2 140.1) scale(71.26464 37.69043)"/><ellipse fill="#f9e5cc" rx="1" ry="1" transform="rotate(-125.4 101.5 66.1) scale(24.78845 66.13287)"/><ellipse rx="1" ry="1" transform="matrix(-12.20757 -32.51856 31.07434 -11.6654 119.8 52.6)"/><ellipse fill="#baa68a" cx="64" cy="71" rx="30" ry="31"/><ellipse fill="#fffff5" rx="1" ry="1" transform="rotate(105.5 80.6 62.4) scale(16.45686 34.81769)"/></g></svg>