<svg xmlns="http://www.w3.org/2000/svg" viewBox="0 0 4032 3024"><filter id="b"><feGaussianBlur stdDeviation="12" /></filter><path fill="#856843" d="M0 0h4032v3024H0z"/><g filter="url(#b)" transform="translate(7.9 7.9) scale(15.75)" fill-opacity=".5"><ellipse fill="#fad38b" cx="99" cy="115" rx="77" ry="33"/><ellipse rx="1" ry="1" transform="matrix(28.61437 -15.46492 44.68046 82.6712 10.2 161.6)"/><ellipse fill="#301b0e" rx="1" ry="1" transform="rotate(68 -2.4 246) scale(85.04135 44.87089)"/><ellipse rx="1" ry="1" transform="matrix(6.31945 -22.13217 90.21097 25.75815 247.2 4.5)"/><ellipse fill="#faecda" rx="1" ry="1" transform="matrix(-45.16088 -70.08079 10.46415 -6.74322 59.6 148.7)"/><path d="M120.3-7L-25.6 32.1-32.3 7l145.9-39.1z"/><ellipse fill="#d9ae6e" rx="1" ry="1" transform="matrix(1.72087 37.0446 -50.06829 2.32588 193.1 51)"/><ellipse fill="#ffd786" rx="1" ry="1" transform="rotate(-26.6 173.8 -154.6) scale(25.10437 14.03304)"/></g></svg>