<svg xmlns="http://www.w3.org/2000/svg" viewBox="0 0 4032 3024"><filter id="b"><feGaussianBlur stdDeviation="12" /></filter><path fill="#a88f70" d="M0 0h4032v3024H0z"/><g filter="url(#b)" transform="translate(7.9 7.9) scale(15.75)" fill-opacity=".5"><path fill="#fff" d="M114.9 204.2L243.9 45 351 131.8 222.1 291z"/><ellipse fill="#543f1e" cx="126" cy="99" rx="68" ry="68"/><path fill="#290000" d="M108-16L263 0l8 51z"/><ellipse fill="#fffffe" rx="1" ry="1" transform="matrix(-218.187 -25.08235 2.23274 -19.4222 59 181.2)"/><ellipse fill="#fff" rx="1" ry="1" transform="matrix(-5.40692 -11.06664 54.287 -26.52346 55.3 46.8)"/><path fill="#600000" d="M57.1 24.2l-63 44.2-17.2-24.6 63-44.2z"/><ellipse fill="#35381e" rx="1" ry="1" transform="matrix(-2.97311 15.01532 -108.84171 -21.55124 41.4 139.2)"/><ellipse fill="#ffffef" rx="1" ry="1" transform="matrix(-7.52139 -8.8376 40.79068 -34.71559 30.9 63.9)"/></g></svg>