<svg xmlns="http://www.w3.org/2000/svg" viewBox="0 0 3250 2346"><filter id="b"><feGaussianBlur stdDeviation="12" /></filter><path fill="#a8764e" d="M0 0h3250v2335H0z"/><g filter="url(#b)" transform="translate(6.3 6.3) scale(12.69531)" fill-opacity=".5"><ellipse fill="#4f270a" rx="1" ry="1" transform="matrix(29.066 -24.47584 33.34937 39.60364 124.7 69.2)"/><ellipse fill="#fefffc" rx="1" ry="1" transform="matrix(3.29152 -19.46061 39.40637 6.66509 242.5 12)"/><ellipse fill="#e3a875" cx="43" cy="104" rx="40" ry="70"/><path fill="#854a25" d="M42 94l219-40 10 121z"/><ellipse fill="#f1ba8c" rx="1" ry="1" transform="matrix(-32.28451 -12.97357 5.308 -13.20888 164.3 23.5)"/><path fill="#e5ad81" d="M181.5 166.5l-4.2 26.7-98.8-15.7 4.2-26.7z"/><ellipse fill="#e0a779" rx="1" ry="1" transform="matrix(-11.3211 22.0285 -37.23292 -19.13512 55.4 126.2)"/><ellipse fill="#e4bf8e" cy="22" rx="40" ry="12"/></g></svg>