<svg xmlns="http://www.w3.org/2000/svg" viewBox="0 0 4032 3024"><filter id="b"><feGaussianBlur stdDeviation="12" /></filter><path fill="#865232" d="M0 0h4032v3024H0z"/><g filter="url(#b)" transform="translate(7.9 7.9) scale(15.75)" fill-opacity=".5"><ellipse fill="#ffffb3" rx="1" ry="1" transform="rotate(92.6 64.3 63) scale(9.37385 170.78274)"/><ellipse fill="#1c0000" rx="1" ry="1" transform="matrix(7.64247 -20.36876 146.39668 54.92882 58 186.3)"/><path fill="#dec29d" d="M56.5 63.7L182-16 46 31.2l-30.2 75.5z"/><ellipse fill="#3a0001" rx="1" ry="1" transform="rotate(-14.9 806.5 -678.3) scale(97.9915 25.15232)"/><path fill="#f9e9c7" d="M61.8 162.7l32.4 17.9-76.6-79.1 28.1 48.1z"/><ellipse fill="#dec341" rx="1" ry="1" transform="matrix(13.03382 -17.41205 25.94196 19.4189 149 93)"/><ellipse fill="#fdfedd" rx="1" ry="1" transform="matrix(-5.72827 -1.70118 8.71145 -29.33348 204 117.3)"/><ellipse fill="#62000b" cx="8" cy="103" rx="18" ry="97"/></g></svg>