<svg xmlns="http://www.w3.org/2000/svg" viewBox="0 0 4032 3024"><filter id="b"><feGaussianBlur stdDeviation="12" /></filter><path fill="#966d53" d="M0 0h4032v3024H0z"/><g filter="url(#b)" transform="translate(7.9 7.9) scale(15.75)" fill-opacity=".5"><ellipse rx="1" ry="1" transform="matrix(-11.4987 9.00848 -33.68897 -43.0016 200.4 85.3)"/><ellipse fill="#fff" rx="1" ry="1" transform="rotate(34.5 -84.8 62) scale(15.70305 43.63287)"/><ellipse fill="#720700" rx="1" ry="1" transform="matrix(-64.25142 -7.85485 4.2309 -34.60814 87.4 101.1)"/><path fill="#f7ffff" d="M239 61l32 64-100-96z"/><ellipse fill="#f6ffff" rx="1" ry="1" transform="matrix(55.73139 12.45744 -1.7477 7.81876 125.5 29.8)"/><ellipse fill="#c0ddc6" cx="175" cy="155" rx="67" ry="18"/><ellipse fill="#1d0605" rx="1" ry="1" transform="matrix(-49.57662 -16.01281 4.23861 -13.123 230.3 124)"/><ellipse fill="#140000" rx="1" ry="1" transform="rotate(-166.2 122.4 82.1) scale(35.31856 16.30393)"/></g></svg>