<svg xmlns="http://www.w3.org/2000/svg" viewBox="0 0 3228 2421"><filter id="b"><feGaussianBlur stdDeviation="12" /></filter><path fill="#9b876f" d="M0 0h3228v2421H0z"/><g filter="url(#b)" transform="translate(6.3 6.3) scale(12.60938)" fill-opacity=".5"><ellipse fill="#813607" cx="105" cy="83" rx="70" ry="70"/><ellipse fill="#aed3d5" rx="1" ry="1" transform="matrix(168.50963 -17.41378 2.7475 26.587 225.3 166)"/><ellipse fill="#f0d8be" rx="1" ry="1" transform="matrix(-87.66921 110.99466 -22.67343 -17.90863 23.8 25.2)"/><path fill="#3d2e00" d="M169 142.3l-60.4 10.6-73.3-36 177-2z"/><ellipse fill="#a3c3c5" rx="1" ry="1" transform="matrix(-18.4942 24.19164 -194.26816 -148.5156 216.4 29)"/><ellipse fill="#d5dab2" rx="1" ry="1" transform="rotate(59.3 5.4 157.6) scale(7.79891 37.6826)"/><path fill="#892602" d="M216.7 111.2l-21 11.7-34.4-62.1 21-11.7z"/><path fill="#cbe3b3" d="M74 97.7l105.8-35L51.5 92.1l10 19.3z"/></g></svg>