<svg xmlns="http://www.w3.org/2000/svg" viewBox="0 0 3264 2448"><filter id="b"><feGaussianBlur stdDeviation="12" /></filter><path fill="#9a7e4a" d="M0 0h3264v2448H0z"/><g filter="url(#b)" transform="translate(6.4 6.4) scale(12.75)" fill-opacity=".5"><ellipse fill="#ffffc2" rx="1" ry="1" transform="matrix(-32.37051 8.66687 -40.82668 -152.4864 3.6 84.8)"/><ellipse rx="1" ry="1" transform="rotate(156.2 28.7 41) scale(53.57097 29.0961)"/><ellipse fill="#040000" rx="1" ry="1" transform="rotate(-21.3 597.8 -382.6) scale(255 27.01664)"/><ellipse fill="#3b1000" cx="168" cy="87" rx="35" ry="51"/><ellipse fill="#ebe27e" rx="1" ry="1" transform="rotate(-120.9 78.6 36.2) scale(28.33339 55.13931)"/><path fill="#fffdff" d="M232 67l-42-38 40 91z"/><ellipse fill="#f6c375" rx="1" ry="1" transform="rotate(78.1 41.4 51) scale(30.51708 198.65078)"/><ellipse fill="#d5c5b9" rx="1" ry="1" transform="rotate(-135.7 127.4 25) scale(12.35683 52.11922)"/></g></svg>