<svg xmlns="http://www.w3.org/2000/svg" viewBox="0 0 3264 2448"><filter id="c"><feGaussianBlur stdDeviation="55" /></filter><path fill="#a36335" d="M0 0h3264v2448H0z"/><g filter='url(#c)' fill-opacity='.5'><ellipse fill="#000081" fill-opacity=".5" rx="1" ry="1" transform="matrix(809.33823 -343.5437 141.37948 333.06917 2849.7 2327.1)"/><ellipse fill="#ffd22f" fill-opacity=".5" rx="1" ry="1" transform="matrix(120.11283 -418.26356 875.87798 251.52605 1575.3 849.3)"/><ellipse fill="#ecfad1" fill-opacity=".5" rx="1" ry="1" transform="rotate(110.3 1290.4 902.7) scale(357.12472 3249.20952)"/><path fill="#cae6ca" fill-opacity=".5" d="M1954.6-500.7l109 472-2348 542.2-109-472.1z"/><path fill="#a01400" fill-opacity=".5" d="M-197.6 758.6l1020 1887L3028 1651.1z"/><ellipse fill="#1f4fae" fill-opacity=".5" rx="1" ry="1" transform="matrix(1543.97719 1373.26123 -317.49406 356.9631 378 2441.6)"/><ellipse fill="#0043ac" fill-opacity=".5" rx="1" ry="1" transform="rotate(-137.4 175.6 441.3) scale(188.00788 980.84652)"/><path fill="#00259d" fill-opacity=".5" d="M3104.6 733.1h165.8v1721.3h-165.8z"/></g></svg>