<svg xmlns="http://www.w3.org/2000/svg" viewBox="0 0 3264 2448"><filter id="b"><feGaussianBlur stdDeviation="12" /></filter><path fill="#636366" d="M0 0h3264v2448H0z"/><g filter="url(#b)" transform="translate(6.4 6.4) scale(12.75)" fill-opacity=".5"><ellipse fill="#ffffd5" rx="1" ry="1" transform="matrix(19.16877 83.0627 -34.87463 8.04818 74.6 50.7)"/><ellipse fill="#0c1717" cx="215" cy="191" rx="129" ry="129"/><ellipse fill="#fffffd" rx="1" ry="1" transform="matrix(-20.57865 -14.36285 41.50628 -59.46892 0 36.4)"/><ellipse fill="#0013b3" rx="1" ry="1" transform="matrix(19.60499 8.40212 -22.30157 52.03714 25 81.9)"/><ellipse fill="#ffd3ca" rx="1" ry="1" transform="matrix(21.0243 34.71523 -23.25623 14.08448 22.3 190.8)"/><ellipse fill="#000069" rx="1" ry="1" transform="rotate(29.5 -249.2 192.5) scale(64.94842 19.17141)"/><ellipse fill="#fff9c5" rx="1" ry="1" transform="matrix(-39.94191 16.50928 -8.03006 -19.4276 90.8 55)"/><path fill="#a3af5a" d="M143 48h36v99h-36z"/></g></svg>