<svg xmlns="http://www.w3.org/2000/svg" viewBox="0 0 4032 3024"><filter id="c"><feGaussianBlur stdDeviation="55" /></filter><path fill="#9b8468" d="M0 0h4032v3024H0z"/><g filter='url(#c)' fill-opacity='.5'><ellipse fill="#2e1300" fill-opacity=".5" rx="1" ry="1" transform="matrix(-161.39222 1079.90057 -1306.31513 -195.2301 1881.2 1635)"/><ellipse fill="#fff" fill-opacity=".5" rx="1" ry="1" transform="matrix(-605.43184 879.62219 -351.01912 -241.60163 3136.9 2692.9)"/><ellipse fill="#fffff2" fill-opacity=".5" rx="1" ry="1" transform="matrix(244.7741 -3785.14117 345.52038 22.3438 276.3 1761)"/><path fill="#fffff4" fill-opacity=".5" d="M3425.6 401.6l409.5 1512L1661.6-244z"/><ellipse fill="#fffff5" fill-opacity=".5" rx="1" ry="1" transform="matrix(164.02307 -372.55282 1028.48621 452.80953 1002.3 2928.4)"/><ellipse fill="#580200" fill-opacity=".5" rx="1" ry="1" transform="matrix(215.76737 -33.78827 417.92073 2668.78594 3875.8 1114)"/><ellipse fill="#fffffc" fill-opacity=".5" rx="1" ry="1" transform="matrix(-102.86338 -285.71404 1217.63488 -438.37553 1087 93)"/><ellipse fill="#fff" fill-opacity=".5" rx="1" ry="1" transform="matrix(395.00256 -1163.4555 262.1363 88.9974 3343.8 2647)"/></g></svg>