<svg xmlns="http://www.w3.org/2000/svg" viewBox="0 0 3264 2448"><filter id="b"><feGaussianBlur stdDeviation="12" /></filter><path fill="#8e5321" d="M0 0h3264v2448H0z"/><g filter="url(#b)" transform="translate(6.4 6.4) scale(12.75)" fill-opacity=".5"><ellipse fill="#000001" rx="1" ry="1" transform="matrix(96.31779 70.90404 -23.53604 31.97193 15.9 170.3)"/><ellipse fill="#ff9735" rx="1" ry="1" transform="matrix(-34.13904 -57.57635 67.3278 -39.92103 90.8 79.2)"/><ellipse fill="#15021c" cx="222" cy="18" rx="73" ry="73"/><ellipse fill="#000006" rx="1" ry="1" transform="rotate(-147.3 9.4 17.1) scale(23.2934 127.13869)"/><ellipse fill="#d1b822" rx="1" ry="1" transform="rotate(83 10.3 176.7) scale(43.1207 56.11124)"/><ellipse fill="#ea0024" rx="1" ry="1" transform="matrix(-26.80547 -125.03633 16.18438 -3.46963 106.7 177)"/><ellipse fill="#e4ffff" rx="1" ry="1" transform="matrix(-2.83125 -2.15031 19.81526 -26.09014 243.3 26)"/><ellipse fill="#00020d" rx="1" ry="1" transform="matrix(-3.07955 24.57103 -78.5308 -9.84248 17 171.7)"/></g></svg>