<svg xmlns="http://www.w3.org/2000/svg" viewBox="0 0 4032 3024"><filter id="c"><feGaussianBlur stdDeviation="55" /></filter><path fill="#a18569" d="M0 0h4032v3024H0z"/><g filter='url(#c)' fill-opacity='.5'><ellipse fill="#e7dbbf" fill-opacity=".5" rx="1" ry="1" transform="rotate(95.8 -173 934.4) scale(526.6651 2238.0303)"/><ellipse fill-opacity=".5" rx="1" ry="1" transform="matrix(147.63098 -266.2396 1298.39685 719.9665 3727.7 306.8)"/><ellipse fill="#1e0b00" fill-opacity=".5" rx="1" ry="1" transform="rotate(-41.1 4118.2 -2864.2) scale(981.6039 312.95951)"/><ellipse fill="#4c0a00" fill-opacity=".5" rx="1" ry="1" transform="rotate(-8.7 14756.7 -5184.2) scale(706.4451 424.50465)"/><ellipse fill="#fff8dd" fill-opacity=".5" rx="1" ry="1" transform="matrix(1107.1134 -2301.34499 380.24467 182.9252 3979.1 2019.3)"/><ellipse fill="#fffff8" fill-opacity=".5" rx="1" ry="1" transform="matrix(-71.01778 358.66599 -3297.98767 -653.01914 657.8 3014.9)"/><ellipse fill="#682f05" fill-opacity=".5" rx="1" ry="1" transform="matrix(1502.28693 289.87981 -76.35009 395.68032 1029 273.9)"/><path fill="#fff" fill-opacity=".5" d="M2433.4 338.6h913.5l567 535.5z"/></g></svg>