<svg xmlns="http://www.w3.org/2000/svg" viewBox="0 0 4032 3024"><filter id="c"><feGaussianBlur stdDeviation="55" /></filter><path fill="#89775e" d="M0 0h4032v3024H0z"/><g filter='url(#c)' fill-opacity='.5'><path fill="#fff" fill-opacity=".5" d="M23.6 3268.1L-55-244l1086.7 31.5z"/><ellipse fill="#100e01" fill-opacity=".5" rx="1" ry="1" transform="rotate(-173.7 1020.7 379.3) scale(1011.75222 739.02181)"/><ellipse fill="#fff" fill-opacity=".5" rx="1" ry="1" transform="matrix(1119.09753 1352.75654 -289.77028 239.71883 4022.1 564.7)"/><ellipse fill="#231e0c" fill-opacity=".5" rx="1" ry="1" transform="matrix(73.50213 502.9262 -1135.17122 165.90408 1942.8 2485.4)"/><ellipse fill="#fffff7" fill-opacity=".5" rx="1" ry="1" transform="matrix(1378.55447 -434.98218 95.23466 301.81965 1013.1 7.9)"/><path fill="#594b30" fill-opacity=".5" d="M420.8 578.3l503.3 26.4L855 1926l-503.3-26.4z"/><ellipse fill="#fff" fill-opacity=".5" rx="1" ry="1" transform="matrix(-680.1125 -921.2345 249.65513 -184.31092 110.8 3016.1)"/><path fill="#fec961" fill-opacity=".5" d="M2512.1 1204.9l-378 1039.5 1118.3-535.5z"/></g></svg>