<svg xmlns="http://www.w3.org/2000/svg" viewBox="0 0 4032 3024"><filter id="b"><feGaussianBlur stdDeviation="12" /></filter><path fill="#9f8158" d="M0 0h4032v3024H0z"/><g filter="url(#b)" transform="translate(7.9 7.9) scale(15.75)" fill-opacity=".5"><ellipse rx="1" ry="1" transform="matrix(-9.7151 -10.3914 56.95816 -53.25113 215.9 36.7)"/><ellipse fill="#fdffff" rx="1" ry="1" transform="matrix(-58.98536 -4.33161 2.79233 -38.02432 162.8 0)"/><path fill="#f5fdff" d="M98-16L-16 153 16 38z"/><path fill="#924900" d="M154 207l-5-186L8 97z"/><ellipse fill="#fbffff" rx="1" ry="1" transform="matrix(31.07222 .8451 -1.38792 51.03085 255 75.4)"/><ellipse fill="#eaf8ff" rx="1" ry="1" transform="rotate(-31.8 273.3 26.1) scale(14.552 114.19595)"/><ellipse fill="#8e5200" cx="163" cy="115" rx="63" ry="63"/><ellipse fill="azure" rx="1" ry="1" transform="rotate(-138.8 136.3 57.7) scale(15.02116 83.62969)"/></g></svg>