<svg xmlns="http://www.w3.org/2000/svg" viewBox="0 0 3264 2448"><filter id="b"><feGaussianBlur stdDeviation="12" /></filter><path fill="#a58945" d="M0 0h3264v2448H0z"/><g filter="url(#b)" transform="translate(6.4 6.4) scale(12.75)" fill-opacity=".5"><ellipse fill="#fff1a9" rx="1" ry="1" transform="rotate(-109.1 97.3 31) scale(43.75932 71.9718)"/><path fill="#460c00" d="M105.5 27.4l-35 78.6-84-37.4 35-78.6z"/><ellipse fill="#1d3952" cx="157" cy="44" rx="30" ry="30"/><ellipse fill="#ffffc7" cx="160" cy="47" rx="17" ry="17"/><path fill="#0c1700" d="M238 81l-8 31-100-55z"/><ellipse fill="#00004d" rx="1" ry="1" transform="matrix(6.5214 -2.11465 8.32255 25.66607 135.3 171.5)"/><path fill="#ffd45b" d="M203.4 110.4l42.6-6 12.6 89.2-42.6 6z"/><ellipse fill="#ffffc4" rx="1" ry="1" transform="matrix(-12.98114 -23.32251 16.46432 -9.16393 161.3 165.4)"/></g></svg>