<svg xmlns="http://www.w3.org/2000/svg" viewBox="0 0 4032 3024"><filter id="b"><feGaussianBlur stdDeviation="12" /></filter><path fill="#958975" d="M0 0h4032v3024H0z"/><g filter="url(#b)" transform="translate(7.9 7.9) scale(15.75)" fill-opacity=".5"><ellipse fill="#201000" rx="1" ry="1" transform="rotate(124.8 -7.8 83.7) scale(67.844 39.44948)"/><ellipse fill="#fffff4" rx="1" ry="1" transform="matrix(-7.74551 -31.29816 161.74198 -40.0271 225.8 167.1)"/><ellipse rx="1" ry="1" transform="matrix(-51.37833 2.1032 -1.28707 -31.44146 39.6 7)"/><ellipse fill="#e5d3ba" cx="255" rx="71" ry="88"/><ellipse fill="#eee8da" rx="1" ry="1" transform="matrix(33.51336 -2.23548 1.67765 25.1506 90.1 52.7)"/><path fill="#3c2d0e" d="M125 5h26v96h-26z"/><ellipse fill="#bbb1a7" rx="1" ry="1" transform="rotate(164.5 5.3 74.9) scale(14.81489 35.24879)"/><path fill="#221e18" d="M108 173L34 74l21 103z"/></g></svg>