<svg xmlns="http://www.w3.org/2000/svg" viewBox="0 0 4032 3024"><filter id="b"><feGaussianBlur stdDeviation="12" /></filter><path fill="#675b4c" d="M0 0h4032v3024H0z"/><g filter="url(#b)" transform="translate(7.9 7.9) scale(15.75)" fill-opacity=".5"><ellipse fill="#ffefbe" rx="1" ry="1" transform="rotate(116.2 30.9 82.2) scale(53.14275 92.98703)"/><ellipse rx="1" ry="1" transform="rotate(-140.1 41.1 70.9) scale(131.64716 39.3957)"/><ellipse rx="1" ry="1" transform="rotate(-155.9 114.6 -9.7) scale(147.66785 37.69779)"/><ellipse fill="#02040a" rx="1" ry="1" transform="matrix(92.284 -135.79178 31.28309 21.25997 230.1 159.2)"/><ellipse fill="#04040b" rx="1" ry="1" transform="matrix(-4.96497 -27.59416 85.24776 -15.3385 29.4 11.5)"/><ellipse rx="1" ry="1" transform="matrix(81.17933 134.12588 -29.6273 17.93185 26.7 173)"/><ellipse fill="#ffffef" cx="173" cy="111" rx="27" ry="21"/><ellipse fill="#ffffe3" rx="1" ry="1" transform="matrix(-7.8213 -16.90586 29.62028 -13.70349 90 108.9)"/></g></svg>