<svg xmlns="http://www.w3.org/2000/svg" viewBox="0 0 4032 3024"><filter id="b"><feGaussianBlur stdDeviation="12" /></filter><path fill="#b7a187" d="M0 0h4032v3024H0z"/><g filter="url(#b)" transform="translate(7.9 7.9) scale(15.75)" fill-opacity=".5"><ellipse fill="#59390a" rx="1" ry="1" transform="matrix(-14.42613 -51.85986 64.23994 -17.86996 95.3 76.2)"/><ellipse fill="#f2e8da" cx="22" cy="180" rx="46" ry="172"/><ellipse fill="#280c00" cx="213" cy="190" rx="27" ry="27"/><ellipse fill="#f7fbf8" rx="1" ry="1" transform="matrix(2.58417 -14.2198 163.07225 29.63525 183.2 17.7)"/><path d="M43.5 1L-3.1 16.3-7.5 3l46.6-15.1z"/><ellipse fill="#f0d7bb" rx="1" ry="1" transform="matrix(-18.30152 56.3263 -67.71596 -22.00225 255 86.7)"/><ellipse fill="#947646" rx="1" ry="1" transform="rotate(-116.4 65 34.3) scale(61.42216 25.80327)"/><path fill="#68481f" d="M55 26h128v41H55z"/></g></svg>