<svg xmlns="http://www.w3.org/2000/svg" viewBox="0 0 4032 3024"><filter id="b"><feGaussianBlur stdDeviation="12" /></filter><path fill="#a78c62" d="M0 0h4032v3024H0z"/><g filter="url(#b)" transform="translate(7.9 7.9) scale(15.75)" fill-opacity=".5"><ellipse fill="#fff" rx="1" ry="1" transform="matrix(146.66939 -138.37622 19.6874 20.8673 204.2 191)"/><ellipse fill="#724700" rx="1" ry="1" transform="matrix(-5.71745 -44.18308 70.6217 -9.1387 99.5 75.5)"/><ellipse fill="#fffff8" cx="6" cy="118" rx="20" ry="67"/><path fill="#0f0000" d="M271 65.6L248.4 51l-63-39.3L243.1 9z"/><ellipse fill="#fffff3" rx="1" ry="1" transform="rotate(18.1 -558 249) scale(66.47702 14.86635)"/><ellipse fill="#faf3db" rx="1" ry="1" transform="matrix(-7.77403 11.12033 -55.29511 -38.65586 225 54.9)"/><path fill="#370600" d="M-30.6 53.8l-8.7-22.5 128-49 8.6 22.4z"/><ellipse fill="#fdf2e5" rx="1" ry="1" transform="matrix(-7.51768 -9.15218 43.66745 -35.86885 24.9 53.2)"/></g></svg>