<svg xmlns="http://www.w3.org/2000/svg" viewBox="0 0 4032 3024"><filter id="b"><feGaussianBlur stdDeviation="12" /></filter><path fill="#745d45" d="M0 0h4032v3024H0z"/><g filter="url(#b)" transform="translate(7.9 7.9) scale(15.75)" fill-opacity=".5"><ellipse fill="#fff8d3" rx="1" ry="1" transform="matrix(-63.16202 32.74008 -24.24828 -46.77968 114.6 178.7)"/><ellipse fill="#1a0000" cx="232" cy="115" rx="66" ry="66"/><ellipse fill="#dae3d5" rx="1" ry="1" transform="matrix(-11.71403 48.41999 -20.54117 -4.96943 22.2 46)"/><ellipse fill="#ffffe5" rx="1" ry="1" transform="matrix(-1.78296 -14.89456 31.7871 -3.8051 79.2 61.4)"/><ellipse fill="#270500" rx="1" ry="1" transform="matrix(-4.88936 -29.33803 64.0451 -10.6735 35.9 124.7)"/><ellipse fill="#ffe0ae" rx="1" ry="1" transform="matrix(-.38669 11.139 -31.70145 -1.1005 198 43)"/><path d="M56 41.3L64 .1l44 8.6-8 41.2z"/><path fill="#d9e2ee" d="M113.7-7.4l13 63.3 43.7 2.8L143 38z"/></g></svg>