<svg xmlns="http://www.w3.org/2000/svg" viewBox="0 0 2423 2424"><filter id="b"><feGaussianBlur stdDeviation="12" /></filter><path fill="#a4866a" d="M0 0h2424v2424H0z"/><g filter="url(#b)" transform="translate(4.7 4.7) scale(9.46875)" fill-opacity=".5"><ellipse fill="#460600" rx="1" ry="1" transform="matrix(53.41646 53.40031 -62.9362 62.95524 110.2 98)"/><ellipse fill="#fff5d9" rx="1" ry="1" transform="matrix(-90.0993 214.33777 -29.95318 -12.59116 240.9 114)"/><ellipse fill="#fffae9" rx="1" ry="1" transform="matrix(60.43377 95.09296 -23.94356 15.21668 191.2 0)"/><ellipse fill="#ebeddd" rx="1" ry="1" transform="matrix(44.5931 -169.97882 29.66949 7.78364 9.7 69.4)"/><ellipse fill="#f0daac" cx="30" cy="255" rx="69" ry="69"/><ellipse rx="1" ry="1" transform="matrix(17.86792 12.7556 -21.58806 30.24035 90.5 8.7)"/><ellipse fill="#5d2d09" cx="165" cy="144" rx="40" ry="40"/><path fill="#ebe6d3" d="M130 17h99v21h-99z"/></g></svg>