<svg xmlns="http://www.w3.org/2000/svg" viewBox="0 0 4032 3024"><filter id="b"><feGaussianBlur stdDeviation="12" /></filter><path fill="#6a5038" d="M0 0h4032v3024H0z"/><g filter="url(#b)" transform="translate(7.9 7.9) scale(15.75)" fill-opacity=".5"><path fill="#fff" d="M36-16l-52 119L101 0z"/><ellipse fill="#ffb74d" cx="132" cy="73" rx="58" ry="46"/><ellipse rx="1" ry="1" transform="matrix(23.8683 -28.24433 105.23772 88.93277 17.8 171.4)"/><ellipse fill="#000005" rx="1" ry="1" transform="rotate(-178.4 128.6 75.6) scale(49.29547 243.35884)"/><ellipse fill="red" cx="9" cy="29" rx="31" ry="22"/><path fill="#eeb266" d="M150 156.3l-39.8 10L98 117.6l39.7-10z"/><path d="M260.3 63.9L99.7 2.3l10-26.2 160.6 61.6z"/><ellipse fill="#fff" rx="1" ry="1" transform="rotate(-130.1 37 -1.8) scale(7.99254 86.31543)"/></g></svg>