<svg xmlns="http://www.w3.org/2000/svg" viewBox="0 0 3264 2448"><filter id="b"><feGaussianBlur stdDeviation="12" /></filter><path fill="#a89486" d="M0 0h3264v2448H0z"/><g filter="url(#b)" transform="translate(6.4 6.4) scale(12.75)" fill-opacity=".5"><ellipse fill="#1c0000" rx="1" ry="1" transform="rotate(-70.4 132.2 -37) scale(67.98918 88.34136)"/><ellipse fill="#fff" rx="1" ry="1" transform="matrix(57.79608 248.36387 -41.4338 9.64195 244.4 89)"/><ellipse fill="#fff" rx="1" ry="1" transform="matrix(29.32905 14.6869 -67.9824 135.75771 24 26.7)"/><path fill="#fff" d="M-12.3 188.8l8.2-46.3 106.4 18.7-8.2 46.3z"/><ellipse fill="#fff" cx="209" rx="51" ry="51"/><ellipse fill="#fff" rx="1" ry="1" transform="rotate(134.9 47.4 25.7) scale(15.39061 31.42839)"/><ellipse fill="#432111" rx="1" ry="1" transform="rotate(-130 54.7 45.4) scale(25.8708 47.51422)"/><ellipse fill="#400f03" rx="1" ry="1" transform="matrix(2.51994 47.69303 -34.94261 1.84625 157.7 143.4)"/></g></svg>