<svg xmlns="http://www.w3.org/2000/svg" viewBox="0 0 2592 1936"><filter id="b"><feGaussianBlur stdDeviation="12" /></filter><path fill="#a59c89" d="M0 0h2592v1933H0z"/><g filter="url(#b)" transform="translate(5 5) scale(10.125)" fill-opacity=".5"><ellipse fill="#000234" rx="1" ry="1" transform="rotate(-163.3 67.4 76.3) scale(68.53206 19.11451)"/><ellipse fill="#ffffed" rx="1" ry="1" transform="rotate(60.3 69.6 231.7) scale(54.55283 35.17102)"/><ellipse fill="#001342" rx="1" ry="1" transform="rotate(-140.6 116 38.3) scale(20.62845 51.77888)"/><ellipse cx="92" cy="3" rx="178" ry="5"/><ellipse fill="#ffffef" rx="1" ry="1" transform="matrix(-18.18403 48.2097 -27.1446 -10.23857 22 58)"/><path fill="#092c00" d="M109 29.7L48 140l-21-11.6L88 18z"/><ellipse fill="#fff9d7" rx="1" ry="1" transform="matrix(25.17134 -14.0833 64.40153 115.10609 25.3 174.9)"/><ellipse fill="#fcd88f" rx="1" ry="1" transform="rotate(-77.3 120.8 -10) scale(45.88307 38.35801)"/></g></svg>