<svg xmlns="http://www.w3.org/2000/svg" viewBox="0 0 4032 3024"><filter id="c"><feGaussianBlur stdDeviation="55" /></filter><path fill="#8e8061" d="M0 0h4032v3024H0z"/><g filter='url(#c)' fill-opacity='.5'><ellipse fill="#fffffb" fill-opacity=".5" rx="1" ry="1" transform="matrix(-3311.84737 -1305.60497 148.61596 -376.98492 3524.3 283)"/><path fill="#fff" fill-opacity=".5" d="M4514.1 2705.8l-1122.4 786-424.6-606.4 1122.5-786z"/><ellipse fill="#fff7e6" fill-opacity=".5" rx="1" ry="1" transform="rotate(134.8 -378 1587.8) scale(705.74685 1784.99925)"/><ellipse fill="#5c4314" fill-opacity=".5" rx="1" ry="1" transform="matrix(-406.25145 808.23214 -1675.94442 -842.40011 2344.7 1275.8)"/><ellipse fill="#fff" fill-opacity=".5" rx="1" ry="1" transform="rotate(18.9 -6457.4 13202) scale(250.28355 830.68368)"/><ellipse fill="#130500" fill-opacity=".5" rx="1" ry="1" transform="rotate(55.5 -1043.8 559.2) scale(437.97942 341.24361)"/><ellipse fill="#0f0b0e" fill-opacity=".5" rx="1" ry="1" transform="rotate(99.5 21.7 2408.7) scale(117.17268 638.68666)"/><ellipse fill="#96a9b5" fill-opacity=".5" rx="1" ry="1" transform="matrix(-145.24667 -941.3566 246.9708 -38.10637 1307 2178.6)"/></g></svg>