<svg xmlns="http://www.w3.org/2000/svg" viewBox="0 0 4032 3024"><filter id="b"><feGaussianBlur stdDeviation="12" /></filter><path fill="#745d45" d="M0 0h4032v3024H0z"/><g filter="url(#b)" transform="translate(7.9 7.9) scale(15.75)" fill-opacity=".5"><ellipse fill="#ffebc8" rx="1" ry="1" transform="matrix(71.3636 -21.68426 13.91736 45.80248 113.3 172.5)"/><ellipse fill="#190000" cx="224" cy="114" rx="62" ry="62"/><ellipse fill="#ddf4f2" rx="1" ry="1" transform="matrix(-18.06574 -6.39349 13.8884 -39.2437 23 37)"/><ellipse fill="#310c00" rx="1" ry="1" transform="matrix(-126.77778 70.27407 -10.03357 -18.10104 56.7 128)"/><ellipse fill="#e6ddc8" rx="1" ry="1" transform="matrix(-59.00236 7.24458 -1.76172 -14.34807 104.7 58)"/><path d="M101.6 48.3L55.3 40 62.4-.3 108.7 8z"/><ellipse fill="#ffe1af" rx="1" ry="1" transform="matrix(.45145 -11.07838 31.0734 1.26625 198.3 44)"/><path fill="#d5e9fb" d="M118 0h19v43h-19z"/></g></svg>