<svg xmlns="http://www.w3.org/2000/svg" viewBox="0 0 3952 2965"><filter id="b"><feGaussianBlur stdDeviation="12" /></filter><path fill="#91765e" d="M0 0h3952v2964H0z"/><g filter="url(#b)" transform="translate(7.7 7.7) scale(15.4375)" fill-opacity=".5"><ellipse rx="1" ry="1" transform="matrix(14.18066 19.58982 -54.86478 39.71547 249.4 167)"/><ellipse fill="#cbc6bb" cx="4" cy="10" rx="73" ry="62"/><ellipse fill="#050100" rx="1" ry="1" transform="matrix(5.52909 28.98196 -16.45387 3.13902 78.4 169.7)"/><ellipse fill="#5f2a00" rx="1" ry="1" transform="matrix(46.65828 -52.92343 16.09697 14.19139 173 142.8)"/><ellipse fill="#ffbf78" rx="1" ry="1" transform="rotate(-167.9 66.6 14) scale(41.23652 24.2639)"/><ellipse fill="#00051d" rx="1" ry="1" transform="matrix(50.54809 42.24496 -14.57354 17.43793 231.5 1)"/><ellipse fill="#e0d8da" rx="1" ry="1" transform="matrix(46.62792 64.88962 -11.73326 8.4312 16.4 147.4)"/><ellipse fill="#ffc170" rx="1" ry="1" transform="matrix(-38.82806 46.76862 -14.48135 -12.02265 134.1 124.2)"/></g></svg>