<svg xmlns="http://www.w3.org/2000/svg" viewBox="0 0 4032 3024"><filter id="c"><feGaussianBlur stdDeviation="55" /></filter><path fill="#866944" d="M0 0h4032v3024H0z"/><g filter='url(#c)' fill-opacity='.5'><ellipse fill="#ffc261" fill-opacity=".5" rx="1" ry="1" transform="matrix(97.73873 -725.5726 1181.0205 159.09013 1804.9 1687.4)"/><path fill="#dee8fb" fill-opacity=".5" d="M1400.6 3268.1l-1000-724.6-643.3-1012.6 1741 1387z"/><ellipse fill="#000003" fill-opacity=".5" rx="1" ry="1" transform="rotate(59.2 -878 4629) scale(589.6748 1063.77998)"/><ellipse fill="#162634" fill-opacity=".5" rx="1" ry="1" transform="matrix(-263.28485 -348.37528 1507.53168 -1139.31807 968.2 455.3)"/><ellipse fill="#000012" fill-opacity=".5" rx="1" ry="1" transform="rotate(45.4 -3065.4 1371) scale(1296.80904 328.62581)"/><ellipse fill="#152536" fill-opacity=".5" rx="1" ry="1" transform="rotate(-75.3 1645 -2121) scale(459.87138 3143.76267)"/><path fill="#091600" fill-opacity=".5" d="M779.6 2008.1h535.5V2528H779.6z"/><ellipse fill="#de974a" fill-opacity=".5" rx="1" ry="1" transform="matrix(1216.7346 -70.15648 15.66936 271.75615 2335.4 731.3)"/></g></svg>