<svg xmlns="http://www.w3.org/2000/svg" viewBox="0 0 4032 3024"><filter id="b"><feGaussianBlur stdDeviation="12" /></filter><path fill="#927f6a" d="M0 0h4032v3024H0z"/><g filter="url(#b)" transform="translate(7.9 7.9) scale(15.75)" fill-opacity=".5"><ellipse fill="#3b1b00" rx="1" ry="1" transform="rotate(-161.4 59.3 37.4) scale(74.32823 55.57932)"/><ellipse fill="#cfd8de" rx="1" ry="1" transform="rotate(171.3 109.3 75.2) scale(27.1121 63.72826)"/><ellipse fill="#e6e9e6" rx="1" ry="1" transform="matrix(-22.51934 -8.39188 16.73127 -44.89784 40.2 7.8)"/><ellipse fill="#bebfaa" cx="88" cy="174" rx="129" ry="25"/><path fill="#fffffd" d="M55.9 6.3l72.6-7.4 28.2 9.9 4.4 10.4z"/><path fill="#d3efff" d="M198.5 84.1l72.5 22.4-56.4-42.2-36-13.2z"/><ellipse fill="#e58f69" rx="1" ry="1" transform="matrix(-95.94289 -15.43647 3.16132 -19.64865 214.8 34)"/><path fill="#412000" d="M48 143l136-61-13-60z"/></g></svg>