<svg xmlns="http://www.w3.org/2000/svg" viewBox="0 0 2448 3264"><filter id="b"><feGaussianBlur stdDeviation="12" /></filter><path fill="#b29e87" d="M0 0h2448v3264H0z"/><g filter="url(#b)" transform="translate(6.4 6.4) scale(12.75)" fill-opacity=".5"><ellipse fill="#7e4204" rx="1" ry="1" transform="rotate(128.8 -11.3 116.3) scale(103.96383 65.92286)"/><ellipse fill="#fff" rx="1" ry="1" transform="matrix(-5.93956 45.57528 -83.91908 -10.93669 131.8 19.5)"/><ellipse fill="#f2ffff" rx="1" ry="1" transform="rotate(-100.6 55 51.9) scale(20.20775 68.43251)"/><ellipse fill="#eaf8ff" rx="1" ry="1" transform="matrix(-1.72122 130.3898 -17.79493 -.2349 177.1 228)"/><ellipse fill="#564e3c" rx="1" ry="1" transform="rotate(75.5 -25.6 56.5) scale(23.14482 58.51696)"/><path fill="#fff8ed" d="M93 0h58v84H93z"/><ellipse fill="#4f1f00" rx="1" ry="1" transform="matrix(-3.01487 -11.17359 83.99337 -22.66315 57.7 211.8)"/><ellipse fill="#080000" cy="34" rx="11" ry="30"/></g></svg>