<svg xmlns="http://www.w3.org/2000/svg" viewBox="0 0 4032 3024"><filter id="b"><feGaussianBlur stdDeviation="12" /></filter><path fill="#9b9187" d="M0 0h4032v3024H0z"/><g filter="url(#b)" transform="translate(7.9 7.9) scale(15.75)" fill-opacity=".5"><ellipse fill="#f6ffff" rx="1" ry="1" transform="matrix(30.2643 25.53348 -51.67504 61.24933 48 97.5)"/><ellipse fill="#250000" rx="1" ry="1" transform="matrix(-7.97223 20.48164 -79.54975 -30.96378 255 49)"/><ellipse fill="#33382f" cx="170" cy="164" rx="126" ry="22"/><ellipse fill="#f3ffff" rx="1" ry="1" transform="matrix(-3.39105 16.6277 -68.82446 -14.03605 154.8 47.3)"/><ellipse fill="#300" rx="1" ry="1" transform="rotate(.4 -2769.3 12503.7) scale(179.32491 6.67193)"/><ellipse fill="#a47508" rx="1" ry="1" transform="rotate(94.5 27.4 94.2) scale(24.85826 45.58495)"/><ellipse fill="#d6d6bc" cx="221" cy="112" rx="142" ry="26"/><path fill="#40000c" d="M271 20l-68 6 68 84z"/></g></svg>