<svg xmlns="http://www.w3.org/2000/svg" viewBox="0 0 2078 1344"><filter id="b"><feGaussianBlur stdDeviation="12" /></filter><path fill="#98693e" d="M0 0h2078v1339H0z"/><g filter="url(#b)" transform="translate(4 4) scale(8.11719)" fill-opacity=".5"><ellipse fill="#fff490" rx="1" ry="1" transform="matrix(162.33365 -27.55893 7.669 45.17368 81.7 0)"/><path d="M15 118l227 42-217 20z"/><ellipse fill="#edf569" cx="24" cy="76" rx="42" ry="31"/><ellipse fill="#7e1c25" rx="1" ry="1" transform="matrix(-42.55945 39.41028 -90.74114 -97.99204 238.9 146)"/><ellipse fill="#4a0000" rx="1" ry="1" transform="matrix(35.47464 28.01618 -9.45448 11.97145 93.4 75.6)"/><ellipse fill="#ffa08d" rx="1" ry="1" transform="rotate(-163.9 97.5 -5.7) scale(87.86171 16.10137)"/><ellipse fill="#f8e4ba" rx="1" ry="1" transform="matrix(-5.37355 -4.30439 15.79282 -19.71558 224.6 103)"/><path fill="#ffde70" d="M98 136.8l21.7-37.2-66.4 19.8 5.5 7.8z"/></g></svg>