<svg xmlns="http://www.w3.org/2000/svg" viewBox="0 0 4032 3024"><filter id="c"><feGaussianBlur stdDeviation="55" /></filter><path fill="#766f52" d="M0 0h4032v3024H0z"/><g filter='url(#c)' fill-opacity='.5'><ellipse fill="#ccc37e" fill-opacity=".5" rx="1" ry="1" transform="rotate(-130.1 1250.8 504) scale(1129.35355 1539.91925)"/><path fill="#000004" fill-opacity=".5" d="M-244.1 1189.1L527.6-181l2835 173z"/><ellipse fill="#fff" fill-opacity=".5" rx="1" ry="1" transform="matrix(-205.83918 -70.30116 475.43646 -1392.06017 3975.6 2733.3)"/><ellipse fill="#11101c" fill-opacity=".5" rx="1" ry="1" transform="rotate(101.8 1472.7 2035.1) scale(2258.00499 461.65031)"/><path fill-opacity=".5" d="M-470.9 2742.2l343.3-490.3L1085 3101.1l-343 490.2z"/><ellipse fill="#fff" fill-opacity=".5" rx="1" ry="1" transform="matrix(-301.38821 -414.98574 163.50834 -118.74983 1318 3016.1)"/><path fill="#ffffcf" fill-opacity=".5" d="M3766.7 531.8L3701.6 759 2990 555l65.1-227z"/><ellipse fill-opacity=".5" rx="1" ry="1" transform="matrix(1115.53509 239.42687 -51.74012 241.06699 3515.7 84.5)"/></g></svg>