<svg xmlns="http://www.w3.org/2000/svg" viewBox="0 0 2945 2208"><filter id="b"><feGaussianBlur stdDeviation="12" /></filter><path fill="#9e845a" d="M0 0h2945v2197H0z"/><g filter="url(#b)" transform="translate(5.8 5.8) scale(11.5039)" fill-opacity=".5"><ellipse fill="#fffffd" rx="1" ry="1" transform="rotate(-134.4 123.3 42) scale(22.91664 91.94097)"/><ellipse fill="#fffeda" rx="1" ry="1" transform="matrix(20.8927 67.71353 -28.14711 8.68466 218 31.3)"/><ellipse fill="#373802" rx="1" ry="1" transform="matrix(75.6697 -8.14537 3.2523 30.21352 119 126.5)"/><ellipse fill="#390000" rx="1" ry="1" transform="matrix(86.24142 -120.91317 28.23287 20.13712 234.3 190)"/><ellipse rx="1" ry="1" transform="matrix(40.62804 -61.62392 28.25407 18.62763 0 24.5)"/><ellipse fill="#fffff6" cx="58" cy="184" rx="126" ry="11"/><path d="M39.3 4.8L77.9-30l22.8 25.2L62.1 30z"/><ellipse fill="#150000" cx="145" cy="7" rx="23" ry="11"/></g></svg>