<svg xmlns="http://www.w3.org/2000/svg" viewBox="0 0 4032 3024"><filter id="b"><feGaussianBlur stdDeviation="12" /></filter><path fill="#a79278" d="M0 0h4032v3024H0z"/><g filter="url(#b)" transform="translate(7.9 7.9) scale(15.75)" fill-opacity=".5"><ellipse fill="#502a00" cx="139" cy="71" rx="77" ry="68"/><path fill="#fff" d="M-8 180L78-15-16-5z"/><ellipse fill="#d7ecff" rx="1" ry="1" transform="rotate(-76 197.6 -104.8) scale(190.97815 31.39802)"/><ellipse fill="#ffcf75" rx="1" ry="1" transform="rotate(-39.2 203 -7) scale(26.07001 66.47619)"/><ellipse fill="#f8e1af" rx="1" ry="1" transform="rotate(86 .8 184.6) scale(14.52503 103.71963)"/><ellipse fill="#9d7038" rx="1" ry="1" transform="matrix(22.25553 -1.62657 3.33528 45.63502 216.4 90)"/><ellipse fill="#b8d3fb" rx="1" ry="1" transform="matrix(8.83479 -10.00243 73.9581 65.32454 235.8 39.3)"/><ellipse fill="#5f461b" rx="1" ry="1" transform="matrix(12.1667 -17.35174 26.64679 18.68421 117.8 134.8)"/></g></svg>