<svg xmlns="http://www.w3.org/2000/svg" viewBox="0 0 4032 3024"><filter id="c"><feGaussianBlur stdDeviation="55" /></filter><path fill="#8e8061" d="M0 0h4032v3024H0z"/><g filter='url(#c)' fill-opacity='.5'><ellipse fill="#fffffd" fill-opacity=".5" rx="1" ry="1" transform="matrix(2865.00554 1037.11753 -171.52068 473.82064 3606 190.2)"/><ellipse fill="#fff" fill-opacity=".5" rx="1" ry="1" transform="matrix(223.69159 332.8882 -1551.66936 1042.67854 3971.5 2656.4)"/><ellipse fill="#fff6e5" fill-opacity=".5" rx="1" ry="1" transform="matrix(-420.33588 424.35307 -1152.94883 -1142.03427 577.9 2903.9)"/><path fill="#5d4414" fill-opacity=".5" d="M2937.4 3268.1L3898 842.6 118.1 197z"/><ellipse fill="#fff" fill-opacity=".5" rx="1" ry="1" transform="matrix(-805.70552 1610.93411 -342.61807 -171.35975 4024.1 2848.4)"/><ellipse fill-opacity=".5" rx="1" ry="1" transform="matrix(-60.0768 309.06831 -174.53295 -33.92577 182 1234.4)"/><path fill="#fdfffd" fill-opacity=".5" d="M4002.5 1614.1l-258-793.9 269.7-87.6 258 794z"/><ellipse fill="#644b1b" fill-opacity=".5" rx="1" ry="1" transform="matrix(-106.26034 -400.8446 618.9882 -164.08826 2293.7 627)"/></g></svg>