<svg xmlns="http://www.w3.org/2000/svg" viewBox="0 0 3662 2744"><filter id="c"><feGaussianBlur stdDeviation="55" /></filter><path fill="#907a66" d="M0 0h3662v2732H0z"/><g filter='url(#c)' fill-opacity='.5'><ellipse fill-opacity=".5" rx="1" ry="1" transform="matrix(737.8468 -233.0683 348.6391 1103.72045 922.4 644.9)"/><ellipse fill="#fffffc" fill-opacity=".5" rx="1" ry="1" transform="rotate(-132.6 454.2 928.5) scale(1064.81428 623.56008)"/><ellipse fill="#ede5ce" fill-opacity=".5" rx="1" ry="1" transform="matrix(419.87604 -914.01804 1399.6915 642.98176 3189.4 423)"/><ellipse fill="#45260d" fill-opacity=".5" rx="1" ry="1" transform="rotate(-157.2 1757 539.4) scale(1293.92513 217.23361)"/><path fill="#fffcde" fill-opacity=".5" d="M1709.4 794h386.2v486.3h-386.2z"/><ellipse fill="#471300" fill-opacity=".5" rx="1" ry="1" transform="matrix(198.04184 -462.06624 192.1888 82.37223 3210 2489.6)"/><path fill="#fceccb" fill-opacity=".5" d="M1140 1767.4l249.8-34-261.2 473.2L-221.7 2390z"/><ellipse fill="#180809" fill-opacity=".5" rx="1" ry="1" transform="rotate(170 476 758.3) scale(591.58722 358.51422)"/></g></svg>