<svg xmlns="http://www.w3.org/2000/svg" viewBox="0 0 3264 2448"><filter id="b"><feGaussianBlur stdDeviation="12" /></filter><path fill="#352a22" d="M0 0h3264v2448H0z"/><g filter="url(#b)" transform="translate(6.4 6.4) scale(12.75)" fill-opacity=".5"><ellipse fill="#ffa772" rx="1" ry="1" transform="matrix(-80.3724 7.03167 -3.88584 -44.41531 107.4 91.5)"/><ellipse rx="1" ry="1" transform="matrix(.5945 29.95554 -240.4298 4.77155 129 18.2)"/><ellipse fill="#000004" cx="64" cy="159" rx="171" ry="29"/><ellipse fill="#253c1b" rx="1" ry="1" transform="matrix(55.74668 -21.99216 6.40051 16.22429 165.3 96.5)"/><path fill="#b3bab7" d="M203 73.7l-82.8-16.2 1-19 21.2-.3z"/><ellipse fill="#ff6060" rx="1" ry="1" transform="matrix(11.34532 19.26613 -36.45422 21.46694 81.5 92.4)"/><path fill="#ffe3a3" d="M113.3 133.4l54-4.8 22.5-9.8-46.8 1.7z"/><ellipse fill="#000a10" rx="1" ry="1" transform="matrix(-32.62143 -1.90857 10.89825 -186.27418 225.5 163.1)"/></g></svg>