<svg xmlns="http://www.w3.org/2000/svg" viewBox="0 0 4032 3024"><filter id="b"><feGaussianBlur stdDeviation="12" /></filter><path fill="#6a5038" d="M0 0h4032v3024H0z"/><g filter="url(#b)" transform="translate(7.9 7.9) scale(15.75)" fill-opacity=".5"><ellipse fill="#fff" rx="1" ry="1" transform="rotate(-42.6 56.8 -47) scale(129.55223 18.71786)"/><path fill="#ffb34e" d="M200.8 72.6l-77.3 69.6-60.3-66.8 77.3-69.6z"/><ellipse fill="#00000a" rx="1" ry="1" transform="rotate(100.9 56 165.5) scale(255 34.88238)"/><path d="M-16 194l128 4L-16 98z"/><ellipse fill="#ff0002" rx="1" ry="1" transform="matrix(6.99811 23.62522 -35.4697 10.5066 2.9 33)"/><ellipse fill="#000611" cx="165" cy="12" rx="75" ry="17"/><path fill="#fff" d="M193 129l-28 25-36 4z"/><ellipse rx="1" ry="1" transform="matrix(-13.9514 12.75097 -26.25551 -28.72733 71 111.7)"/></g></svg>