<svg xmlns="http://www.w3.org/2000/svg" viewBox="0 0 2442 1628"><filter id="b"><feGaussianBlur stdDeviation="12" /></filter><path fill="#f3f3f4" d="M0 0h2442v1621H0z"/><g filter="url(#b)" transform="translate(4.8 4.8) scale(9.53906)" fill-opacity=".5"><ellipse rx="1" ry="1" transform="matrix(15.2004 -11.86238 13.1145 16.80486 174.5 114.8)"/><ellipse cx="171" cy="111" rx="15" ry="17"/><ellipse fill="#fff" rx="1" ry="1" transform="matrix(124.61914 -96.18574 41.01097 53.1342 76.9 85.2)"/><ellipse cx="171" cy="110" rx="14" ry="15"/><ellipse fill="#fff" cx="60" cy="8" rx="130" ry="130"/><path fill="#c9baa9" d="M185 117.6l8.4-19.8 4 36.3-32.3 8z"/><path fill="#fff" d="M150.6 174.7L58.3 185l59.2-73 57.3 17.6zm14.6-99L190.4 56l28.4 36.3-25.2 19.7z"/></g></svg>