<svg xmlns="http://www.w3.org/2000/svg" viewBox="0 0 4032 3024"><filter id="b"><feGaussianBlur stdDeviation="12" /></filter><path fill="#756044" d="M0 0h4032v3024H0z"/><g filter="url(#b)" transform="translate(7.9 7.9) scale(15.75)" fill-opacity=".5"><ellipse rx="1" ry="1" transform="matrix(-85.98214 115.74014 -27.13805 -20.16057 51.8 20.7)"/><ellipse fill="#e6c99b" cx="54" cy="151" rx="47" ry="47"/><ellipse fill="#efc587" rx="1" ry="1" transform="matrix(18.9191 -107.36155 28.20778 4.97074 158 139.2)"/><ellipse fill="#000006" rx="1" ry="1" transform="matrix(24.59327 -3.49038 28.10148 198.00353 229.2 49.8)"/><ellipse fill="#fff" rx="1" ry="1" transform="matrix(2.85617 -10.14296 42.98822 12.1051 67 188)"/><ellipse fill="#ffffc6" rx="1" ry="1" transform="matrix(-23.3021 7.2554 -5.11112 -16.41536 36.4 121.5)"/><ellipse fill="#140000" rx="1" ry="1" transform="rotate(25.7 -311.3 98) scale(92.27173 7.10635)"/><ellipse fill="#d6a164" rx="1" ry="1" transform="rotate(53.6 -1.3 142.1) scale(32.23509 52.44882)"/></g></svg>