<svg xmlns="http://www.w3.org/2000/svg" viewBox="0 0 3192 2392"><filter id="b"><feGaussianBlur stdDeviation="12" /></filter><path fill="#a68265" d="M0 0h3192v2381H0z"/><g filter="url(#b)" transform="translate(6.2 6.2) scale(12.46875)" fill-opacity=".5"><ellipse fill="#fff" rx="1" ry="1" transform="matrix(119.65865 39.3804 -9.22558 28.03223 113.2 168.6)"/><ellipse fill="#831c00" rx="1" ry="1" transform="matrix(79.70161 -9.2218 6.93766 59.96045 145.1 86.4)"/><ellipse rx="1" ry="1" transform="matrix(-13.18846 20.99837 -101.58054 -63.79973 22.6 190)"/><ellipse fill="#fff" cx="7" cy="38" rx="54" ry="28"/><ellipse fill="#00002b" rx="1" ry="1" transform="matrix(-140.64293 -70.92492 8.91762 -17.68349 211.3 1.7)"/><path fill="#ffffe9" d="M71 168l200-45-30 53z"/><ellipse rx="1" ry="1" transform="matrix(-8.1239 -17.02017 85.85265 -40.97838 248.3 190)"/><path fill="#ffffea" d="M271 102l-43-72-66-26z"/></g></svg>