<svg xmlns="http://www.w3.org/2000/svg" viewBox="0 0 4032 3024"><filter id="b"><feGaussianBlur stdDeviation="12" /></filter><path fill="#847763" d="M0 0h4032v3024H0z"/><g filter="url(#b)" transform="translate(7.9 7.9) scale(15.75)" fill-opacity=".5"><ellipse fill="#e3f0f9" rx="1" ry="1" transform="matrix(4.89438 -27.19171 169.4757 30.5048 198 191)"/><ellipse fill="#fffffd" rx="1" ry="1" transform="matrix(-1.69612 -17.1056 61.80346 -6.12818 131.7 50.4)"/><ellipse fill="#1b0600" rx="1" ry="1" transform="matrix(.50062 -22.67 253.36378 5.595 157.7 14.5)"/><ellipse fill="#fff" rx="1" ry="1" transform="matrix(-13.5095 -2.75568 17.45345 -85.56408 249.4 155.5)"/><ellipse fill="#241400" cx="213" cy="110" rx="25" ry="44"/><ellipse fill="#634106" rx="1" ry="1" transform="rotate(176.4 85.7 77.7) scale(48.49695 21.45351)"/><ellipse fill="#faffff" rx="1" ry="1" transform="matrix(2.61496 -5.96378 48.0969 21.08921 194.1 52)"/><path fill="#1f0c00" d="M208 43.5L224.8 25 282 76.5 265.2 95z"/></g></svg>