<svg xmlns="http://www.w3.org/2000/svg" viewBox="0 0 3662 2744"><filter id="b"><feGaussianBlur stdDeviation="12" /></filter><path fill="#8b6e58" d="M0 0h3662v2732H0z"/><g filter="url(#b)" transform="translate(7.2 7.2) scale(14.30469)" fill-opacity=".5"><ellipse fill="#fffffb" rx="1" ry="1" transform="matrix(-5.97994 23.6325 -89.65212 -22.68548 103.8 143.2)"/><ellipse rx="1" ry="1" transform="matrix(-1.29212 24.75137 -254.65324 -13.2939 73.7 183.1)"/><ellipse fill="#ffffe5" rx="1" ry="1" transform="matrix(1.35762 -36.50924 62.5934 2.32757 13.6 46.8)"/><ellipse fill="#811b00" cx="143" cy="86" rx="79" ry="45"/><ellipse fill="#fff1ce" rx="1" ry="1" transform="matrix(85.57744 -10.81095 2.8509 22.56722 156.4 151.2)"/><ellipse rx="1" ry="1" transform="matrix(-91.6043 -81.31525 16.45306 -18.53492 26.4 167.5)"/><path fill="#000023" d="M136-16l135 7-17 63z"/><ellipse fill="#000009" rx="1" ry="1" transform="matrix(165.36962 -82.53939 11.80005 23.64169 255 170.1)"/></g></svg>