<svg xmlns="http://www.w3.org/2000/svg" viewBox="0 0 4032 3024"><filter id="b"><feGaussianBlur stdDeviation="12" /></filter><path fill="#a88f70" d="M0 0h4032v3024H0z"/><g filter="url(#b)" transform="translate(7.9 7.9) scale(15.75)" fill-opacity=".5"><ellipse fill="#fff" rx="1" ry="1" transform="rotate(37.3 -124.5 393.7) scale(46.80562 189.66477)"/><ellipse fill="#54401f" cx="117" cy="102" rx="68" ry="68"/><ellipse fill="#270000" rx="1" ry="1" transform="matrix(99.10434 32.07584 -7.96438 24.60746 244.9 13.7)"/><ellipse fill="#fffffd" rx="1" ry="1" transform="matrix(-183.01736 -18.6566 2.35773 -23.12884 110 189.2)"/><ellipse fill="#fff" rx="1" ry="1" transform="matrix(62.28139 -35.1804 7.35694 13.0243 46 55.6)"/><path fill="#570000" d="M73 11l-89 8v57z"/><ellipse fill="#161c04" rx="1" ry="1" transform="matrix(31.79477 8.20114 -4.02022 15.58586 40.6 141)"/><ellipse fill="#644c2e" cx="164" cy="68" rx="52" ry="35"/></g></svg>