<svg xmlns="http://www.w3.org/2000/svg" viewBox="0 0 4032 3024"><filter id="b"><feGaussianBlur stdDeviation="12" /></filter><path fill="#9b5225" d="M0 0h4032v3024H0z"/><g filter="url(#b)" transform="translate(7.9 7.9) scale(15.75)" fill-opacity=".5"><ellipse rx="1" ry="1" transform="matrix(2.45333 -27.31574 98.4548 8.84259 117.9 170.4)"/><ellipse fill="#dbb363" cx="137" cy="69" rx="81" ry="81"/><ellipse fill="#ffdb50" rx="1" ry="1" transform="rotate(89.1 43 45.4) scale(16.88284 239.02998)"/><ellipse fill="#680000" rx="1" ry="1" transform="matrix(42.31465 -19.73165 60.11737 128.92211 20.2 130.6)"/><ellipse rx="1" ry="1" transform="matrix(-8.37615 17.64722 -56.46646 -26.80147 106.4 163.1)"/><ellipse fill="#99310b" rx="1" ry="1" transform="matrix(-87.10648 -20.05155 4.10835 -17.8472 174.6 39.5)"/><ellipse fill="#860800" rx="1" ry="1" transform="matrix(-48.31764 14.38201 -10.44314 -35.08464 216.6 161)"/><path fill="#e3c973" d="M53 64h130v39H53z"/></g></svg>