<svg xmlns="http://www.w3.org/2000/svg" viewBox="0 0 4032 3024"><filter id="c"><feGaussianBlur stdDeviation="55" /></filter><path fill="#79705f" d="M0 0h4032v3024H0z"/><g filter='url(#c)' fill-opacity='.5'><ellipse fill="#fceac4" fill-opacity=".5" rx="1" ry="1" transform="rotate(-10 12081.8 -9013.5) scale(1362.31776 1210.48884)"/><ellipse fill-opacity=".5" rx="1" ry="1" transform="rotate(122.1 -435 796.4) scale(3959.08958 428.3236)"/><ellipse fill-opacity=".5" rx="1" ry="1" transform="matrix(-102.1666 502.16488 -3392.02669 -690.11563 3162.2 8.8)"/><ellipse fill-opacity=".5" rx="1" ry="1" transform="matrix(-1210.4197 1850.81686 -355.66544 -232.6024 3609.4 2593.4)"/><path fill-opacity=".5" d="M858.4 3079.1l-882-1464.7L-134 3016z"/><path fill="#fff" fill-opacity=".5" d="M3614.6 1677.4L3205.1 511.9l598.5 582.7z"/><ellipse fill="#44381f" fill-opacity=".5" rx="1" ry="1" transform="matrix(-375.8853 -302.21953 183.73443 -228.51954 2371.5 2055.7)"/><ellipse fill-opacity=".5" rx="1" ry="1" transform="matrix(-1390.3495 1223.6943 -253.38558 -287.89422 454.5 814.4)"/></g></svg>