<svg xmlns="http://www.w3.org/2000/svg" viewBox="0 0 3490 1440"><filter id="c"><feGaussianBlur stdDeviation="55" /></filter><path fill="#a69f8d" d="M0 0h3490v1431H0z"/><g filter='url(#c)' fill-opacity='.5'><ellipse fill="#766646" fill-opacity=".5" rx="1" ry="1" transform="matrix(-516.30285 547.88728 -943.64276 -889.24395 445.2 1205)"/><ellipse fill="#cfcfc9" fill-opacity=".5" rx="1" ry="1" transform="matrix(-390.40588 574.4648 -832.67252 -565.88366 2726 473.4)"/><ellipse fill="#50452e" fill-opacity=".5" rx="1" ry="1" transform="matrix(-157.08782 -172.63726 254.8848 -231.92732 172.4 1433.6)"/><ellipse fill="#9b9177" fill-opacity=".5" rx="1" ry="1" transform="rotate(-53.3 775.5 -419) scale(415.96657 1573.97029)"/><ellipse fill="#54585a" fill-opacity=".5" rx="1" ry="1" transform="matrix(751.81858 -11.81051 .21413 13.63113 1906 111)"/><ellipse fill="#c5c4bb" fill-opacity=".5" rx="1" ry="1" transform="rotate(139.7 1454.6 837.3) scale(344.27795 2188.54215)"/><ellipse fill="#b1ab9c" fill-opacity=".5" rx="1" ry="1" transform="rotate(136.2 929 807.8) scale(283.49929 779.06224)"/><path fill="#5b6063" fill-opacity=".5" d="M2329.4 79l2 27.2-666.4 46.6-2-27.2z"/></g></svg>