<svg xmlns="http://www.w3.org/2000/svg" viewBox="0 0 3145 2223"><filter id="c"><feGaussianBlur stdDeviation="55" /></filter><path fill="#ba8b3b" d="M0 0h3145v2211H0z"/><g filter='url(#c)' fill-opacity='.5'><ellipse fill="#fff" fill-opacity=".5" rx="1" ry="1" transform="matrix(-1600.80964 -661.90627 93.31757 -225.68703 2335.4 6.1)"/><ellipse fill="#934a00" fill-opacity=".5" rx="1" ry="1" transform="matrix(528.44677 272.19642 -558.02884 1083.3667 1765.5 1878.8)"/><path fill="#fffff5" fill-opacity=".5" d="M43-190.4l1142.5 172L-79.9 350z"/><ellipse fill="#ffeea5" fill-opacity=".5" rx="1" ry="1" transform="matrix(-191.58581 -152.39423 502.49767 -631.72615 2976.2 2067.4)"/><ellipse fill="#7d5700" fill-opacity=".5" rx="1" ry="1" transform="rotate(-69.4 1925 621.5) scale(517.66289 440.65559)"/><ellipse fill="#f9e3a1" fill-opacity=".5" rx="1" ry="1" transform="matrix(1442.9537 54.54464 -5.20605 137.72364 1603 67)"/><ellipse fill="#f7b877" fill-opacity=".5" rx="1" ry="1" transform="rotate(108.2 925.4 1692.5) scale(136.91077 593.77773)"/><ellipse fill="#5b0500" fill-opacity=".5" rx="1" ry="1" transform="rotate(102.2 519.5 1412.3) scale(307.86342 120.06524)"/></g></svg>