<svg xmlns="http://www.w3.org/2000/svg" viewBox="0 0 3662 2744"><filter id="b"><feGaussianBlur stdDeviation="12" /></filter><path fill="#907a66" d="M0 0h3662v2732H0z"/><g filter="url(#b)" transform="translate(7.2 7.2) scale(14.30469)" fill-opacity=".5"><ellipse cx="68" cy="53" rx="53" ry="72"/><ellipse fill="#fffffb" rx="1" ry="1" transform="matrix(42.18783 -26.61707 39.62259 62.80147 5.7 141.2)"/><ellipse fill="#ebe3cd" rx="1" ry="1" transform="matrix(-23.77723 49.89353 -94.57835 -45.0722 215.7 42.5)"/><ellipse fill="#230d00" rx="1" ry="1" transform="matrix(67.4429 25.08179 -3.77824 10.15937 207.4 109.8)"/><ellipse fill="#070000" cx="89" cy="84" rx="30" ry="34"/><ellipse fill="#fbf7d9" rx="1" ry="1" transform="rotate(179.4 64.9 36.5) scale(14.32174 20.19387)"/><path fill="#461400" d="M231 196l28-94-71 95z"/><ellipse fill="#f6e4c2" rx="1" ry="1" transform="rotate(-115.5 72.5 57.6) scale(16.81062 47.41062)"/></g></svg>