<svg xmlns="http://www.w3.org/2000/svg" viewBox="0 0 2004 1078"><filter id="b"><feGaussianBlur stdDeviation="12" /></filter><path fill="#936c49" d="M0 0h2004v1072H0z"/><g filter="url(#b)" transform="translate(4 4) scale(7.82813)" fill-opacity=".5"><ellipse fill="#fffffa" rx="1" ry="1" transform="matrix(42.61291 -19.73067 11.11385 24.00292 163.3 24.4)"/><ellipse fill="#fffff4" rx="1" ry="1" transform="matrix(-172.4374 69.538 -9.03969 -22.41624 234.9 117.2)"/><ellipse cx="44" cy="128" rx="77" ry="21"/><ellipse fill="#000004" rx="1" ry="1" transform="matrix(-100.21038 17.1404 -4.9669 -29.03874 65 0)"/><ellipse fill="#6f2100" rx="1" ry="1" transform="rotate(-121.9 117 -16.1) scale(35.14184 73.44749)"/><path fill="#fffffa" d="M271 20.7L235.4-16 114 38.3l60.4-18z"/><ellipse fill="#f48d34" cx="43" cy="68" rx="69" ry="39"/><ellipse fill="#ffe59c" rx="1" ry="1" transform="matrix(-8.6701 -10.96799 28.83917 -22.79714 231.9 91.7)"/></g></svg>