<svg xmlns="http://www.w3.org/2000/svg" viewBox="0 0 4032 3024"><filter id="b"><feGaussianBlur stdDeviation="12" /></filter><path fill="#a9947b" d="M0 0h4032v3024H0z"/><g filter="url(#b)" transform="translate(7.9 7.9) scale(15.75)" fill-opacity=".5"><ellipse fill="#5b2d00" rx="1" ry="1" transform="matrix(-80.97382 -48.98101 22.75087 -37.611 149 84.6)"/><path fill="#fff" d="M287.4 32l-47.6 68-71.2-50 47.6-68z"/><ellipse fill="#fff" cx="18" cy="74" rx="25" ry="69"/><ellipse fill="#f9ebd4" rx="1" ry="1" transform="matrix(88.70977 20.14153 -5.51334 24.28254 83.5 135.7)"/><path d="M30 24L23.4-9.5 98-24l6.4 33.3z"/><ellipse fill="#910000" rx="1" ry="1" transform="matrix(-4.55656 -12.0935 25.23357 -9.50746 47 86.7)"/><path fill="#302615" d="M103 147l147-46-42 49z"/><path fill="#29312e" d="M244 156L78 173l86 15z"/></g></svg>