<svg xmlns="http://www.w3.org/2000/svg" viewBox="0 0 3264 2448"><filter id="b"><feGaussianBlur stdDeviation="12" /></filter><path fill="#958455" d="M0 0h3264v2448H0z"/><g filter="url(#b)" transform="translate(6.4 6.4) scale(12.75)" fill-opacity=".5"><ellipse fill="#000062" rx="1" ry="1" transform="rotate(-116.6 129.7 43) scale(34.86761 181.72387)"/><ellipse fill="#000d85" rx="1" ry="1" transform="rotate(70.6 -68.8 88) scale(69.4823 28.61337)"/><ellipse fill="#ffad00" cx="126" cy="82" rx="74" ry="74"/><ellipse fill="#f1f1ae" rx="1" ry="1" transform="matrix(254.91262 -6.67512 1.00375 38.33182 118.5 .7)"/><path fill="#ffffdb" d="M50.8 190.7l-29.4 25.6-72.2-83 29.4-25.6z"/><ellipse fill="#ffffd8" rx="1" ry="1" transform="matrix(31.17933 55.85588 -19.36607 10.81034 237.5 15.6)"/><ellipse fill="#000057" rx="1" ry="1" transform="rotate(-55.6 130.5 10.6) scale(33.71917 17.55156)"/><path fill="#000040" d="M124 59h23v26h-23z"/></g></svg>