<svg xmlns="http://www.w3.org/2000/svg" viewBox="0 0 3137 2350"><filter id="c"><feGaussianBlur stdDeviation="55" /></filter><path fill="#a89478" d="M0 0h3137v2340H0z"/><g filter='url(#c)' fill-opacity='.5'><ellipse fill="#461d00" fill-opacity=".5" rx="1" ry="1" transform="matrix(755.21818 899.3732 -474.2337 398.2217 1677 1246.7)"/><path fill="#fff" fill-opacity=".5" d="M2411.3-479.8L3858.7 571.8l-547.4 753.5L1863.9 273.7z"/><ellipse fill="#fffff1" fill-opacity=".5" rx="1" ry="1" transform="matrix(295.55464 288.437 -1196.0172 1225.53084 265.6 397.8)"/><ellipse fill="#f4f6e0" fill-opacity=".5" rx="1" ry="1" transform="matrix(799.84904 43.86806 -39.36594 717.76157 348.5 2125.5)"/><ellipse fill="#b47b37" fill-opacity=".5" rx="1" ry="1" transform="matrix(772.34254 621.29776 -237.47416 295.20692 2139.4 916.5)"/><ellipse fill="#ece8de" fill-opacity=".5" rx="1" ry="1" transform="matrix(-524.41839 1161.45798 -333.73497 -150.68712 3025.5 2070.5)"/><path fill="#3e3524" fill-opacity=".5" d="M3069.6 998.7l-490.2 1004.8-1360.1-49z"/><path fill="#091d1d" fill-opacity=".5" d="M2261 100l320.8-282.2-2079.7 94 1703 188.2z"/></g></svg>