<svg xmlns="http://www.w3.org/2000/svg" viewBox="0 0 4032 3024"><filter id="b"><feGaussianBlur stdDeviation="12" /></filter><path fill="#84644c" d="M0 0h4032v3024H0z"/><g filter="url(#b)" transform="translate(7.9 7.9) scale(15.75)" fill-opacity=".5"><path fill="#efdbaa" d="M40 207L0 98l258 80z"/><ellipse fill="#360000" rx="1" ry="1" transform="matrix(110.07297 -74.24515 16.39918 24.31278 20.5 25.5)"/><ellipse fill="#ebeee3" cx="232" cy="126" rx="16" ry="48"/><ellipse fill="#000100" rx="1" ry="1" transform="matrix(19.3999 -39.6695 20.8084 10.1761 87.7 86)"/><ellipse fill="#eee8d1" rx="1" ry="1" transform="matrix(26.37274 -42.86828 13.57634 8.35222 36.8 77.7)"/><ellipse fill="#540000" rx="1" ry="1" transform="rotate(100.3 95.5 79.7) scale(26.94262 108.77268)"/><ellipse fill="#000700" rx="1" ry="1" transform="matrix(.61517 -17.61612 39.07554 1.36455 157.6 126.2)"/><ellipse rx="1" ry="1" transform="rotate(45.4 -207.2 98.5) scale(41.65749 16.38824)"/></g></svg>