<svg xmlns="http://www.w3.org/2000/svg" viewBox="0 0 2088 1570"><filter id="b"><feGaussianBlur stdDeviation="12" /></filter><path fill="#a27059" d="M0 0h2088v1566H0z"/><g filter="url(#b)" transform="translate(4 4) scale(8.15625)" fill-opacity=".5"><path fill="#2a0d0a" d="M65-16l-75 223L184 17z"/><ellipse fill="#f2ffff" rx="1" ry="1" transform="matrix(44.27747 110.70157 -24.43653 9.77391 159.2 166.5)"/><ellipse fill="#120000" cx="79" cy="151" rx="55" ry="38"/><ellipse fill="#ffe483" rx="1" ry="1" transform="matrix(54.5199 -48.00419 18.6471 21.1781 218.9 50.5)"/><ellipse fill="#ffbb74" rx="1" ry="1" transform="rotate(-87.6 38.3 21.6) scale(64.2112 27.73338)"/><ellipse fill="#fff" rx="1" ry="1" transform="rotate(127.4 30.1 125.2) scale(53.06347 20.08365)"/><ellipse fill="#ff8053" rx="1" ry="1" transform="rotate(-105.5 187.5 -1.7) scale(86.20312 36.84981)"/><path fill="#f2ffff" d="M18.6 207h39.3l-33.2-56.8-8.2-6.7z"/></g></svg>