<svg xmlns="http://www.w3.org/2000/svg" viewBox="0 0 3024 4032"><filter id="b"><feGaussianBlur stdDeviation="12" /></filter><path fill="#a28c79" d="M0 0h3024v4032H0z"/><g filter="url(#b)" transform="translate(7.9 7.9) scale(15.75)" fill-opacity=".5"><ellipse fill="#2d0000" rx="1" ry="1" transform="matrix(-36.8535 11.47859 -22.01166 -70.67132 90.5 96.8)"/><ellipse rx="1" ry="1" transform="rotate(-114.3 22.5 16.2) scale(48.82198 29.98217)"/><ellipse fill="#ffffe5" rx="1" ry="1" transform="rotate(117.6 -28 72.7) scale(43.93466 33.22451)"/><path fill="#f5e6c3" d="M54 206l127 65 17-126z"/><ellipse fill="#e8e4d2" cx="153" cy="49" rx="28" ry="74"/><ellipse fill="#ffffed" rx="1" ry="1" transform="matrix(3.50312 18.44022 -59.39616 11.2836 85.5 8.1)"/><ellipse fill="#ffffd6" rx="1" ry="1" transform="matrix(-35.3709 -104.27585 24.72613 -8.38723 0 211)"/><path fill="#070000" d="M71.5 194.6l-36.8 18-16.2-33.2 36.8-18z"/></g></svg>