<svg xmlns="http://www.w3.org/2000/svg" viewBox="0 0 3264 2448"><filter id="b"><feGaussianBlur stdDeviation="12" /></filter><path fill="#a58945" d="M0 0h3264v2448H0z"/><g filter="url(#b)" transform="translate(6.4 6.4) scale(12.75)" fill-opacity=".5"><ellipse fill="#f8eba5" rx="1" ry="1" transform="matrix(72.81496 -23.45398 14.00565 43.48178 102.5 133.7)"/><ellipse fill="#480f00" rx="1" ry="1" transform="matrix(-39.31982 -20.18747 24.77099 -48.2473 55.2 45.8)"/><path fill="#000043" d="M144.5 208.7l-23-54.3 12-5 23 54.2z"/><ellipse fill="#2a340d" rx="1" ry="1" transform="matrix(-58.2392 -21.72058 5.08006 -13.6211 183.3 80)"/><path fill="#fff" d="M188 28h35v29h-35z"/><ellipse fill="#ffd85b" cx="230" cy="152" rx="23" ry="45"/><path fill="#000017" d="M133 57.8L120 47l31-36.7L164 21z"/><ellipse fill="#ffffc8" cx="163" cy="169" rx="21" ry="21"/></g></svg>