<svg xmlns="http://www.w3.org/2000/svg" viewBox="0 0 3382 2532"><filter id="c"><feGaussianBlur stdDeviation="55" /></filter><path fill="#6f685c" d="M0 0h3382v2523H0z"/><g filter='url(#c)' fill-opacity='.5'><ellipse fill="#fff" fill-opacity=".5" rx="1" ry="1" transform="matrix(3365.38115 151.4936 -12.85016 285.4622 1652.3 48.8)"/><ellipse fill="#fff" fill-opacity=".5" rx="1" ry="1" transform="matrix(-1532.95173 -1489.46201 397.69926 -409.3114 3134.6 6.6)"/><ellipse fill-opacity=".5" rx="1" ry="1" transform="rotate(-26.1 5857.8 -2955.2) scale(1717.95504 473.11919)"/><ellipse fill-opacity=".5" rx="1" ry="1" transform="matrix(999.07348 -123.20714 38.7022 313.83191 1518.7 507.6)"/><ellipse fill="#fff" fill-opacity=".5" rx="1" ry="1" transform="matrix(158.88998 257.84371 -2867.97979 1767.32355 304.6 330.5)"/><path fill="#fff" fill-opacity=".5" d="M2629.3 2603.4l839.8-932.6 520.3 468.5-839.8 932.7z"/><ellipse fill-opacity=".5" rx="1" ry="1" transform="matrix(-444.63552 -558.98346 340.7055 -271.00939 659.6 1705)"/><path fill="#ffffe8" fill-opacity=".5" d="M1335.3 1968.7l27.1-.6L459.2 694l1198.5 990.5z"/></g></svg>