<svg xmlns="http://www.w3.org/2000/svg" viewBox="0 0 3264 2448"><filter id="b"><feGaussianBlur stdDeviation="12" /></filter><path fill="#9a7e4a" d="M0 0h3264v2448H0z"/><g filter="url(#b)" transform="translate(6.4 6.4) scale(12.75)" fill-opacity=".5"><ellipse fill="#ffffbf" rx="1" ry="1" transform="matrix(36.98793 201.5314 -26.34347 4.83493 22.9 142.4)"/><ellipse rx="1" ry="1" transform="rotate(-20.8 218.2 -173.3) scale(56.43949 27.74976)"/><ellipse fill="#050000" rx="1" ry="1" transform="rotate(-112.1 168 25.7) scale(37.42425 228.81146)"/><ellipse fill="#3b1000" rx="1" ry="1" transform="rotate(-2 2628 -4754.1) scale(36.13468 48.04733)"/><ellipse fill="#f3eb7a" rx="1" ry="1" transform="matrix(-44.1002 21.57415 -11.70679 -23.9301 93 117)"/><ellipse fill="#fffeff" rx="1" ry="1" transform="rotate(-115.5 132 -31.7) scale(38.52571 9.49556)"/><ellipse fill="#eebd74" cy="2" rx="201" ry="32"/><path fill="#080000" d="M66 180h138v12H66z"/></g></svg>