<svg xmlns="http://www.w3.org/2000/svg" viewBox="0 0 4032 3024"><filter id="c"><feGaussianBlur stdDeviation="55" /></filter><path fill="#9c8a66" d="M0 0h4032v3024H0z"/><g filter='url(#c)' fill-opacity='.5'><ellipse fill="#fff" fill-opacity=".5" rx="1" ry="1" transform="matrix(-374.1027 -435.99964 2714.0022 -2328.70736 3545.8 2723.1)"/><path fill="#000006" fill-opacity=".5" d="M3299.6 39.4L-7.9-244.1-244 826.9z"/><ellipse fill="#6d4a00" fill-opacity=".5" rx="1" ry="1" transform="matrix(237.06833 -752.29255 665.5975 209.74831 1319.7 1880.9)"/><ellipse fill="#fff" fill-opacity=".5" rx="1" ry="1" transform="matrix(633.98779 495.32555 -247.94327 317.3529 3709.7 101.7)"/><ellipse fill="#d5cfbc" fill-opacity=".5" rx="1" ry="1" transform="rotate(171.9 778 398.1) scale(907.10249 354.95481)"/><ellipse fill="#fbecdd" fill-opacity=".5" rx="1" ry="1" transform="matrix(-397.3193 83.7283 -213.37675 -1012.54526 3634 2037.7)"/><ellipse fill="#4b3300" fill-opacity=".5" rx="1" ry="1" transform="rotate(174.6 1270.4 1053.7) scale(287.61399 661.46511)"/><ellipse fill-opacity=".5" rx="1" ry="1" transform="matrix(521.73093 89.09824 -58.16087 340.57156 2551.4 95.5)"/></g></svg>