<svg xmlns="http://www.w3.org/2000/svg" viewBox="0 0 4032 3024"><filter id="b"><feGaussianBlur stdDeviation="12" /></filter><path fill="#84644c" d="M0 0h4032v3024H0z"/><g filter="url(#b)" transform="translate(7.9 7.9) scale(15.75)" fill-opacity=".5"><ellipse fill="#fffede" rx="1" ry="1" transform="matrix(-24.52405 8.30093 -21.84738 -64.5453 43.5 142.4)"/><ellipse fill="ivory" rx="1" ry="1" transform="matrix(13.52136 7.86962 -25.75247 44.24718 220.8 162.4)"/><ellipse fill="#edd39b" cx="94" cy="164" rx="71" ry="35"/><ellipse fill="#370000" rx="1" ry="1" transform="matrix(127.3603 -103.87253 18.66766 22.8888 19.2 28.8)"/><ellipse fill="#121201" rx="1" ry="1" transform="matrix(-14.04974 -15.25693 48.60539 -44.75954 85.3 82)"/><ellipse fill="#540000" rx="1" ry="1" transform="rotate(100.6 94.9 86.5) scale(18.84759 167.93378)"/><ellipse fill="#312d0c" rx="1" ry="1" transform="rotate(81.5 18.8 152) scale(35.76223 50.12139)"/><ellipse fill="#e2d8c1" rx="1" ry="1" transform="rotate(131.5 8.7 41.7) scale(49.91299 15.12889)"/></g></svg>