<svg xmlns="http://www.w3.org/2000/svg" viewBox="0 0 4032 3024"><filter id="b"><feGaussianBlur stdDeviation="12" /></filter><path fill="#91836b" d="M0 0h4032v3024H0z"/><g filter="url(#b)" transform="translate(7.9 7.9) scale(15.75)" fill-opacity=".5"><ellipse fill="#302f34" cx="22" cy="49" rx="40" ry="51"/><ellipse fill="#efc897" rx="1" ry="1" transform="matrix(-46.90016 -8.5618 16.49289 -90.34542 255 129.4)"/><ellipse fill="#211a16" rx="1" ry="1" transform="matrix(61.92073 2.06198 -.48393 14.53231 126.7 165.8)"/><ellipse fill="#aedafe" rx="1" ry="1" transform="rotate(60.1 31.2 75) scale(38.7678 30.8778)"/><ellipse fill="#3d2403" rx="1" ry="1" transform="matrix(44.91015 -11.86577 3.09372 11.70928 129.7 89.8)"/><path fill="#b8d0ed" d="M286.5 32.7l-149.3-29 6.3-32.4L292.8.3z"/><path fill="#9bd5ff" d="M23 0h102v9H23z"/><path fill="#0d2a05" d="M21 16h44v23H21z"/></g></svg>