<svg xmlns="http://www.w3.org/2000/svg" viewBox="0 0 2742 2746"><filter id="b"><feGaussianBlur stdDeviation="12" /></filter><path fill="#9a8d79" d="M0 0h2746v2746H0z"/><g filter="url(#b)" transform="translate(5.4 5.4) scale(10.72656)" fill-opacity=".5"><ellipse rx="1" ry="1" transform="rotate(101.2 -42.5 78.1) scale(44.96678 28.37382)"/><ellipse fill="#fff" rx="1" ry="1" transform="rotate(38 -27.9 403.9) scale(47.10563 69.20156)"/><ellipse fill="#49383a" cx="131" cy="217" rx="69" ry="69"/><ellipse fill="#250000" rx="1" ry="1" transform="matrix(-44.33202 -31.37498 14.93098 -21.09708 255 196.9)"/><path fill="#ffd" d="M53 180.6l5-98.8 31 1.6-5.2 98.8z"/><ellipse fill="#edeec1" rx="1" ry="1" transform="rotate(-174 61.5 29.2) scale(109.63122 15.33956)"/><ellipse fill="#ffc2a0" rx="1" ry="1" transform="matrix(52.63652 54.01699 -13.92652 13.57061 213.2 218.9)"/><ellipse fill="#f8f0f2" rx="1" ry="1" transform="rotate(-76.2 106.2 -121.8) scale(15.20552 134.0527)"/></g></svg>