<svg xmlns="http://www.w3.org/2000/svg" viewBox="0 0 4032 3024"><filter id="b"><feGaussianBlur stdDeviation="12" /></filter><path fill="#453a2d" d="M0 0h4032v3024H0z"/><g filter="url(#b)" transform="translate(7.9 7.9) scale(15.75)" fill-opacity=".5"><ellipse fill="#ffec93" rx="1" ry="1" transform="matrix(-54.1571 -28.34737 21.88247 -41.80604 136.6 100.9)"/><ellipse rx="1" ry="1" transform="matrix(170.20209 -20.55746 3.41265 28.2545 188.8 180.9)"/><ellipse fill="#cac6c1" rx="1" ry="1" transform="matrix(25.31772 -9.3151 14.5677 39.59387 5.7 176.3)"/><ellipse rx="1" ry="1" transform="rotate(-158.5 97 -6) scale(147.43001 44.80708)"/><ellipse fill="#000001" rx="1" ry="1" transform="rotate(145.7 11.4 76.4) scale(34.92497 54.52484)"/><ellipse fill="#faa360" rx="1" ry="1" transform="matrix(-24.65295 47.35787 -26.36088 -13.7226 140.3 117.2)"/><ellipse fill="#000505" rx="1" ry="1" transform="matrix(22.17143 17.01273 -104.66122 136.39716 201.5 170.4)"/><ellipse fill="#fdb66c" cx="136" cy="84" rx="56" ry="21"/></g></svg>