<svg xmlns="http://www.w3.org/2000/svg" viewBox="0 0 4032 3024"><filter id="b"><feGaussianBlur stdDeviation="12" /></filter><path fill="#aa9880" d="M0 0h4032v3024H0z"/><g filter="url(#b)" transform="translate(7.9 7.9) scale(15.75)" fill-opacity=".5"><ellipse fill="#752c00" rx="1" ry="1" transform="matrix(4.9871 -35.83919 68.0121 9.46405 132 108)"/><path fill="#191003" d="M40.2 172.7l129.4 7.7L271 196.2 49.7 207z"/><ellipse fill="#c8d0cd" rx="1" ry="1" transform="matrix(1.10004 24.79082 -85.18354 3.77984 109.7 46.1)"/><ellipse fill="#dfcbb5" rx="1" ry="1" transform="matrix(-65.37006 -20.86225 15.1075 -47.33804 230.8 72)"/><ellipse fill="#ced3d5" cx="41" cy="112" rx="26" ry="50"/><path fill="#7e4d00" d="M219 112l-113 44-36-82z"/><ellipse fill="#f7e4d8" rx="1" ry="1" transform="matrix(115.91627 -69.63122 9.64838 16.06182 33.6 0)"/><ellipse fill="#000200" rx="1" ry="1" transform="matrix(-8.97029 -16.69925 11.51433 -6.18511 195 0)"/></g></svg>