<svg xmlns="http://www.w3.org/2000/svg" viewBox="0 0 3719 2788"><filter id="b"><feGaussianBlur stdDeviation="12" /></filter><path fill="#726753" d="M0 0h3719v2774H0z"/><g filter="url(#b)" transform="translate(7.3 7.3) scale(14.52734)" fill-opacity=".5"><ellipse fill="#fff" rx="1" ry="1" transform="matrix(1.25525 -16.69429 218.89825 16.45904 114 0)"/><ellipse fill="#fff" rx="1" ry="1" transform="matrix(-152.95727 -28.8954 5.54418 -29.34803 102 186.6)"/><ellipse fill="#2a1700" cx="165" cy="66" rx="150" ry="47"/><ellipse fill="#fff" rx="1" ry="1" transform="matrix(16.71498 12.46766 -97.41279 130.5981 18.7 23.4)"/><ellipse fill="#1a0d00" rx="1" ry="1" transform="matrix(3.46225 -37.7989 142.01967 13.0085 228.6 142.5)"/><ellipse fill="#fff" rx="1" ry="1" transform="matrix(-1.15357 12.6901 -208.11389 -18.91819 133.5 3.7)"/><path d="M0 79h24v81H0z"/><ellipse fill="#fff" rx="1" ry="1" transform="rotate(-170 28.5 89) scale(105.49909 15.77118)"/></g></svg>