<svg xmlns="http://www.w3.org/2000/svg" viewBox="0 0 3137 2350"><filter id="c"><feGaussianBlur stdDeviation="55" /></filter><path fill="#a89479" d="M0 0h3137v2340H0z"/><g filter='url(#c)' fill-opacity='.5'><ellipse fill="#471e00" fill-opacity=".5" rx="1" ry="1" transform="matrix(-478.86795 400.39575 -765.51717 -915.54826 1688 1283.1)"/><ellipse fill="#fff" fill-opacity=".5" rx="1" ry="1" transform="matrix(-871.1228 -592.01445 268.9515 -395.75011 2895.3 467.1)"/><ellipse fill="#ffffef" fill-opacity=".5" rx="1" ry="1" transform="matrix(-383.17712 -345.00396 1159.82461 -1288.15407 324.5 202.1)"/><ellipse fill="#f5f6e0" fill-opacity=".5" rx="1" ry="1" transform="rotate(62.7 -1482.8 1403.5) scale(688.87542 665.52266)"/><ellipse fill="#ba7d39" fill-opacity=".5" rx="1" ry="1" transform="matrix(-196.6003 261.44056 -917.89104 -690.24353 2086.4 822.8)"/><ellipse fill="#ede9e0" fill-opacity=".5" rx="1" ry="1" transform="matrix(-594.89592 1203.21514 -219.03407 -108.29524 2990 1877.3)"/><ellipse fill="#3b3221" fill-opacity=".5" rx="1" ry="1" transform="matrix(562.80988 -454.70208 149.6526 185.23328 2469 1609.8)"/><path fill="#4f341b" fill-opacity=".5" d="M888.4 324.7l759.8 1936.1 882.2-404.3z"/></g></svg>