<svg xmlns="http://www.w3.org/2000/svg" viewBox="0 0 4032 3024"><filter id="b"><feGaussianBlur stdDeviation="12" /></filter><path fill="#81705a" d="M0 0h4032v3024H0z"/><g filter="url(#b)" transform="translate(7.9 7.9) scale(15.75)" fill-opacity=".5"><ellipse fill="#ffffca" rx="1" ry="1" transform="rotate(-102.6 153.2 9.8) scale(23.81387 76.83862)"/><ellipse fill="#fff7cb" rx="1" ry="1" transform="matrix(-46.14943 -30.10571 11.82224 -18.12247 201 79.1)"/><ellipse fill="#1d0c00" cx="109" cy="106" rx="42" ry="42"/><ellipse fill="#000214" rx="1" ry="1" transform="matrix(10.10642 15.11384 -62.15624 41.56303 47.9 57.7)"/><ellipse fill="#000009" rx="1" ry="1" transform="rotate(95.3 67 86.9) scale(13.53955 69.14211)"/><ellipse fill="#00000d" rx="1" ry="1" transform="matrix(50.42098 52.4962 -10.10143 9.70211 20.5 135)"/><ellipse fill="#fff5cd" rx="1" ry="1" transform="matrix(-38.67468 -21.42263 5.85268 -10.56596 74.4 158)"/><ellipse fill="#ffbb5a" rx="1" ry="1" transform="matrix(-170.34137 31.45679 -3.05863 -16.56278 35.2 10.7)"/></g></svg>