<svg xmlns="http://www.w3.org/2000/svg" viewBox="0 0 4032 3024"><filter id="c"><feGaussianBlur stdDeviation="55" /></filter><path fill="#736553" d="M0 0h4032v3024H0z"/><g filter='url(#c)' fill-opacity='.5'><ellipse fill="#f0d5aa" fill-opacity=".5" rx="1" ry="1" transform="matrix(553.42082 -695.31468 1216.75445 968.44963 1844 1773.4)"/><ellipse fill-opacity=".5" rx="1" ry="1" transform="matrix(1728.00174 911.07197 -296.21849 561.82836 388.9 2635.5)"/><ellipse fill-opacity=".5" rx="1" ry="1" transform="rotate(-162 1455.1 -188.8) scale(3849.23393 665.68418)"/><ellipse fill="#fff" fill-opacity=".5" rx="1" ry="1" transform="rotate(155.3 192.9 135.3) scale(1174.75377 208.78033)"/><ellipse fill-opacity=".5" rx="1" ry="1" transform="matrix(-505.97671 2078.54315 -315.20101 -76.72892 3876 2397.7)"/><ellipse fill="#ecf6ff" fill-opacity=".5" rx="1" ry="1" transform="rotate(-137.5 1594.7 820.8) scale(667.61243 484.0834)"/><ellipse fill-opacity=".5" rx="1" ry="1" transform="matrix(-980.18103 483.5097 -95.5538 -193.70869 710.5 500)"/><ellipse fill="#ffd385" fill-opacity=".5" rx="1" ry="1" transform="matrix(249.18382 191.15345 -239.85517 312.6704 3004.1 1259.8)"/></g></svg>