<svg xmlns="http://www.w3.org/2000/svg" viewBox="0 0 4032 3024"><filter id="c"><feGaussianBlur stdDeviation="55" /></filter><path fill="#906e4c" d="M0 0h4032v3024H0z"/><g filter='url(#c)' fill-opacity='.5'><ellipse fill="#fff" fill-opacity=".5" rx="1" ry="1" transform="rotate(138.2 1846.1 983.4) scale(561.38835 2437.26396)"/><ellipse fill="#501c00" fill-opacity=".5" rx="1" ry="1" transform="matrix(1451.47891 1005.6439 -394.46628 569.34615 2771.7 1241.4)"/><ellipse fill="#fff" fill-opacity=".5" rx="1" ry="1" transform="rotate(-103.4 310.3 -186.6) scale(290.98149 1163.56933)"/><path fill="#fff" fill-opacity=".5" d="M3506.7 3559l-480-432 758.9-842.8 479.9 432.1zM526.1 2612l-446 198.5-275.5-618.7 446-198.6z"/><ellipse fill="#e38523" fill-opacity=".5" rx="1" ry="1" transform="rotate(28.8 -2588 4679.3) scale(1014.95632 953.13716)"/><ellipse fill="#4e1600" fill-opacity=".5" rx="1" ry="1" transform="rotate(122 244 713.9) scale(884.85461 368.05296)"/><path fill="#000007" fill-opacity=".5" d="M2039.6 3268.1l-1559.2-1008-31.5 582.8z"/></g></svg>