<svg xmlns="http://www.w3.org/2000/svg" viewBox="0 0 4032 3024"><filter id="c"><feGaussianBlur stdDeviation="55" /></filter><path fill="#a18569" d="M0 0h4032v3024H0z"/><g filter='url(#c)' fill-opacity='.5'><ellipse fill-opacity=".5" rx="1" ry="1" transform="matrix(-253.92762 371.78416 -1421.69614 -971.01478 3539.4 13.5)"/><ellipse fill="#e7dcc0" fill-opacity=".5" rx="1" ry="1" transform="matrix(-60.69146 508.97387 -1817.68128 -216.74537 1102.8 1230.9)"/><ellipse fill="#230f00" fill-opacity=".5" rx="1" ry="1" transform="rotate(138.3 1031.2 1566.8) scale(1069.58351 308.19883)"/><ellipse fill="#fffade" fill-opacity=".5" rx="1" ry="1" transform="matrix(372.28979 191.33096 -867.70681 1688.37485 3912.1 2193.5)"/><ellipse fill="#480800" fill-opacity=".5" rx="1" ry="1" transform="matrix(701.64876 -119.93502 67.57792 395.34713 986.9 2153.3)"/><ellipse fill="#fffff9" fill-opacity=".5" rx="1" ry="1" transform="matrix(-51.96485 264.86706 -3941.1166 -773.21633 1100.4 3017.3)"/><ellipse fill="#2e0100" fill-opacity=".5" rx="1" ry="1" transform="matrix(-23.85003 -234.7992 798.47454 -81.10609 1688 458.8)"/><path fill="#100000" fill-opacity=".5" d="M23.8 632.6l-225.4-360.7 414-258.7 225.4 360.6z"/></g></svg>