<svg xmlns="http://www.w3.org/2000/svg" viewBox="0 0 3264 2448"><filter id="b"><feGaussianBlur stdDeviation="12" /></filter><path fill="#514432" d="M0 0h3264v2448H0z"/><g filter="url(#b)" transform="translate(6.4 6.4) scale(12.75)" fill-opacity=".5"><ellipse fill="#ffc67f" rx="1" ry="1" transform="matrix(1.65631 55.80703 -75.22147 2.23252 131.1 74.5)"/><ellipse rx="1" ry="1" transform="matrix(-68.64333 41.7358 -19.50098 -32.07348 181.6 172.7)"/><ellipse rx="1" ry="1" transform="matrix(26.2249 45.24033 -186.44098 108.07606 11.2 11)"/><ellipse fill="#000008" rx="1" ry="1" transform="matrix(65.74125 -18.69097 12.9141 45.42245 63.4 170.9)"/><ellipse fill="#ffc386" rx="1" ry="1" transform="rotate(85.2 7.6 111.7) scale(30.87174 51.1215)"/><ellipse rx="1" ry="1" transform="rotate(177.3 104.5 79) scale(32.20196 47.65096)"/><ellipse fill="#b19a7a" cx="149" cy="129" rx="30" ry="21"/><ellipse rx="1" ry="1" transform="rotate(-128.9 120.5 -6.6) scale(5.68481 41.14128)"/></g></svg>