<svg xmlns="http://www.w3.org/2000/svg" viewBox="0 0 2945 2208"><filter id="c"><feGaussianBlur stdDeviation="55" /></filter><path fill="#9e845a" d="M0 0h2945v2197H0z"/><g filter='url(#c)' fill-opacity='.5'><ellipse fill="#fffff9" fill-opacity=".5" rx="1" ry="1" transform="matrix(188.33642 163.2402 -654.39536 755.0008 2238.5 1680.3)"/><ellipse fill="#fff" fill-opacity=".5" rx="1" ry="1" transform="rotate(-21.6 1994 -6564.8) scale(254.96403 743.08621)"/><ellipse fill="#050000" fill-opacity=".5" rx="1" ry="1" transform="rotate(-114.9 196 -15.5) scale(281.83152 1469.10737)"/><ellipse fill="#464009" fill-opacity=".5" rx="1" ry="1" transform="matrix(-13.1236 -442.18022 1044.01186 -30.98555 1258.4 1351)"/><ellipse fill="#fffbdf" fill-opacity=".5" rx="1" ry="1" transform="matrix(34.2825 232.16063 -1595.72253 235.6358 755.7 2169.3)"/><ellipse fill="#370000" fill-opacity=".5" rx="1" ry="1" transform="matrix(232.65669 188.40167 -880.66377 1087.5292 2650 2079)"/><ellipse fill="#1c0000" fill-opacity=".5" rx="1" ry="1" transform="matrix(265.7471 .24845 -.14927 159.6632 1665 71.2)"/><path fill="#232c00" fill-opacity=".5" d="M581 1719.8h276V2088H581z"/></g></svg>