<svg xmlns="http://www.w3.org/2000/svg" viewBox="0 0 4032 3024"><filter id="b"><feGaussianBlur stdDeviation="12" /></filter><path fill="#946b46" d="M0 0h4032v3024H0z"/><g filter="url(#b)" transform="translate(7.9 7.9) scale(15.75)" fill-opacity=".5"><ellipse fill="#ffe8ab" cx="59" cy="92" rx="36" ry="205"/><path d="M305.3 43.4l-45.2 38-69.4-82.8 45.2-38z"/><ellipse rx="1" ry="1" transform="matrix(-17.38439 -14.51635 119.80149 -143.471 245.6 163.2)"/><ellipse fill="#4a0e0d" rx="1" ry="1" transform="matrix(34.69614 66.76046 -15.11779 7.85688 103.5 143.6)"/><ellipse fill="#38420a" rx="1" ry="1" transform="matrix(-26.00288 -19.73726 29.9904 -39.51089 179.2 113.5)"/><path fill="#420000" d="M201 10.7L103 35 93-4.7 191-29z"/><path fill="#ffe4a7" d="M251 106l-68-93 51 29z"/><ellipse fill="#fff2b8" rx="1" ry="1" transform="matrix(12.5961 -35.37397 7.60377 2.70758 234.2 123.2)"/></g></svg>