<svg xmlns="http://www.w3.org/2000/svg" viewBox="0 0 4032 3024"><filter id="b"><feGaussianBlur stdDeviation="12" /></filter><path fill="#a29687" d="M0 0h4032v3024H0z"/><g filter="url(#b)" transform="translate(7.9 7.9) scale(15.75)" fill-opacity=".5"><ellipse rx="1" ry="1" transform="rotate(80.9 50.6 90.3) scale(85.41219 52.55306)"/><ellipse fill="#fffde4" rx="1" ry="1" transform="matrix(83.74574 46.80391 -28.04159 50.17451 94.6 172.6)"/><path fill="#f6eddf" d="M271 169l-61 20-18-155z"/><ellipse cx="31" cy="3" rx="51" ry="7"/><ellipse fill="#502702" rx="1" ry="1" transform="matrix(-24.50764 -29.53858 14.70395 -12.1996 179.7 148.8)"/><path fill="#fff0e4" d="M5 101.2l21.5-10 28.7-76.4-42.5-6.1z"/><path fill="#0d0802" d="M25.6 113.5L87 75.9l-42.2-13-5 42z"/><path fill="#14100d" d="M105 11h98v36h-98z"/></g></svg>