<svg xmlns="http://www.w3.org/2000/svg" viewBox="0 0 4032 3024"><filter id="b"><feGaussianBlur stdDeviation="12" /></filter><path fill="#cdb9a2" d="M0 0h4032v3024H0z"/><g filter="url(#b)" transform="translate(7.9 7.9) scale(15.75)" fill-opacity=".5"><ellipse fill="#5a1200" rx="1" ry="1" transform="rotate(73.3 -51.5 107.2) scale(55.15001 64.22201)"/><ellipse fill="#fff" cx="73" cy="21" rx="255" ry="44"/><ellipse fill="#fff" rx="1" ry="1" transform="rotate(-100.9 184.4 2.4) scale(57.53093 98.50887)"/><ellipse fill="#7b5a3c" rx="1" ry="1" transform="rotate(-141.9 101.7 16.5) scale(27.87553 35.59139)"/><ellipse fill="#fff" rx="1" ry="1" transform="rotate(149.2 5.6 25.5) scale(124.00655 34.39543)"/><path d="M136.8 5.4L126.2 27l-9-4.4L127.8 1z"/><ellipse fill="#5a2d0a" rx="1" ry="1" transform="matrix(-9.5787 -9.25005 25.1177 -26.01013 68.4 163.3)"/><ellipse fill="#fff" rx="1" ry="1" transform="matrix(-12.64712 1.83254 -9.2776 -64.02846 255 95.4)"/></g></svg>