<svg xmlns="http://www.w3.org/2000/svg" viewBox="0 0 3382 2532"><filter id="c"><feGaussianBlur stdDeviation="55" /></filter><path fill="#6f685c" d="M0 0h3382v2523H0z"/><g filter='url(#c)' fill-opacity='.5'><ellipse fill="#fff" fill-opacity=".5" rx="1" ry="1" transform="matrix(-157.86203 320.818 -2722.13857 -1339.45823 2878.3 157.8)"/><ellipse fill="#fff" fill-opacity=".5" rx="1" ry="1" transform="rotate(-15 497.5 -3591.2) scale(2557.64901 319.4162)"/><ellipse fill-opacity=".5" rx="1" ry="1" transform="matrix(148.6843 429.37465 -1177.52872 407.75588 2112 2148.5)"/><ellipse fill="#fff" fill-opacity=".5" rx="1" ry="1" transform="matrix(-1303.10874 1234.02091 -236.29773 -249.52708 3375.4 2290.4)"/><ellipse fill-opacity=".5" rx="1" ry="1" transform="matrix(-286.02136 192.74423 -401.49837 -595.8005 760.2 1684.6)"/><ellipse fill="#130b01" fill-opacity=".5" rx="1" ry="1" transform="matrix(1069.9762 -47.5089 17.75 399.75856 1657.8 570.1)"/><path fill="#fff" fill-opacity=".5" d="M3396.6 994.9L2110.4-123.2l424.7-488.5 1286.2 1118z"/><ellipse fill="#000301" fill-opacity=".5" rx="1" ry="1" transform="rotate(69.9 686.9 2697.4) scale(693.10184 289.27255)"/></g></svg>