<svg xmlns="http://www.w3.org/2000/svg" viewBox="0 0 2592 1936"><filter id="b"><feGaussianBlur stdDeviation="12" /></filter><path fill="#9a877b" d="M0 0h2592v1933H0z"/><g filter="url(#b)" transform="translate(5 5) scale(10.125)" fill-opacity=".5"><ellipse fill="#270400" rx="1" ry="1" transform="matrix(-24.6793 90.83495 -31.26114 -8.49346 225.4 110.9)"/><ellipse fill="#fffff9" rx="1" ry="1" transform="matrix(-80.88747 139.86725 -18.98232 -10.97778 145.8 149.4)"/><ellipse fill="#fff" cx="14" cy="152" rx="39" ry="87"/><ellipse fill="#290703" rx="1" ry="1" transform="matrix(-12.74633 -63.78916 18.63495 -3.72363 51 40.2)"/><ellipse fill="#190000" cx="76" cy="154" rx="24" ry="30"/><ellipse fill="#270000" rx="1" ry="1" transform="matrix(22.40023 -4.99453 5.97498 26.79748 128.4 96.8)"/><path fill="#fff" d="M63 4l47 63-11 66z"/><ellipse fill="#fffcea" rx="1" ry="1" transform="rotate(-45 291.7 -94.5) scale(25.66851 70.49016)"/></g></svg>