<svg xmlns="http://www.w3.org/2000/svg" viewBox="0 0 4032 3024"><filter id="b"><feGaussianBlur stdDeviation="12" /></filter><path fill="#a79681" d="M0 0h4032v3024H0z"/><g filter="url(#b)" transform="translate(7.9 7.9) scale(15.75)" fill-opacity=".5"><ellipse rx="1" ry="1" transform="rotate(26.8 -340.5 125) scale(133.94833 34.70281)"/><ellipse fill="#fffff2" rx="1" ry="1" transform="matrix(147.99088 85.37042 -26.13216 45.3005 189 39)"/><ellipse fill="#2a2007" rx="1" ry="1" transform="matrix(-21.65779 39.65893 -35.29703 -19.27575 152.6 118.5)"/><ellipse fill="#904605" cx="47" cy="64" rx="70" ry="39"/><ellipse fill="#faf6e7" cx="229" cy="165" rx="54" ry="54"/><ellipse rx="1" ry="1" transform="matrix(-17.61494 -20.77083 32.45763 -27.52607 14.6 0)"/><path fill="#fff" d="M-12.4 107.4L-2.7 90l167 92.6-9.6 17.4z"/><ellipse rx="1" ry="1" transform="matrix(12.48678 -24.08943 133.74519 69.32692 41.4 171.8)"/></g></svg>