<svg xmlns="http://www.w3.org/2000/svg" viewBox="0 0 3264 2448"><filter id="b"><feGaussianBlur stdDeviation="12" /></filter><path fill="#726055" d="M0 0h3264v2448H0z"/><g filter="url(#b)" transform="translate(6.4 6.4) scale(12.75)" fill-opacity=".5"><ellipse fill="#fff" rx="1" ry="1" transform="rotate(-102 104.1 73.8) scale(34.10166 82.68953)"/><ellipse fill="#fff" rx="1" ry="1" transform="matrix(24.66809 -17.48234 48.02854 67.76968 255 33.7)"/><ellipse fill="#fff" rx="1" ry="1" transform="matrix(-22.92052 -6.05792 8.98148 -33.98198 248.7 165.5)"/><ellipse fill="#230800" rx="1" ry="1" transform="matrix(10.25571 59.96898 -143.80278 24.59272 82.7 84.5)"/><ellipse fill="#fff" cx="45" cy="179" rx="91" ry="17"/><ellipse fill="#fff" rx="1" ry="1" transform="matrix(-32.59121 17.1834 -31.66883 -60.06529 255 17.7)"/><path fill="#fff" d="M-11 42.3l2-38 26 1.4-2 38zM71 4l22 27 7-28z"/></g></svg>