<svg xmlns="http://www.w3.org/2000/svg" viewBox="0 0 3264 2448"><filter id="b"><feGaussianBlur stdDeviation="12" /></filter><path fill="#514432" d="M0 0h3264v2448H0z"/><g filter="url(#b)" transform="translate(6.4 6.4) scale(12.75)" fill-opacity=".5"><ellipse fill="#ffc67f" rx="1" ry="1" transform="rotate(-91.8 102 -26.9) scale(55.51643 75.74801)"/><ellipse rx="1" ry="1" transform="matrix(18.46224 31.71656 -66.19051 38.52957 185.5 169.8)"/><ellipse rx="1" ry="1" transform="matrix(158.03772 -105.27159 24.2195 36.35924 44.4 1.5)"/><ellipse fill="#000009" cx="70" cy="177" rx="75" ry="52"/><ellipse fill="#ffc587" cx="118" cy="95" rx="50" ry="32"/><path d="M251 59l-34-1-48 49z"/><path fill="#afae87" d="M175.3 140l-18 12.4-33.2-8.5 74.2-42z"/><ellipse rx="1" ry="1" transform="matrix(-34.84712 -.9125 1.20389 -45.97462 212 151.2)"/></g></svg>