<svg xmlns="http://www.w3.org/2000/svg" viewBox="0 0 3264 2448"><filter id="c"><feGaussianBlur stdDeviation="55" /></filter><path fill="#a36335" d="M0 0h3264v2448H0z"/><g filter='url(#c)' fill-opacity='.5'><path fill="#000085" fill-opacity=".5" d="M1867.9 2543.6l1402.5 102L3461.6 1511z"/><ellipse fill="#ffe438" fill-opacity=".5" rx="1" ry="1" transform="matrix(34.75937 -354.50351 857.48228 84.07687 1432.2 827.9)"/><ellipse fill="#ecfad1" fill-opacity=".5" rx="1" ry="1" transform="matrix(2396.85624 881.87139 -118.30722 321.5496 2540.2 6.9)"/><ellipse fill="#c6e3c8" fill-opacity=".5" rx="1" ry="1" transform="matrix(-1901.40677 402.99006 -52.66278 -248.476 697.5 39)"/><ellipse fill="#b31200" fill-opacity=".5" rx="1" ry="1" transform="rotate(108.7 -10 1225.2) scale(558.42996 1104.01041)"/><ellipse fill="#1e46aa" fill-opacity=".5" rx="1" ry="1" transform="matrix(317.63598 -359.14027 1403.30269 1241.12906 180.5 2280.5)"/><ellipse fill="#003da8" fill-opacity=".5" rx="1" ry="1" transform="matrix(-457.53072 528.18791 -152.43672 -132.04483 125.4 747.3)"/><path fill="#0a5db6" fill-opacity=".5" d="M3461.6 1753.1l-867-1504.5 867 535.5z"/></g></svg>