<svg xmlns="http://www.w3.org/2000/svg" viewBox="0 0 4032 3024"><filter id="b"><feGaussianBlur stdDeviation="12" /></filter><path fill="#644e35" d="M0 0h4032v3024H0z"/><g filter="url(#b)" transform="translate(7.9 7.9) scale(15.75)" fill-opacity=".5"><ellipse fill="#ffd97d" rx="1" ry="1" transform="matrix(-70.63417 -46.57465 33.32397 -50.53845 115.8 94.1)"/><ellipse fill="#000005" rx="1" ry="1" transform="rotate(-133.3 118 -17.3) scale(229.09814 38.47233)"/><ellipse rx="1" ry="1" transform="matrix(38.50586 252.07598 -42.35544 6.47 0 94.1)"/><path fill="#000009" d="M260 205l7-98-201 93z"/><ellipse rx="1" ry="1" transform="matrix(-2.12861 -17.58991 116.10797 -14.0506 74.6 0)"/><path fill="#fff" d="M153.2 147.8l4.7 11-69 29.4-4.8-11z"/><ellipse fill="#8e3e03" rx="1" ry="1" transform="matrix(8.98966 21.85336 -37.70574 15.51075 94.3 150.2)"/><ellipse fill="#d8d6e1" cx="255" cy="16" rx="24" ry="18"/></g></svg>