<svg xmlns="http://www.w3.org/2000/svg" viewBox="0 0 2227 1663"><filter id="b"><feGaussianBlur stdDeviation="12" /></filter><path fill="#6e6250" d="M0 0h2227v1661H0z"/><g filter="url(#b)" transform="translate(4.3 4.3) scale(8.69922)" fill-opacity=".5"><ellipse fill="#ffffb9" rx="1" ry="1" transform="matrix(201.33642 -1.18316 .07583 12.90463 188.8 18.6)"/><ellipse fill="#e8e7a3" rx="1" ry="1" transform="matrix(-9.70402 -62.5159 24.41232 -3.7894 131.5 107.7)"/><ellipse fill="#041112" cx="209" cy="61" rx="79" ry="30"/><ellipse fill="#dbf1ff" cx="241" cy="185" rx="39" ry="21"/><ellipse fill="#090914" rx="1" ry="1" transform="matrix(1.37003 20.68167 -87.7685 5.8141 14.9 52)"/><ellipse fill="#1c1517" rx="1" ry="1" transform="matrix(21.47225 1.09505 -2.65309 52.02317 84.8 139.2)"/><ellipse fill="#ffffc1" rx="1" ry="1" transform="matrix(28.58933 1.36562 -.61653 12.90702 141.7 94.4)"/><ellipse fill="#4e2029" cx="209" cy="119" rx="49" ry="49"/></g></svg>