<svg xmlns="http://www.w3.org/2000/svg" viewBox="0 0 4032 3024"><filter id="b"><feGaussianBlur stdDeviation="12" /></filter><path fill="#aa8967" d="M0 0h4032v3024H0z"/><g filter="url(#b)" transform="translate(7.9 7.9) scale(15.75)" fill-opacity=".5"><ellipse fill="#edfcfd" rx="1" ry="1" transform="matrix(-166.24784 153.40909 -25.94222 -28.11331 176.1 169.2)"/><ellipse fill="#834300" cx="108" cy="98" rx="68" ry="68"/><path d="M54.4 193L24 223.4-54.4 145l30.4-30.4z"/><ellipse fill="#f5faff" rx="1" ry="1" transform="matrix(-14.34145 -16.36489 54.88883 -48.10208 43.8 57.3)"/><ellipse fill="#270000" rx="1" ry="1" transform="matrix(-59.47687 70.4859 -19.201 -16.20204 29.8 2.8)"/><path d="M271 207v-73l-72 70z"/><ellipse fill="#fffffd" rx="1" ry="1" transform="rotate(-56.9 188 33.3) scale(14.32924 54.1045)"/><ellipse fill="#b1720a" rx="1" ry="1" transform="matrix(13.64146 12.31822 -26.21602 29.0322 58.5 66.8)"/></g></svg>