<svg xmlns="http://www.w3.org/2000/svg" viewBox="0 0 4032 3024"><filter id="b"><feGaussianBlur stdDeviation="12" /></filter><path fill="#7a5d45" d="M0 0h4032v3024H0z"/><g filter="url(#b)" transform="translate(7.9 7.9) scale(15.75)" fill-opacity=".5"><ellipse fill="#ffffd1" rx="1" ry="1" transform="matrix(56.4442 -14.87673 3.76927 14.3011 83.2 129)"/><ellipse fill="#c9d6e1" rx="1" ry="1" transform="rotate(96.4 95.8 98.8) scale(15.33795 95.21793)"/><ellipse fill="#000002" rx="1" ry="1" transform="rotate(19.7 -217 37.7) scale(30.84025 213.57053)"/><ellipse fill="#140f04" rx="1" ry="1" transform="matrix(9.88293 21.47223 -106.08217 48.82596 132.2 180.2)"/><path fill="#fffff9" d="M66 84l-26-3-11 44z"/><ellipse fill="#f9deb6" rx="1" ry="1" transform="rotate(61.8 3 94) scale(16.11475 26.3518)"/><ellipse fill="#fffcd0" cx="135" cy="102" rx="15" ry="15"/><path fill="#ffffd2" d="M73 86l38 7 6-25z"/></g></svg>