<svg xmlns="http://www.w3.org/2000/svg" viewBox="0 0 4032 3024"><filter id="b"><feGaussianBlur stdDeviation="12" /></filter><path fill="#a69681" d="M0 0h4032v3024H0z"/><g filter="url(#b)" transform="translate(7.9 7.9) scale(15.75)" fill-opacity=".5"><ellipse fill="#0d0000" rx="1" ry="1" transform="matrix(-47.9174 28.11297 -19.89952 -33.91792 119.5 88.7)"/><ellipse fill="#eddfcb" rx="1" ry="1" transform="matrix(15.0005 61.53456 -108.17831 26.37103 137.5 191.1)"/><ellipse rx="1" ry="1" transform="matrix(-.61756 8.32628 -100.78986 -7.47554 64.2 0)"/><ellipse fill="#d5d5d5" rx="1" ry="1" transform="matrix(44.92868 48.05462 -30.14444 28.18356 229.2 80)"/><ellipse fill="#3e290b" cx="128" cy="171" rx="42" ry="9"/><ellipse fill="#fffff5" cx="110" cy="24" rx="28" ry="16"/><path fill="#080d08" d="M32 135l32 8-14-49z"/><path fill="#121209" d="M77.5-14.3l17.2 5.2-24.2 79.4-17.2-5.2z"/></g></svg>