<svg xmlns="http://www.w3.org/2000/svg" viewBox="0 0 3024 3024"><filter id="b"><feGaussianBlur stdDeviation="12" /></filter><path fill="#966e41" d="M0 0h3024v3024H0z"/><g filter="url(#b)" transform="translate(6 6) scale(11.8125)" fill-opacity=".5"><ellipse rx="1" ry="1" transform="matrix(41.89853 .73071 -2.349 134.68966 228 83.7)"/><ellipse fill="#daa260" cx="41" cy="67" rx="155" ry="155"/><ellipse fill="#fde5a4" rx="1" ry="1" transform="matrix(-65.34874 -46.79453 10.65377 -14.87803 105.4 219)"/><path fill="#ffefa4" d="M49 174l71-95-105 33z"/><ellipse fill="#000004" cx="234" cy="37" rx="35" ry="151"/><ellipse fill="#7d5935" rx="1" ry="1" transform="rotate(149.7 39.4 93.2) scale(61.48473 44.59274)"/><path fill="#0a0000" d="M-25.9 254.8l.9-16 84.9 4.4-.9 16z"/><ellipse fill="#9d5a23" rx="1" ry="1" transform="matrix(44.46426 -10.58637 6.84498 28.7499 175.2 81.8)"/></g></svg>