<svg xmlns="http://www.w3.org/2000/svg" viewBox="0 0 3024 3024"><filter id="b"><feGaussianBlur stdDeviation="12" /></filter><path fill="#b1844b" d="M0 0h3024v3024H0z"/><g filter="url(#b)" transform="translate(6 6) scale(11.8125)" fill-opacity=".5"><path fill="#793600" d="M-16 271l185-42 20-245z"/><ellipse fill="#fcf1ed" rx="1" ry="1" transform="matrix(-40.70284 -32.55405 159.27272 -199.14115 228.7 205)"/><path fill="#faebde" d="M-44.8 245l31-253.1L44.9-1l-31 253.1z"/><ellipse fill="#fbe2c8" rx="1" ry="1" transform="matrix(25.17078 -6.32619 58.48947 232.71912 235.1 24.8)"/><ellipse fill="#824100" rx="1" ry="1" transform="rotate(-166 102.5 43.7) scale(26.53866 75.8887)"/><ellipse fill="#7d3f00" cx="78" cy="202" rx="62" ry="62"/><ellipse fill="#f4d6be" rx="1" ry="1" transform="rotate(94.1 51.1 47.6) scale(17.64561 124.25366)"/><ellipse fill="#ab7107" rx="1" ry="1" transform="rotate(-150.6 66.1 33) scale(53.41126 98.68102)"/></g></svg>