<svg xmlns="http://www.w3.org/2000/svg" viewBox="0 0 4032 3024"><filter id="b"><feGaussianBlur stdDeviation="12" /></filter><path fill="#926842" d="M0 0h4032v3024H0z"/><g filter="url(#b)" transform="translate(7.9 7.9) scale(15.75)" fill-opacity=".5"><ellipse fill="#fffffa" cx="29" cy="132" rx="57" ry="33"/><ellipse fill="#070000" rx="1" ry="1" transform="rotate(93.1 -14.9 163.2) scale(13.63683 255.00002)"/><path fill="#430001" d="M271 181L209 50l-24 157z"/><path fill="ivory" d="M143 9.3L293.6 36 291 50.7 140.4 24z"/><ellipse fill="#ffffdb" rx="1" ry="1" transform="matrix(-54.4736 32.00368 -5.00857 -8.52511 93.4 94.6)"/><path fill="#fff" d="M64 142l94 33-48 1z"/><path fill="#ffffc5" d="M199.9 125.7l-19-34.3-24 86.6 35.4-23.8z"/><ellipse rx="1" ry="1" transform="matrix(5.44211 12.38589 -26.59254 11.68423 65.3 83.9)"/></g></svg>