<svg xmlns="http://www.w3.org/2000/svg" viewBox="0 0 3264 2448"><filter id="b"><feGaussianBlur stdDeviation="12" /></filter><path fill="#a89486" d="M0 0h3264v2448H0z"/><g filter="url(#b)" transform="translate(6.4 6.4) scale(12.75)" fill-opacity=".5"><ellipse fill="#1f0000" rx="1" ry="1" transform="matrix(26.60739 -64.75948 80.84884 33.21794 125.5 95)"/><ellipse fill="#fff" rx="1" ry="1" transform="matrix(58.22947 248.26262 -36.92994 8.66184 234.6 69.9)"/><ellipse fill="#fff" rx="1" ry="1" transform="matrix(61.5212 -159.43593 29.33481 11.31936 26.3 16.7)"/><ellipse fill="#fff" rx="1" ry="1" transform="matrix(-6.18666 25.0229 -115.24617 -28.49346 32.2 175.8)"/><ellipse fill="#fff" rx="1" ry="1" transform="matrix(8.00015 37.00216 -19.01553 4.1113 104.6 0)"/><path fill="#fff" d="M152 5l103-16 16 155z"/><ellipse fill="#3e1807" cx="41" cy="119" rx="29" ry="32"/><ellipse fill="#3c0b00" cx="158" cy="147" rx="30" ry="51"/></g></svg>