<svg xmlns="http://www.w3.org/2000/svg" viewBox="0 0 4032 3024"><filter id="b"><feGaussianBlur stdDeviation="12" /></filter><path fill="#a0865b" d="M0 0h4032v3024H0z"/><g filter="url(#b)" transform="translate(7.9 7.9) scale(15.75)" fill-opacity=".5"><ellipse fill="#1a0b00" rx="1" ry="1" transform="matrix(-78.21994 -11.44675 9.79113 -66.9065 120.6 95.2)"/><ellipse fill="#fff2dd" rx="1" ry="1" transform="matrix(-43.49712 17.77122 -43.23422 -105.82075 5.3 132)"/><ellipse fill="#fff4e0" cx="241" cy="159" rx="33" ry="121"/><ellipse fill="#fcddbd" rx="1" ry="1" transform="matrix(11.6853 -27.37329 91.55822 39.085 165.2 22.3)"/><ellipse fill="#1f2b00" rx="1" ry="1" transform="matrix(10.84418 29.71091 -75.57134 27.58278 147.2 105.6)"/><ellipse fill="#efcfb9" rx="1" ry="1" transform="rotate(52.1 -25.5 55.3) scale(21.57586 70.492)"/><path fill="#9c5400" d="M161 14L48 31l134 34z"/><ellipse fill="#680000" rx="1" ry="1" transform="rotate(-52.3 127.9 -244.7) scale(22.92392 81.45651)"/></g></svg>