<svg xmlns="http://www.w3.org/2000/svg" viewBox="0 0 4032 3024"><filter id="b"><feGaussianBlur stdDeviation="12" /></filter><path fill="#695941" d="M0 0h4032v3024H0z"/><g filter="url(#b)" transform="translate(7.9 7.9) scale(15.75)" fill-opacity=".5"><ellipse fill="#ffd187" rx="1" ry="1" transform="matrix(51.24714 -28.12248 24.60075 44.82956 89.7 83.9)"/><ellipse rx="1" ry="1" transform="matrix(31.40916 -31.19064 145.56648 146.5863 191 46.4)"/><ellipse fill="#c0b9ad" cx="167" cy="150" rx="50" ry="50"/><path d="M91-57.5l37.1 57-129.2 84-37-57z"/><ellipse fill="#b1a794" rx="1" ry="1" transform="rotate(104.8 -50.7 91.9) scale(32.33631 76.16051)"/><path fill="#fff" d="M257.1 20L271 30.4l-46.8-7 5-23.1z"/><ellipse fill="#040009" rx="1" ry="1" transform="matrix(72.04096 -10.0216 1.72874 12.4272 174.6 81)"/><ellipse fill="#100500" cx="240" cy="143" rx="23" ry="30"/></g></svg>