<svg xmlns="http://www.w3.org/2000/svg" viewBox="0 0 4032 3024"><filter id="c"><feGaussianBlur stdDeviation="55" /></filter><path fill="#907d61" d="M0 0h4032v3024H0z"/><g filter='url(#c)' fill-opacity='.5'><ellipse fill="#2d0a00" fill-opacity=".5" rx="1" ry="1" transform="matrix(5.33398 -923.90235 1423.4218 8.21786 1807.6 1541.7)"/><ellipse fill="#fff" fill-opacity=".5" rx="1" ry="1" transform="matrix(-287.50844 514.43577 -2282.16516 -1275.459 265 2573.3)"/><ellipse fill="#fff" fill-opacity=".5" rx="1" ry="1" transform="matrix(412.55274 21.95824 -70.44834 1323.5875 3801.2 710.3)"/><ellipse fill="#391800" fill-opacity=".5" rx="1" ry="1" transform="rotate(-155.4 2174 981.3) scale(441.8251 631.66263)"/><ellipse fill="#d2c0ad" fill-opacity=".5" rx="1" ry="1" transform="matrix(80.5911 281.8782 -1546.59623 442.18351 1268.6 319.6)"/><ellipse fill="#fffff6" fill-opacity=".5" rx="1" ry="1" transform="matrix(340.48438 -156.7446 253.75452 551.21163 3896 1326.2)"/><ellipse fill="#e6d9c3" fill-opacity=".5" rx="1" ry="1" transform="matrix(68.33929 -129.67368 915.7528 482.61062 3002.5 759.5)"/><path fill="#403020" fill-opacity=".5" d="M2053.7 166.9l924 174.6L4276.2 566 3067 571.5z"/></g></svg>