<svg xmlns="http://www.w3.org/2000/svg" viewBox="0 0 2742 2746"><filter id="b"><feGaussianBlur stdDeviation="12" /></filter><path fill="#9a8d79" d="M0 0h2746v2746H0z"/><g filter="url(#b)" transform="translate(5.4 5.4) scale(10.72656)" fill-opacity=".5"><ellipse rx="1" ry="1" transform="matrix(-26.47226 -4.69804 8.01559 -45.1658 28.1 135)"/><ellipse fill="#fff" rx="1" ry="1" transform="matrix(-39.93644 -14.9156 19.90975 -53.30823 234.1 109.2)"/><ellipse fill="#22171c" rx="1" ry="1" transform="matrix(-35.04667 15.80457 -48.99758 -108.65224 161.6 255)"/><ellipse fill="#200000" rx="1" ry="1" transform="matrix(-51.05581 -42.5233 13.27517 -15.9389 255 204.5)"/><ellipse fill="#ffffd7" cx="73" cy="128" rx="22" ry="47"/><ellipse fill="#f4edef" rx="1" ry="1" transform="rotate(-162.9 86 -13) scale(117.80559 19.59521)"/><ellipse fill="#eaecc0" rx="1" ry="1" transform="rotate(-174.8 59.3 30) scale(116.76554 15.16568)"/><ellipse fill="#b97c00" cx="144" cy="99" rx="58" ry="25"/></g></svg>