<svg xmlns="http://www.w3.org/2000/svg" viewBox="0 0 4032 3024"><filter id="b"><feGaussianBlur stdDeviation="12" /></filter><path fill="#906651" d="M0 0h4032v3024H0z"/><g filter="url(#b)" transform="translate(7.9 7.9) scale(15.75)" fill-opacity=".5"><ellipse fill="#fff6d9" rx="1" ry="1" transform="rotate(170.2 61.5 11.8) scale(248.56725 40.56264)"/><ellipse fill="#340000" rx="1" ry="1" transform="rotate(-114.6 140.6 34.8) scale(96.823 127.75771)"/><ellipse fill="#fff" rx="1" ry="1" transform="rotate(120 -4.7 79.3) scale(9.05755 52.91732)"/><ellipse fill="#d1d49c" rx="1" ry="1" transform="matrix(35.51939 -39.31009 8.3975 7.58772 219 106.4)"/><path fill="#fff" d="M13 82l20-46 14 89z"/><ellipse fill="#2d0000" rx="1" ry="1" transform="matrix(131.61832 -30.38648 7.36148 31.88608 202 171.8)"/><path fill="#e1ffff" d="M114-4L40 33l187 10z"/><ellipse fill="#e5f0ae" cx="134" cy="141" rx="53" ry="8"/></g></svg>