<?xml version="1.0" encoding="UTF-8" standalone="no"?>
<!DOCTYPE svg PUBLIC "-//W3C//DTD SVG 1.1//EN"
 "http://www.w3.org/Graphics/SVG/1.1/DTD/svg11.dtd">
<!-- Generated by graphviz version 10.0.1 (20240210.2158)
 -->
<!-- Title: classes Pages: 1 -->
<svg width="621pt" height="132pt"
 viewBox="0.00 0.00 621.25 132.00" xmlns="http://www.w3.org/2000/svg" xmlns:xlink="http://www.w3.org/1999/xlink">
<g id="graph0" class="graph" transform="scale(1 1) rotate(0) translate(4 128)">
<title>classes</title>
<polygon fill="white" stroke="none" points="-4,4 -4,-128 617.25,-128 617.25,4 -4,4"/>
<!-- recipes.formatter.Recipe -->
<g id="node1" class="node">
<title>recipes.formatter.Recipe</title>
<polygon fill="none" stroke="black" points="0,-17 0,-107 115,-107 115,-17 0,-17"/>
<text text-anchor="start" x="38.75" y="-89.7" font-family="Times,serif" font-size="14.00">Recipe</text>
<polyline fill="none" stroke="black" points="0,-82.5 115,-82.5"/>
<text text-anchor="start" x="8" y="-65.2" font-family="Times,serif" font-size="14.00">path_image : Path</text>
<text text-anchor="start" x="8" y="-48.7" font-family="Times,serif" font-size="14.00">rating : str</text>
<polyline fill="none" stroke="black" points="0,-41.5 115,-41.5"/>
<text text-anchor="start" x="55.62" y="-24.2" font-family="Times,serif" font-size="14.00"> </text>
</g>
<!-- recipes._RuntimeTypeCheckingModes -->
<g id="node2" class="node">
<title>recipes._RuntimeTypeCheckingModes</title>
<polygon fill="none" stroke="black" points="133,-25.25 133,-98.75 320,-98.75 320,-25.25 133,-25.25"/>
<text text-anchor="start" x="141" y="-81.45" font-family="Times,serif" font-size="14.00">_RuntimeTypeCheckingModes</text>
<polyline fill="none" stroke="black" points="133,-74.25 320,-74.25"/>
<text text-anchor="start" x="211.5" y="-56.95" font-family="Times,serif" font-size="14.00">name</text>
<polyline fill="none" stroke="black" points="133,-49.75 320,-49.75"/>
<text text-anchor="start" x="156" y="-32.45" font-family="Times,serif" font-size="14.00">from_environment(): Self</text>
</g>
<!-- recipes.formatter._TOCRecipes -->
<g id="node3" class="node">
<title>recipes.formatter._TOCRecipes</title>
<polygon fill="none" stroke="black" points="337.75,-0.5 337.75,-123.5 613.25,-123.5 613.25,-0.5 337.75,-0.5"/>
<text text-anchor="start" x="437.25" y="-106.2" font-family="Times,serif" font-size="14.00">_TOCRecipes</text>
<polyline fill="none" stroke="black" points="337.75,-99 613.25,-99"/>
<text text-anchor="start" x="407.25" y="-81.7" font-family="Times,serif" font-size="14.00">recipes : dict[str, Recipe]</text>
<text text-anchor="start" x="407.25" y="-65.2" font-family="Times,serif" font-size="14.00">sub_dir : Path</text>
<polyline fill="none" stroke="black" points="337.75,-58 613.25,-58"/>
<text text-anchor="start" x="345.75" y="-40.7" font-family="Times,serif" font-size="14.00">handle_image(line: str, path_md: Path): list[str]</text>
<text text-anchor="start" x="345.75" y="-24.2" font-family="Times,serif" font-size="14.00">handle_star(line: str, path_md: Path): list[str]</text>
<text text-anchor="start" x="345.75" y="-7.7" font-family="Times,serif" font-size="14.00">write_toc(): None</text>
</g>
</g>
</svg>
