<?xml version="1.0" encoding="UTF-8" standalone="no"?>
<!DOCTYPE svg PUBLIC "-//W3C//DTD SVG 1.1//EN"
 "http://www.w3.org/Graphics/SVG/1.1/DTD/svg11.dtd">
<!-- Generated by graphviz version 10.0.1 (20240210.2158)
 -->
<!-- Title: packages Pages: 1 -->
<svg width="277pt" height="116pt"
 viewBox="0.00 0.00 276.75 116.00" xmlns="http://www.w3.org/2000/svg" xmlns:xlink="http://www.w3.org/1999/xlink">
<g id="graph0" class="graph" transform="scale(1 1) rotate(0) translate(4 112)">
<title>packages</title>
<polygon fill="white" stroke="none" points="-4,4 -4,-112 272.75,-112 272.75,4 -4,4"/>
<!-- recipes -->
<g id="node1" class="node">
<title>recipes</title>
<polygon fill="none" stroke="black" points="54.25,-36 0,-36 0,0 54.25,0 54.25,-36"/>
<text text-anchor="middle" x="27.12" y="-12.95" font-family="Times,serif" font-size="14.00">recipes</text>
</g>
<!-- recipes.formatter -->
<g id="node2" class="node">
<title>recipes.formatter</title>
<polygon fill="none" stroke="black" points="169.62,-108 60.62,-108 60.62,-72 169.62,-72 169.62,-108"/>
<text text-anchor="middle" x="115.12" y="-84.95" font-family="Times,serif" font-size="14.00">recipes.formatter</text>
</g>
<!-- recipes.scripts -->
<g id="node3" class="node">
<title>recipes.scripts</title>
<polygon fill="none" stroke="black" points="268.75,-36 175.5,-36 175.5,0 268.75,0 268.75,-36"/>
<text text-anchor="middle" x="222.12" y="-12.95" font-family="Times,serif" font-size="14.00">recipes.scripts</text>
</g>
<!-- recipes.tasks -->
<g id="node4" class="node">
<title>recipes.tasks</title>
<polygon fill="none" stroke="black" points="157.62,-36 72.62,-36 72.62,0 157.62,0 157.62,-36"/>
<text text-anchor="middle" x="115.12" y="-12.95" font-family="Times,serif" font-size="14.00">recipes.tasks</text>
</g>
<!-- recipes.tasks&#45;&gt;recipes.formatter -->
<g id="edge1" class="edge">
<title>recipes.tasks&#45;&gt;recipes.formatter</title>
<path fill="none" stroke="black" d="M115.12,-36.3C115.12,-43.68 115.12,-52.48 115.12,-60.75"/>
<polygon fill="black" stroke="black" points="115.13,-70.68 110.63,-60.68 115.13,-66.9 115.13,-60.68 115.13,-60.68 115.13,-60.68 115.13,-66.9 119.63,-60.68 115.13,-70.68"/>
</g>
</g>
</svg>
