<?xml version="1.0" encoding="UTF-8" standalone="no"?>
<!DOCTYPE svg PUBLIC "-//W3C//DTD SVG 1.1//EN"
 "http://www.w3.org/Graphics/SVG/1.1/DTD/svg11.dtd">
<!-- Generated by graphviz version 11.0.0 (20240428.1522)
 -->
<!-- Title: packages Pages: 1 -->
<svg width="445pt" height="116pt"
 viewBox="0.00 0.00 445.12 116.00" xmlns="http://www.w3.org/2000/svg" xmlns:xlink="http://www.w3.org/1999/xlink">
<g id="graph0" class="graph" transform="scale(1 1) rotate(0) translate(4 112)">
<title>packages</title>
<polygon fill="white" stroke="none" points="-4,4 -4,-112 441.12,-112 441.12,4 -4,4"/>
<!-- recipes -->
<g id="node1" class="node">
<title>recipes</title>
<polygon fill="none" stroke="black" points="132.62,-36 78.38,-36 78.38,0 132.62,0 132.62,-36"/>
<text text-anchor="middle" x="105.5" y="-12.95" font-family="Times,serif" font-size="14.00">recipes</text>
</g>
<!-- recipes._runtime_type_check_setup -->
<g id="node2" class="node">
<title>recipes._runtime_type_check_setup</title>
<polygon fill="none" stroke="black" points="211,-108 0,-108 0,-72 211,-72 211,-108"/>
<text text-anchor="middle" x="105.5" y="-84.95" font-family="Times,serif" font-size="14.00">recipes._runtime_type_check_setup</text>
</g>
<!-- recipes&#45;&gt;recipes._runtime_type_check_setup -->
<g id="edge1" class="edge">
<title>recipes&#45;&gt;recipes._runtime_type_check_setup</title>
<path fill="none" stroke="black" d="M105.5,-36.3C105.5,-43.68 105.5,-52.48 105.5,-60.75"/>
<polygon fill="black" stroke="black" points="105.5,-70.68 101,-60.68 105.5,-66.9 105.5,-60.68 105.5,-60.68 105.5,-60.68 105.5,-66.9 110,-60.68 105.5,-70.68"/>
</g>
<!-- recipes.formatter -->
<g id="node3" class="node">
<title>recipes.formatter</title>
<polygon fill="none" stroke="black" points="338,-108 229,-108 229,-72 338,-72 338,-108"/>
<text text-anchor="middle" x="283.5" y="-84.95" font-family="Times,serif" font-size="14.00">recipes.formatter</text>
</g>
<!-- recipes.scripts -->
<g id="node4" class="node">
<title>recipes.scripts</title>
<polygon fill="none" stroke="black" points="437.12,-36 343.88,-36 343.88,0 437.12,0 437.12,-36"/>
<text text-anchor="middle" x="390.5" y="-12.95" font-family="Times,serif" font-size="14.00">recipes.scripts</text>
</g>
<!-- recipes.tasks -->
<g id="node5" class="node">
<title>recipes.tasks</title>
<polygon fill="none" stroke="black" points="326,-36 241,-36 241,0 326,0 326,-36"/>
<text text-anchor="middle" x="283.5" y="-12.95" font-family="Times,serif" font-size="14.00">recipes.tasks</text>
</g>
<!-- recipes.tasks&#45;&gt;recipes.formatter -->
<g id="edge2" class="edge">
<title>recipes.tasks&#45;&gt;recipes.formatter</title>
<path fill="none" stroke="black" d="M283.5,-36.3C283.5,-43.68 283.5,-52.48 283.5,-60.75"/>
<polygon fill="black" stroke="black" points="283.5,-70.68 279,-60.68 283.5,-66.9 283.5,-60.68 283.5,-60.68 283.5,-60.68 283.5,-66.9 288,-60.68 283.5,-70.68"/>
</g>
</g>
</svg>
