<?xml version="1.0" encoding="UTF-8" standalone="no"?>
<!DOCTYPE svg PUBLIC "-//W3C//DTD SVG 1.1//EN"
 "http://www.w3.org/Graphics/SVG/1.1/DTD/svg11.dtd">
<!-- Generated by graphviz version 2.43.0 (0)
 -->
<!-- Title: packages Pages: 1 -->
<svg width="344pt" height="116pt"
 viewBox="0.00 0.00 344.00 116.00" xmlns="http://www.w3.org/2000/svg" xmlns:xlink="http://www.w3.org/1999/xlink">
<g id="graph0" class="graph" transform="scale(1 1) rotate(0) translate(4 112)">
<title>packages</title>
<polygon fill="white" stroke="transparent" points="-4,4 -4,-112 340,-112 340,4 -4,4"/>
<!-- recipes -->
<g id="node1" class="node">
<title>recipes</title>
<polygon fill="none" stroke="black" points="68,-36 0,-36 0,0 68,0 68,-36"/>
<text text-anchor="middle" x="34" y="-14.3" font-family="Times,serif" font-size="14.00">recipes</text>
</g>
<!-- recipes.formatter -->
<g id="node2" class="node">
<title>recipes.formatter</title>
<polygon fill="none" stroke="black" points="212,-108 70,-108 70,-72 212,-72 212,-108"/>
<text text-anchor="middle" x="141" y="-86.3" font-family="Times,serif" font-size="14.00">recipes.formatter</text>
</g>
<!-- recipes.scripts -->
<g id="node3" class="node">
<title>recipes.scripts</title>
<polygon fill="none" stroke="black" points="336,-36 214,-36 214,0 336,0 336,-36"/>
<text text-anchor="middle" x="275" y="-14.3" font-family="Times,serif" font-size="14.00">recipes.scripts</text>
</g>
<!-- recipes.tasks -->
<g id="node4" class="node">
<title>recipes.tasks</title>
<polygon fill="none" stroke="black" points="196,-36 86,-36 86,0 196,0 196,-36"/>
<text text-anchor="middle" x="141" y="-14.3" font-family="Times,serif" font-size="14.00">recipes.tasks</text>
</g>
<!-- recipes.tasks&#45;&gt;recipes.formatter -->
<g id="edge1" class="edge">
<title>recipes.tasks&#45;&gt;recipes.formatter</title>
<path fill="none" stroke="black" d="M141,-36.3C141,-44.02 141,-53.29 141,-61.89"/>
<polygon fill="black" stroke="black" points="141,-71.9 136.5,-61.9 141,-66.9 141,-61.9 141,-61.9 141,-61.9 141,-66.9 145.5,-61.9 141,-71.9 141,-71.9"/>
</g>
</g>
</svg>
